{"glyphs":{"0":{"ha":938,"x_min":68,"x_max":869,"o":"m 468 -22 q 256 40 346 -22 q 117 218 165 103 q 68 492 68 333 q 117 766 68 650 q 256 945 167 882 q 468 1008 346 1008 q 681 945 592 1008 q 820 767 771 882 q 869 492 869 651 q 821 218 869 333 q 682 40 772 103 q 468 -22 592 -22 m 468 115 q 650 213 586 115 q 714 492 714 310 q 685 699 714 614 q 602 827 657 783 q 468 871 547 871 q 335 827 390 871 q 252 699 281 783 q 224 492 224 614 q 288 213 224 310 q 468 115 351 115 z "},"1":{"ha":564,"x_min":54,"x_max":413,"o":"m 263 0 l 263 703 l 54 703 l 54 824 l 139 824 q 229 838 194 824 q 279 888 264 853 q 294 986 294 924 l 413 986 l 413 0 l 263 0 z "},"2":{"ha":875,"x_min":82,"x_max":793,"o":"m 82 0 q 115 199 82 111 q 229 361 149 286 q 451 511 310 436 q 560 576 519 546 q 619 638 601 606 q 638 715 638 669 q 617 797 638 763 q 558 851 597 831 q 460 871 519 871 q 310 820 365 871 q 242 675 256 769 l 86 685 q 199 921 103 833 q 460 1008 296 1008 q 640 972 565 1008 q 753 869 714 935 q 793 718 793 804 q 768 589 793 643 q 685 488 743 535 q 526 389 626 442 q 333 255 399 321 q 264 138 268 189 l 793 138 l 793 0 l 82 0 z "},"3":{"ha":868,"x_min":67,"x_max":801,"o":"m 429 -22 q 166 57 258 -22 q 67 265 74 136 l 221 274 q 285 152 229 189 q 429 115 342 115 q 537 131 488 115 q 616 184 586 147 q 646 281 646 221 q 586 412 646 369 q 428 454 526 454 l 346 454 l 346 585 l 428 585 q 560 617 507 585 q 613 728 613 649 q 568 834 613 797 q 432 871 524 871 q 297 836 343 871 q 243 742 251 801 l 89 750 q 191 938 103 867 q 432 1008 279 1008 q 613 976 538 1008 q 728 882 688 943 q 768 739 768 821 q 710 592 768 649 q 542 514 653 535 l 542 539 q 732 453 663 524 q 801 275 801 383 q 754 115 801 182 q 624 13 707 47 q 429 -22 540 -22 z "},"4":{"ha":874,"x_min":39,"x_max":807,"o":"m 536 0 l 536 206 l 39 206 l 39 333 l 518 986 l 686 986 l 686 342 l 807 342 l 807 206 l 686 206 l 686 0 l 536 0 m 210 342 l 536 342 l 536 778 l 210 342 z "},"5":{"ha":890,"x_min":82,"x_max":808,"o":"m 443 -22 q 256 13 333 -22 q 133 113 178 49 q 82 260 89 176 l 236 269 q 302 153 247 192 q 443 115 357 115 q 597 169 540 115 q 653 321 653 224 q 627 431 653 385 q 554 503 601 478 q 442 529 507 529 q 325 501 376 529 q 251 425 274 474 l 96 425 l 163 986 l 740 986 l 740 849 l 296 849 l 254 511 l 231 532 q 290 601 254 574 q 374 642 326 628 q 476 657 422 657 q 651 614 576 657 q 767 494 725 571 q 808 321 808 418 q 763 142 808 219 q 635 21 717 64 q 443 -22 553 -22 z "},"6":{"ha":883,"x_min":82,"x_max":801,"o":"m 443 -22 q 246 30 326 -22 q 124 181 165 82 q 82 422 82 281 q 103 652 82 546 q 172 838 125 758 q 295 963 219 918 q 479 1008 371 1008 q 692 942 615 1008 q 797 767 768 876 l 649 754 q 594 840 632 808 q 479 872 556 872 q 300 775 365 872 q 231 478 235 678 l 204 483 q 256 570 219 531 q 347 634 292 610 q 472 658 401 658 q 645 617 571 658 q 760 501 719 576 q 801 326 801 426 q 756 140 801 218 q 629 19 710 61 q 443 -22 549 -22 m 444 111 q 591 169 535 111 q 647 326 647 226 q 623 435 647 389 q 555 507 599 482 q 454 532 511 532 q 343 507 392 532 q 267 435 294 482 q 239 326 239 389 q 264 215 239 264 q 335 139 289 167 q 444 111 382 111 z "},"7":{"ha":738,"x_min":28,"x_max":738,"o":"m 240 0 q 281 302 240 153 q 398 590 322 451 q 579 849 474 728 l 28 849 l 28 986 l 738 986 l 738 858 q 544 592 621 725 q 430 315 467 460 q 393 0 393 169 l 240 0 z "},"8":{"ha":868,"x_min":54,"x_max":815,"o":"m 435 -22 q 236 11 322 -22 q 102 110 150 44 q 54 269 54 175 q 119 449 54 378 q 294 543 185 519 l 297 515 q 155 592 208 536 q 101 738 101 647 q 142 878 101 817 q 256 974 182 939 q 435 1008 331 1008 q 613 974 538 1008 q 727 878 688 939 q 767 738 767 817 q 714 592 767 647 q 571 515 661 538 l 574 543 q 750 449 685 519 q 815 269 815 378 q 767 110 815 175 q 633 11 719 44 q 435 -22 547 -22 m 435 115 q 598 158 538 115 q 658 285 658 200 q 603 414 658 365 q 435 463 549 463 q 265 414 321 463 q 210 285 210 365 q 271 158 210 200 q 435 115 332 115 m 435 586 q 566 622 519 586 q 613 731 613 657 q 567 833 613 794 q 435 872 522 872 q 301 833 347 872 q 256 731 256 794 q 303 622 256 657 q 435 586 350 586 z "},"9":{"ha":886,"x_min":82,"x_max":803,"o":"m 413 -22 q 206 39 285 -22 q 96 201 126 100 l 247 211 q 305 140 264 165 q 413 114 346 114 q 590 206 529 114 q 651 503 650 297 l 679 496 q 574 363 644 408 q 410 317 504 317 q 239 359 313 317 q 124 478 165 401 q 82 656 82 554 q 126 844 82 765 q 250 965 171 922 q 433 1008 329 1008 q 642 951 561 1008 q 763 791 724 894 q 803 543 803 688 q 782 314 803 418 q 715 135 761 210 q 594 19 668 60 q 413 -22 519 -22 m 431 446 q 540 471 493 446 q 614 542 588 496 q 640 656 640 589 q 616 769 640 719 q 546 847 592 818 q 436 875 500 875 q 328 847 374 875 q 259 770 283 819 q 235 657 235 721 q 260 544 235 592 q 328 472 285 497 q 431 446 372 446 z "},"A":{"ha":957,"x_min":28,"x_max":929,"o":"m 28 0 l 383 986 l 574 986 l 929 0 l 769 0 l 679 257 l 276 257 l 188 0 l 28 0 m 324 393 l 633 393 l 478 843 l 324 393 z "},"Á":{"ha":957,"x_min":28,"x_max":929,"o":"m 28 0 l 383 986 l 574 986 l 929 0 l 769 0 l 679 257 l 276 257 l 188 0 l 28 0 m 324 393 l 633 393 l 478 843 l 324 393 m 413 1075 l 500 1261 l 654 1261 l 529 1075 l 413 1075 z "},"Ă":{"ha":957,"x_min":28,"x_max":929,"o":"m 28 0 l 383 986 l 574 986 l 929 0 l 769 0 l 679 257 l 276 257 l 188 0 l 28 0 m 324 393 l 633 393 l 478 843 l 324 393 m 478 1079 q 335 1130 389 1079 q 276 1267 281 1181 l 369 1267 q 405 1197 376 1219 q 478 1175 433 1175 q 553 1197 525 1175 q 585 1267 581 1219 l 679 1267 q 622 1130 675 1181 q 478 1079 568 1079 z "},"Ǎ":{"ha":957,"x_min":28,"x_max":929,"o":"m 28 0 l 383 986 l 574 986 l 929 0 l 769 0 l 679 257 l 276 257 l 188 0 l 28 0 m 324 393 l 633 393 l 478 843 l 324 393 m 274 1268 l 386 1268 l 492 1125 l 464 1125 l 569 1268 l 682 1268 l 554 1075 l 401 1075 l 274 1268 z "},"Â":{"ha":957,"x_min":28,"x_max":929,"o":"m 28 0 l 383 986 l 574 986 l 929 0 l 769 0 l 679 257 l 276 257 l 188 0 l 28 0 m 324 393 l 633 393 l 478 843 l 324 393 m 274 1075 l 401 1268 l 554 1268 l 682 1075 l 569 1075 l 464 1218 l 492 1218 l 386 1075 l 274 1075 z "},"Ä":{"ha":957,"x_min":28,"x_max":929,"o":"m 28 0 l 383 986 l 574 986 l 929 0 l 769 0 l 679 257 l 276 257 l 188 0 l 28 0 m 324 393 l 633 393 l 478 843 l 324 393 m 275 1092 l 275 1239 l 422 1239 l 422 1092 l 275 1092 m 535 1092 l 535 1239 l 683 1239 l 683 1092 l 535 1092 z "},"À":{"ha":957,"x_min":28,"x_max":929,"o":"m 28 0 l 383 986 l 574 986 l 929 0 l 769 0 l 679 257 l 276 257 l 188 0 l 28 0 m 324 393 l 633 393 l 478 843 l 324 393 m 428 1082 l 303 1269 l 457 1269 l 544 1082 l 428 1082 z "},"Ā":{"ha":957,"x_min":28,"x_max":929,"o":"m 28 0 l 383 986 l 574 986 l 929 0 l 769 0 l 679 257 l 276 257 l 188 0 l 28 0 m 324 393 l 633 393 l 478 843 l 324 393 m 286 1107 l 286 1225 l 672 1225 l 672 1107 l 286 1107 z "},"Ą":{"ha":957,"x_min":28,"x_max":979,"o":"m 28 0 l 383 986 l 574 986 l 929 0 l 769 0 l 679 257 l 276 257 l 188 0 l 28 0 m 324 393 l 633 393 l 478 843 l 324 393 m 849 -294 q 748 -268 785 -294 q 711 -190 711 -242 q 735 -108 711 -150 q 786 -29 760 -67 l 829 28 l 929 0 l 882 -62 q 849 -117 858 -96 q 839 -156 839 -137 q 850 -181 839 -172 q 878 -190 861 -190 q 914 -185 897 -190 q 943 -172 931 -181 l 978 -258 q 924 -284 961 -274 q 849 -294 888 -294 z "},"Å":{"ha":960,"x_min":24,"x_max":925,"o":"m 24 0 l 379 986 l 569 986 l 925 0 l 765 0 l 675 257 l 272 257 l 183 0 l 24 0 m 319 393 l 629 393 l 474 843 l 319 393 m 474 1050 q 380 1088 418 1050 q 342 1182 342 1125 q 380 1276 342 1238 q 474 1314 418 1314 q 569 1276 531 1314 q 607 1182 607 1238 q 569 1088 607 1125 q 474 1050 531 1050 m 474 1125 q 515 1141 499 1125 q 531 1182 531 1157 q 515 1222 531 1206 q 474 1238 499 1238 q 434 1222 450 1238 q 418 1182 418 1206 q 434 1141 418 1157 q 474 1125 450 1125 z "},"Ã":{"ha":960,"x_min":24,"x_max":925,"o":"m 24 0 l 379 986 l 569 986 l 925 0 l 765 0 l 675 257 l 272 257 l 183 0 l 24 0 m 319 393 l 629 393 l 474 843 l 319 393 m 543 1093 q 492 1103 515 1093 q 443 1132 468 1113 q 409 1158 422 1150 q 378 1165 396 1165 q 338 1149 354 1165 q 319 1083 322 1132 l 238 1083 q 277 1213 239 1168 q 376 1258 315 1258 q 435 1247 410 1258 q 485 1217 460 1236 q 519 1193 504 1200 q 549 1186 533 1186 q 588 1203 574 1186 q 604 1271 601 1221 l 688 1271 q 646 1140 683 1188 q 543 1093 608 1093 z "},"Æ":{"ha":1382,"x_min":28,"x_max":1308,"o":"m 28 0 l 556 986 l 1297 986 l 1297 849 l 849 849 l 849 561 l 1281 561 l 1281 428 l 849 428 l 849 138 l 1308 138 l 1308 0 l 699 0 l 699 257 l 301 257 l 368 392 l 699 392 l 699 853 l 632 853 l 192 0 l 28 0 z "},"B":{"ha":956,"x_min":119,"x_max":874,"o":"m 119 0 l 119 986 l 474 986 q 742 922 651 986 q 832 719 832 858 q 806 610 832 657 q 728 535 779 563 q 608 507 678 508 l 607 513 q 803 444 733 510 q 874 271 874 378 q 783 68 874 136 q 526 0 693 0 l 119 0 m 269 135 l 522 135 q 667 173 615 135 q 719 285 719 211 q 667 397 719 357 q 522 438 615 438 l 269 438 l 269 135 m 269 565 l 471 565 q 624 603 569 565 q 678 708 678 640 q 626 816 678 781 q 471 851 574 851 l 269 851 l 269 565 z "},"C":{"ha":990,"x_min":61,"x_max":936,"o":"m 511 -22 q 276 40 378 -22 q 118 217 175 101 q 61 492 61 332 q 117 766 61 650 q 275 945 174 882 q 513 1008 376 1008 q 797 917 696 1008 q 929 663 899 825 l 772 654 q 689 813 753 756 q 513 871 625 871 q 356 825 422 871 q 253 694 290 779 q 217 492 217 610 q 253 289 217 374 q 357 160 290 204 q 511 115 424 115 q 697 178 631 115 q 779 353 763 242 l 936 344 q 864 150 918 232 q 721 23 810 68 q 511 -22 632 -22 z "},"Ć":{"ha":990,"x_min":61,"x_max":936,"o":"m 511 -22 q 276 40 378 -22 q 118 217 175 101 q 61 492 61 332 q 117 766 61 650 q 275 945 174 882 q 513 1008 376 1008 q 797 917 696 1008 q 929 663 899 825 l 772 654 q 689 813 753 756 q 513 871 625 871 q 356 825 422 871 q 253 694 290 779 q 217 492 217 610 q 253 289 217 374 q 357 160 290 204 q 511 115 424 115 q 697 178 631 115 q 779 353 763 242 l 936 344 q 864 150 918 232 q 721 23 810 68 q 511 -22 632 -22 m 444 1075 l 532 1261 l 686 1261 l 561 1075 l 444 1075 z "},"Č":{"ha":990,"x_min":61,"x_max":936,"o":"m 511 -22 q 276 40 378 -22 q 118 217 175 101 q 61 492 61 332 q 117 766 61 650 q 275 945 174 882 q 513 1008 376 1008 q 797 917 696 1008 q 929 663 899 825 l 772 654 q 689 813 753 756 q 513 871 625 871 q 356 825 422 871 q 253 694 290 779 q 217 492 217 610 q 253 289 217 374 q 357 160 290 204 q 511 115 424 115 q 697 178 631 115 q 779 353 763 242 l 936 344 q 864 150 918 232 q 721 23 810 68 q 511 -22 632 -22 m 306 1268 l 418 1268 l 524 1125 l 496 1125 l 601 1268 l 714 1268 l 586 1075 l 433 1075 l 306 1268 z "},"Ç":{"ha":990,"x_min":61,"x_max":936,"o":"m 511 -22 q 276 40 378 -22 q 118 217 175 101 q 61 492 61 332 q 117 766 61 650 q 275 945 174 882 q 513 1008 376 1008 q 797 917 696 1008 q 929 663 899 825 l 772 654 q 689 813 753 756 q 513 871 625 871 q 356 825 422 871 q 253 694 290 779 q 217 492 217 610 q 253 289 217 374 q 357 160 290 204 q 511 115 424 115 q 697 178 631 115 q 779 353 763 242 l 936 344 q 864 150 918 232 q 721 23 810 68 q 511 -22 632 -22 m 501 -311 q 392 -280 435 -311 q 335 -200 350 -249 l 413 -169 q 444 -212 424 -199 q 499 -225 465 -225 q 552 -211 533 -225 q 571 -172 571 -197 q 552 -129 571 -146 q 471 -112 533 -112 l 425 -67 l 476 14 l 575 14 l 531 -47 q 632 -87 600 -51 q 664 -175 664 -122 q 642 -248 664 -218 q 585 -294 621 -278 q 501 -311 549 -311 z "},"Ĉ":{"ha":990,"x_min":61,"x_max":936,"o":"m 511 -22 q 276 40 378 -22 q 118 217 175 101 q 61 492 61 332 q 117 766 61 650 q 275 945 174 882 q 513 1008 376 1008 q 797 917 696 1008 q 929 663 899 825 l 772 654 q 689 813 753 756 q 513 871 625 871 q 356 825 422 871 q 253 694 290 779 q 217 492 217 610 q 253 289 217 374 q 357 160 290 204 q 511 115 424 115 q 697 178 631 115 q 779 353 763 242 l 936 344 q 864 150 918 232 q 721 23 810 68 q 511 -22 632 -22 m 306 1075 l 433 1268 l 586 1268 l 714 1075 l 601 1075 l 496 1218 l 524 1218 l 418 1075 l 306 1075 z "},"Ċ":{"ha":990,"x_min":61,"x_max":936,"o":"m 511 -22 q 276 40 378 -22 q 118 217 175 101 q 61 492 61 332 q 117 766 61 650 q 275 945 174 882 q 513 1008 376 1008 q 797 917 696 1008 q 929 663 899 825 l 772 654 q 689 813 753 756 q 513 871 625 871 q 356 825 422 871 q 253 694 290 779 q 217 492 217 610 q 253 289 217 374 q 357 160 290 204 q 511 115 424 115 q 697 178 631 115 q 779 353 763 242 l 936 344 q 864 150 918 232 q 721 23 810 68 q 511 -22 632 -22 m 433 1093 l 433 1240 l 586 1240 l 586 1093 l 433 1093 z "},"D":{"ha":979,"x_min":119,"x_max":918,"o":"m 119 0 l 119 986 l 436 986 q 793 858 668 986 q 918 492 918 729 q 795 128 918 256 q 444 0 672 0 l 119 0 m 269 138 l 436 138 q 681 226 600 138 q 763 492 763 314 q 681 760 763 672 q 436 849 600 849 l 269 849 l 269 138 z "},"Ď":{"ha":979,"x_min":119,"x_max":918,"o":"m 119 0 l 119 986 l 436 986 q 793 858 668 986 q 918 492 918 729 q 795 128 918 256 q 444 0 672 0 l 119 0 m 269 138 l 436 138 q 681 226 600 138 q 763 492 763 314 q 681 760 763 672 q 436 849 600 849 l 269 849 l 269 138 m 246 1268 l 358 1268 l 464 1125 l 436 1125 l 542 1268 l 654 1268 l 526 1075 l 374 1075 l 246 1268 z "},"Đ":{"ha":979,"x_min":22,"x_max":918,"o":"m 119 0 l 119 986 l 436 986 q 793 858 668 986 q 918 492 918 729 q 795 128 918 256 q 444 0 672 0 l 119 0 m 269 138 l 436 138 q 681 226 600 138 q 763 492 763 314 q 681 760 763 672 q 436 849 600 849 l 269 849 l 269 138 m 22 431 l 22 556 l 542 556 l 542 431 l 22 431 z "},"Ð":{"ha":979,"x_min":22,"x_max":918,"o":"m 119 0 l 119 986 l 436 986 q 793 858 668 986 q 918 492 918 729 q 795 128 918 256 q 444 0 672 0 l 119 0 m 269 138 l 436 138 q 681 226 600 138 q 763 492 763 314 q 681 760 763 672 q 436 849 600 849 l 269 849 l 269 138 m 22 431 l 22 556 l 542 556 l 542 431 l 22 431 z "},"E":{"ha":846,"x_min":119,"x_max":772,"o":"m 119 0 l 119 986 l 761 986 l 761 849 l 269 849 l 269 561 l 744 561 l 744 428 l 269 428 l 269 138 l 772 138 l 772 0 l 119 0 z "},"É":{"ha":846,"x_min":119,"x_max":772,"o":"m 119 0 l 119 986 l 761 986 l 761 849 l 269 849 l 269 561 l 744 561 l 744 428 l 269 428 l 269 138 l 772 138 l 772 0 l 119 0 m 378 1075 l 465 1261 l 619 1261 l 494 1075 l 378 1075 z "},"Ě":{"ha":846,"x_min":119,"x_max":772,"o":"m 119 0 l 119 986 l 761 986 l 761 849 l 269 849 l 269 561 l 744 561 l 744 428 l 269 428 l 269 138 l 772 138 l 772 0 l 119 0 m 239 1268 l 351 1268 l 457 1125 l 429 1125 l 535 1268 l 647 1268 l 519 1075 l 367 1075 l 239 1268 z "},"Ê":{"ha":846,"x_min":119,"x_max":772,"o":"m 119 0 l 119 986 l 761 986 l 761 849 l 269 849 l 269 561 l 744 561 l 744 428 l 269 428 l 269 138 l 772 138 l 772 0 l 119 0 m 239 1075 l 367 1268 l 519 1268 l 647 1075 l 535 1075 l 429 1218 l 457 1218 l 351 1075 l 239 1075 z "},"Ë":{"ha":846,"x_min":119,"x_max":772,"o":"m 119 0 l 119 986 l 761 986 l 761 849 l 269 849 l 269 561 l 744 561 l 744 428 l 269 428 l 269 138 l 772 138 l 772 0 l 119 0 m 239 1092 l 239 1239 l 386 1239 l 386 1092 l 239 1092 m 499 1092 l 499 1239 l 647 1239 l 647 1092 l 499 1092 z "},"Ė":{"ha":846,"x_min":119,"x_max":772,"o":"m 119 0 l 119 986 l 761 986 l 761 849 l 269 849 l 269 561 l 744 561 l 744 428 l 269 428 l 269 138 l 772 138 l 772 0 l 119 0 m 367 1093 l 367 1240 l 519 1240 l 519 1093 l 367 1093 z "},"È":{"ha":846,"x_min":119,"x_max":772,"o":"m 119 0 l 119 986 l 761 986 l 761 849 l 269 849 l 269 561 l 744 561 l 744 428 l 269 428 l 269 138 l 772 138 l 772 0 l 119 0 m 392 1082 l 267 1269 l 421 1269 l 508 1082 l 392 1082 z "},"Ē":{"ha":846,"x_min":119,"x_max":772,"o":"m 119 0 l 119 986 l 761 986 l 761 849 l 269 849 l 269 561 l 744 561 l 744 428 l 269 428 l 269 138 l 772 138 l 772 0 l 119 0 m 250 1107 l 250 1225 l 636 1225 l 636 1107 l 250 1107 z "},"Ę":{"ha":846,"x_min":119,"x_max":822,"o":"m 119 0 l 119 986 l 761 986 l 761 849 l 269 849 l 269 561 l 744 561 l 744 428 l 269 428 l 269 138 l 772 138 l 772 0 l 119 0 m 692 -294 q 591 -268 628 -294 q 554 -190 554 -242 q 578 -108 554 -150 q 629 -29 603 -67 l 672 28 l 772 0 l 725 -62 q 692 -117 701 -96 q 682 -156 682 -137 q 693 -181 682 -172 q 721 -190 704 -190 q 757 -185 740 -190 q 786 -172 774 -181 l 821 -258 q 767 -284 804 -274 q 692 -294 731 -294 z "},"Ẽ":{"ha":846,"x_min":119,"x_max":772,"o":"m 119 0 l 119 986 l 761 986 l 761 849 l 269 849 l 269 561 l 744 561 l 744 428 l 269 428 l 269 138 l 772 138 l 772 0 l 119 0 m 522 1090 q 471 1100 494 1090 q 422 1129 447 1110 q 388 1155 401 1147 q 357 1163 375 1163 q 317 1146 333 1163 q 299 1081 301 1129 l 217 1081 q 256 1210 218 1165 q 356 1256 294 1256 q 414 1244 389 1256 q 464 1214 439 1233 q 498 1190 483 1197 q 528 1183 513 1183 q 567 1201 553 1183 q 583 1268 581 1218 l 667 1268 q 625 1138 663 1185 q 522 1090 588 1090 z "},"Ə":{"ha":1011,"x_min":61,"x_max":950,"o":"m 810 415 l 222 415 q 271 250 235 317 q 364 149 307 183 q 496 115 421 115 q 648 155 581 115 q 755 274 715 194 q 794 468 794 353 l 794 508 q 754 705 794 624 q 646 828 714 786 q 494 871 578 871 q 393 851 440 871 q 310 792 346 832 q 249 692 274 751 l 90 704 q 178 866 121 799 q 317 971 236 933 q 494 1008 397 1008 q 735 946 632 1008 q 894 768 838 883 q 950 493 950 653 q 915 274 950 369 q 819 112 881 178 q 676 12 758 46 q 494 -22 593 -22 q 333 9 411 -22 q 193 103 254 40 q 97 259 132 165 q 61 476 61 353 l 61 549 l 814 549 l 810 415 z "},"F":{"ha":826,"x_min":119,"x_max":760,"o":"m 119 0 l 119 986 l 760 986 l 760 849 l 190 849 l 269 931 l 269 478 l 190 549 l 735 549 l 735 415 l 190 415 l 269 486 l 269 0 l 119 0 z "},"G":{"ha":990,"x_min":61,"x_max":922,"o":"m 507 -22 q 267 44 367 -22 q 114 226 167 110 q 61 492 61 342 q 115 757 61 640 q 269 941 168 874 q 513 1008 371 1008 q 717 965 633 1008 q 851 847 801 922 q 919 676 900 772 l 763 668 q 688 815 746 758 q 513 871 629 871 q 344 819 410 871 q 248 682 279 768 q 217 492 217 596 q 248 299 217 383 q 345 165 279 214 q 514 115 411 115 q 653 150 594 115 q 744 244 711 185 q 779 376 776 304 l 515 376 l 515 503 l 922 503 l 922 0 l 819 0 l 810 222 l 829 206 q 767 88 814 139 q 652 7 719 36 q 507 -22 585 -22 z "},"Ğ":{"ha":990,"x_min":61,"x_max":922,"o":"m 507 -22 q 267 44 367 -22 q 114 226 167 110 q 61 492 61 342 q 115 757 61 640 q 269 941 168 874 q 513 1008 371 1008 q 717 965 633 1008 q 851 847 801 922 q 919 676 900 772 l 763 668 q 688 815 746 758 q 513 871 629 871 q 344 819 410 871 q 248 682 279 768 q 217 492 217 596 q 248 299 217 383 q 345 165 279 214 q 514 115 411 115 q 653 150 594 115 q 744 244 711 185 q 779 376 776 304 l 515 376 l 515 503 l 922 503 l 922 0 l 819 0 l 810 222 l 829 206 q 767 88 814 139 q 652 7 719 36 q 507 -22 585 -22 m 513 1079 q 369 1130 424 1079 q 311 1267 315 1181 l 404 1267 q 440 1197 411 1219 q 513 1175 468 1175 q 588 1197 560 1175 q 619 1267 615 1219 l 714 1267 q 656 1130 710 1181 q 513 1079 603 1079 z "},"Ǧ":{"ha":990,"x_min":61,"x_max":922,"o":"m 507 -22 q 267 44 367 -22 q 114 226 167 110 q 61 492 61 342 q 115 757 61 640 q 269 941 168 874 q 513 1008 371 1008 q 717 965 633 1008 q 851 847 801 922 q 919 676 900 772 l 763 668 q 688 815 746 758 q 513 871 629 871 q 344 819 410 871 q 248 682 279 768 q 217 492 217 596 q 248 299 217 383 q 345 165 279 214 q 514 115 411 115 q 653 150 594 115 q 744 244 711 185 q 779 376 776 304 l 515 376 l 515 503 l 922 503 l 922 0 l 819 0 l 810 222 l 829 206 q 767 88 814 139 q 652 7 719 36 q 507 -22 585 -22 m 308 1268 l 421 1268 l 526 1125 l 499 1125 l 604 1268 l 717 1268 l 589 1075 l 436 1075 l 308 1268 z "},"Ĝ":{"ha":990,"x_min":61,"x_max":922,"o":"m 507 -22 q 267 44 367 -22 q 114 226 167 110 q 61 492 61 342 q 115 757 61 640 q 269 941 168 874 q 513 1008 371 1008 q 717 965 633 1008 q 851 847 801 922 q 919 676 900 772 l 763 668 q 688 815 746 758 q 513 871 629 871 q 344 819 410 871 q 248 682 279 768 q 217 492 217 596 q 248 299 217 383 q 345 165 279 214 q 514 115 411 115 q 653 150 594 115 q 744 244 711 185 q 779 376 776 304 l 515 376 l 515 503 l 922 503 l 922 0 l 819 0 l 810 222 l 829 206 q 767 88 814 139 q 652 7 719 36 q 507 -22 585 -22 m 308 1075 l 436 1268 l 589 1268 l 717 1075 l 604 1075 l 499 1218 l 526 1218 l 421 1075 l 308 1075 z "},"Ģ":{"ha":990,"x_min":61,"x_max":922,"o":"m 507 -22 q 267 44 367 -22 q 114 226 167 110 q 61 492 61 342 q 115 757 61 640 q 269 941 168 874 q 513 1008 371 1008 q 717 965 633 1008 q 851 847 801 922 q 919 676 900 772 l 763 668 q 688 815 746 758 q 513 871 629 871 q 344 819 410 871 q 248 682 279 768 q 217 492 217 596 q 248 299 217 383 q 345 165 279 214 q 514 115 411 115 q 653 150 594 115 q 744 244 711 185 q 779 376 776 304 l 515 376 l 515 503 l 922 503 l 922 0 l 819 0 l 810 222 l 829 206 q 767 88 814 139 q 652 7 719 36 q 507 -22 585 -22 m 415 -339 l 490 -208 l 440 -208 l 440 -72 l 593 -72 l 593 -196 l 510 -339 l 415 -339 z "},"Ġ":{"ha":990,"x_min":61,"x_max":922,"o":"m 507 -22 q 267 44 367 -22 q 114 226 167 110 q 61 492 61 342 q 115 757 61 640 q 269 941 168 874 q 513 1008 371 1008 q 717 965 633 1008 q 851 847 801 922 q 919 676 900 772 l 763 668 q 688 815 746 758 q 513 871 629 871 q 344 819 410 871 q 248 682 279 768 q 217 492 217 596 q 248 299 217 383 q 345 165 279 214 q 514 115 411 115 q 653 150 594 115 q 744 244 711 185 q 779 376 776 304 l 515 376 l 515 503 l 922 503 l 922 0 l 819 0 l 810 222 l 829 206 q 767 88 814 139 q 652 7 719 36 q 507 -22 585 -22 m 438 1093 l 438 1240 l 590 1240 l 590 1093 l 438 1093 z "},"Ḡ":{"ha":990,"x_min":61,"x_max":922,"o":"m 507 -22 q 267 44 367 -22 q 114 226 167 110 q 61 492 61 342 q 115 757 61 640 q 269 941 168 874 q 513 1008 371 1008 q 717 965 633 1008 q 851 847 801 922 q 919 676 900 772 l 763 668 q 688 815 746 758 q 513 871 629 871 q 344 819 410 871 q 248 682 279 768 q 217 492 217 596 q 248 299 217 383 q 345 165 279 214 q 514 115 411 115 q 653 150 594 115 q 744 244 711 185 q 779 376 776 304 l 515 376 l 515 503 l 922 503 l 922 0 l 819 0 l 810 222 l 829 206 q 767 88 814 139 q 652 7 719 36 q 507 -22 585 -22 m 321 1107 l 321 1225 l 707 1225 l 707 1107 l 321 1107 z "},"Ǥ":{"ha":1050,"x_min":61,"x_max":996,"o":"m 515 217 l 515 314 l 996 314 l 996 217 l 515 217 m 511 -22 q 264 46 364 -22 q 113 231 164 114 q 61 492 61 347 q 115 754 61 638 q 270 940 168 871 q 517 1008 372 1008 q 790 918 689 1008 q 919 676 890 828 l 763 668 q 724 773 753 726 q 644 845 694 819 q 515 871 594 871 q 344 819 411 871 q 247 682 278 768 q 217 492 217 596 q 248 298 217 383 q 344 164 279 213 q 510 115 410 115 q 656 150 597 115 q 746 247 715 185 q 779 389 776 308 l 515 389 l 515 503 l 922 503 l 922 443 q 874 190 922 294 q 734 32 826 86 q 511 -22 642 -22 z "},"H":{"ha":994,"x_min":119,"x_max":875,"o":"m 119 0 l 119 986 l 269 986 l 269 511 l 197 564 l 797 564 l 725 511 l 725 986 l 875 986 l 875 0 l 725 0 l 725 481 l 797 428 l 197 428 l 269 481 l 269 0 l 119 0 z "},"Ħ":{"ha":994,"x_min":17,"x_max":978,"o":"m 119 0 l 119 986 l 269 986 l 269 511 l 197 564 l 797 564 l 725 511 l 725 986 l 875 986 l 875 0 l 725 0 l 725 481 l 797 428 l 197 428 l 269 481 l 269 0 l 119 0 m 17 731 l 17 856 l 978 856 l 978 731 l 17 731 z "},"Ĥ":{"ha":994,"x_min":119,"x_max":875,"o":"m 119 0 l 119 986 l 269 986 l 269 511 l 197 564 l 797 564 l 725 511 l 725 986 l 875 986 l 875 0 l 725 0 l 725 481 l 797 428 l 197 428 l 269 481 l 269 0 l 119 0 m 293 1075 l 421 1268 l 574 1268 l 701 1075 l 589 1075 l 483 1218 l 511 1218 l 406 1075 l 293 1075 z "},"I":{"ha":389,"x_min":119,"x_max":269,"o":"m 119 0 l 119 986 l 269 986 l 269 0 l 119 0 z "},"Ĳ":{"ha":1207,"x_min":119,"x_max":1108,"o":"m 119 0 l 119 986 l 269 986 l 269 0 l 119 0 m 778 -22 q 605 23 679 -22 q 490 148 531 68 q 449 332 450 228 l 601 340 q 649 172 603 229 q 778 115 694 115 q 912 175 865 115 q 958 347 958 235 l 958 986 l 1108 986 l 1108 347 q 1067 151 1108 235 q 953 23 1026 68 q 778 -22 879 -22 z "},"Í":{"ha":389,"x_min":119,"x_max":371,"o":"m 119 0 l 119 986 l 269 986 l 269 0 l 119 0 m 129 1075 l 217 1261 l 371 1261 l 246 1075 l 129 1075 z "},"Î":{"ha":389,"x_min":-10,"x_max":399,"o":"m 119 0 l 119 986 l 269 986 l 269 0 l 119 0 m -10 1075 l 118 1268 l 271 1268 l 399 1075 l 286 1075 l 181 1218 l 208 1218 l 103 1075 l -10 1075 z "},"Ï":{"ha":389,"x_min":-10,"x_max":399,"o":"m 119 0 l 119 986 l 269 986 l 269 0 l 119 0 m -10 1092 l -10 1239 l 138 1239 l 138 1092 l -10 1092 m 250 1092 l 250 1239 l 399 1239 l 399 1092 l 250 1092 z "},"İ":{"ha":389,"x_min":118,"x_max":271,"o":"m 119 0 l 119 986 l 269 986 l 269 0 l 119 0 m 118 1093 l 118 1240 l 271 1240 l 271 1093 l 118 1093 z "},"Ì":{"ha":389,"x_min":18,"x_max":269,"o":"m 119 0 l 119 986 l 269 986 l 269 0 l 119 0 m 144 1082 l 19 1269 l 174 1269 l 261 1082 l 144 1082 z "},"Ī":{"ha":389,"x_min":1,"x_max":388,"o":"m 119 0 l 119 986 l 269 986 l 269 0 l 119 0 m 1 1107 l 1 1225 l 388 1225 l 388 1107 l 1 1107 z "},"Į":{"ha":389,"x_min":51,"x_max":319,"o":"m 119 0 l 119 986 l 269 986 l 269 0 l 119 0 m 189 -294 q 88 -268 125 -294 q 51 -190 51 -242 q 76 -108 51 -150 q 126 -29 100 -67 l 169 28 l 269 0 l 222 -62 q 189 -117 199 -96 q 179 -156 179 -137 q 190 -181 179 -172 q 218 -190 201 -190 q 254 -185 238 -190 q 283 -172 271 -181 l 318 -258 q 265 -284 301 -274 q 189 -294 228 -294 z "},"Ĩ":{"ha":389,"x_min":-32,"x_max":419,"o":"m 119 0 l 119 986 l 269 986 l 269 0 l 119 0 m 275 1090 q 224 1100 247 1090 q 175 1129 200 1110 q 141 1155 154 1147 q 110 1163 128 1163 q 70 1146 86 1163 q 51 1081 54 1129 l -31 1081 q 9 1210 -29 1165 q 108 1256 47 1256 q 167 1244 142 1256 q 217 1214 192 1233 q 251 1190 236 1197 q 281 1183 265 1183 q 319 1201 306 1183 q 336 1268 333 1218 l 419 1268 q 378 1138 415 1185 q 275 1090 340 1090 z "},"J":{"ha":843,"x_min":85,"x_max":744,"o":"m 414 -22 q 241 23 315 -22 q 126 148 167 68 q 85 332 86 228 l 238 340 q 285 172 239 229 q 414 115 331 115 q 548 175 501 115 q 594 347 594 235 l 594 986 l 744 986 l 744 347 q 703 151 744 235 q 589 23 663 68 q 414 -22 515 -22 z "},"Ĵ":{"ha":843,"x_min":85,"x_max":875,"o":"m 414 -22 q 241 23 315 -22 q 126 148 167 68 q 85 332 86 228 l 238 340 q 285 172 239 229 q 414 115 331 115 q 548 175 501 115 q 594 347 594 235 l 594 986 l 744 986 l 744 347 q 703 151 744 235 q 589 23 663 68 q 414 -22 515 -22 m 467 1075 l 594 1268 l 747 1268 l 875 1075 l 763 1075 l 657 1218 l 685 1218 l 579 1075 l 467 1075 z "},"K":{"ha":911,"x_min":119,"x_max":892,"o":"m 119 0 l 119 986 l 269 986 l 269 515 l 685 986 l 867 986 l 489 556 l 892 0 l 715 0 l 389 450 l 269 317 l 269 0 l 119 0 z "},"Ǩ":{"ha":911,"x_min":119,"x_max":892,"o":"m 119 0 l 119 986 l 269 986 l 269 515 l 685 986 l 867 986 l 489 556 l 892 0 l 715 0 l 389 450 l 269 317 l 269 0 l 119 0 m 260 1268 l 372 1268 l 478 1125 l 450 1125 l 556 1268 l 668 1268 l 540 1075 l 388 1075 l 260 1268 z "},"Ķ":{"ha":911,"x_min":119,"x_max":892,"o":"m 119 0 l 119 986 l 269 986 l 269 515 l 685 986 l 867 986 l 489 556 l 892 0 l 715 0 l 389 450 l 269 317 l 269 0 l 119 0 m 385 -339 l 460 -208 l 410 -208 l 410 -72 l 563 -72 l 563 -196 l 479 -339 l 385 -339 z "},"L":{"ha":810,"x_min":119,"x_max":750,"o":"m 119 0 l 119 986 l 269 986 l 269 56 l 190 138 l 750 138 l 750 0 l 119 0 z "},"Ĺ":{"ha":810,"x_min":119,"x_max":750,"o":"m 119 0 l 119 986 l 269 986 l 269 56 l 190 138 l 750 138 l 750 0 l 119 0 m 129 1075 l 217 1261 l 371 1261 l 246 1075 l 129 1075 z "},"Ľ":{"ha":810,"x_min":119,"x_max":750,"o":"m 119 0 l 119 986 l 269 986 l 269 56 l 190 138 l 750 138 l 750 0 l 119 0 m 547 618 l 589 986 l 726 986 l 653 618 l 547 618 z "},"Ļ":{"ha":810,"x_min":119,"x_max":750,"o":"m 119 0 l 119 986 l 269 986 l 269 56 l 190 138 l 750 138 l 750 0 l 119 0 m 333 -339 l 408 -208 l 358 -208 l 358 -72 l 511 -72 l 511 -196 l 428 -339 l 333 -339 z "},"Ł":{"ha":810,"x_min":21,"x_max":750,"o":"m 119 0 l 119 986 l 269 986 l 269 56 l 190 138 l 750 138 l 750 0 l 119 0 m 21 356 l 21 472 l 471 701 l 471 583 l 21 356 z "},"M":{"ha":1236,"x_min":119,"x_max":1117,"o":"m 119 0 l 119 986 l 325 986 l 618 176 l 911 986 l 1117 986 l 1117 0 l 967 0 l 967 722 l 701 1 l 535 1 l 269 722 l 269 0 l 119 0 z "},"N":{"ha":1035,"x_min":119,"x_max":915,"o":"m 119 0 l 119 986 l 310 986 l 765 182 l 765 986 l 915 986 l 915 0 l 718 0 l 269 786 l 269 0 l 119 0 z "},"Ń":{"ha":1035,"x_min":119,"x_max":915,"o":"m 119 0 l 119 986 l 310 986 l 765 182 l 765 986 l 915 986 l 915 0 l 718 0 l 269 786 l 269 0 l 119 0 m 468 1075 l 556 1261 l 710 1261 l 585 1075 l 468 1075 z "},"Ň":{"ha":1035,"x_min":119,"x_max":915,"o":"m 119 0 l 119 986 l 310 986 l 765 182 l 765 986 l 915 986 l 915 0 l 718 0 l 269 786 l 269 0 l 119 0 m 329 1268 l 442 1268 l 547 1125 l 519 1125 l 625 1268 l 738 1268 l 610 1075 l 457 1075 l 329 1268 z "},"Ņ":{"ha":1035,"x_min":119,"x_max":915,"o":"m 119 0 l 119 986 l 310 986 l 765 182 l 765 986 l 915 986 l 915 0 l 718 0 l 269 786 l 269 0 l 119 0 m 417 -339 l 492 -208 l 442 -208 l 442 -72 l 594 -72 l 594 -196 l 511 -339 l 417 -339 z "},"Ñ":{"ha":1035,"x_min":119,"x_max":915,"o":"m 119 0 l 119 986 l 310 986 l 765 182 l 765 986 l 915 986 l 915 0 l 718 0 l 269 786 l 269 0 l 119 0 m 614 1090 q 563 1100 586 1090 q 514 1129 539 1110 q 480 1155 493 1147 q 449 1163 467 1163 q 409 1146 425 1163 q 390 1081 393 1129 l 308 1081 q 348 1210 310 1165 q 447 1256 386 1256 q 506 1244 481 1256 q 556 1214 531 1233 q 590 1190 575 1197 q 619 1183 604 1183 q 658 1201 644 1183 q 675 1268 672 1218 l 758 1268 q 717 1138 754 1185 q 614 1090 679 1090 z "},"Ŋ":{"ha":1035,"x_min":119,"x_max":915,"o":"m 119 0 l 119 986 l 310 986 l 765 183 l 765 986 l 915 986 l 915 0 l 718 0 l 269 785 l 269 0 l 119 0 m 547 -214 l 547 -92 l 686 -92 q 749 -71 729 -92 q 769 -11 769 -50 l 769 128 l 915 128 l 915 -10 q 859 -158 915 -103 q 703 -214 803 -214 l 547 -214 z "},"O":{"ha":1043,"x_min":61,"x_max":982,"o":"m 521 -22 q 275 40 378 -22 q 117 217 172 101 q 61 492 61 332 q 117 767 61 651 q 275 946 172 883 q 521 1008 378 1008 q 769 946 665 1008 q 927 767 872 883 q 982 492 982 651 q 927 217 982 332 q 769 40 872 101 q 521 -22 665 -22 m 521 115 q 685 160 617 115 q 790 288 754 204 q 826 492 826 372 q 790 696 826 611 q 685 826 754 781 q 521 871 617 871 q 358 826 426 871 q 253 696 290 781 q 217 492 217 611 q 253 288 217 372 q 358 160 290 204 q 521 115 426 115 z "},"Ó":{"ha":1043,"x_min":61,"x_max":982,"o":"m 521 -22 q 275 40 378 -22 q 117 217 172 101 q 61 492 61 332 q 117 767 61 651 q 275 946 172 883 q 521 1008 378 1008 q 769 946 665 1008 q 927 767 872 883 q 982 492 982 651 q 927 217 982 332 q 769 40 872 101 q 521 -22 665 -22 m 521 115 q 685 160 617 115 q 790 288 754 204 q 826 492 826 372 q 790 696 826 611 q 685 826 754 781 q 521 871 617 871 q 358 826 426 871 q 253 696 290 781 q 217 492 217 611 q 253 288 217 372 q 358 160 290 204 q 521 115 426 115 m 456 1075 l 543 1261 l 697 1261 l 572 1075 l 456 1075 z "},"Ô":{"ha":1043,"x_min":61,"x_max":982,"o":"m 521 -22 q 275 40 378 -22 q 117 217 172 101 q 61 492 61 332 q 117 767 61 651 q 275 946 172 883 q 521 1008 378 1008 q 769 946 665 1008 q 927 767 872 883 q 982 492 982 651 q 927 217 982 332 q 769 40 872 101 q 521 -22 665 -22 m 521 115 q 685 160 617 115 q 790 288 754 204 q 826 492 826 372 q 790 696 826 611 q 685 826 754 781 q 521 871 617 871 q 358 826 426 871 q 253 696 290 781 q 217 492 217 611 q 253 288 217 372 q 358 160 290 204 q 521 115 426 115 m 317 1075 l 444 1268 l 597 1268 l 725 1075 l 613 1075 l 507 1218 l 535 1218 l 429 1075 l 317 1075 z "},"Ö":{"ha":1043,"x_min":61,"x_max":982,"o":"m 521 -22 q 275 40 378 -22 q 117 217 172 101 q 61 492 61 332 q 117 767 61 651 q 275 946 172 883 q 521 1008 378 1008 q 769 946 665 1008 q 927 767 872 883 q 982 492 982 651 q 927 217 982 332 q 769 40 872 101 q 521 -22 665 -22 m 521 115 q 685 160 617 115 q 790 288 754 204 q 826 492 826 372 q 790 696 826 611 q 685 826 754 781 q 521 871 617 871 q 358 826 426 871 q 253 696 290 781 q 217 492 217 611 q 253 288 217 372 q 358 160 290 204 q 521 115 426 115 m 318 1092 l 318 1239 l 465 1239 l 465 1092 l 318 1092 m 578 1092 l 578 1239 l 726 1239 l 726 1092 l 578 1092 z "},"Ò":{"ha":1043,"x_min":61,"x_max":982,"o":"m 521 -22 q 275 40 378 -22 q 117 217 172 101 q 61 492 61 332 q 117 767 61 651 q 275 946 172 883 q 521 1008 378 1008 q 769 946 665 1008 q 927 767 872 883 q 982 492 982 651 q 927 217 982 332 q 769 40 872 101 q 521 -22 665 -22 m 521 115 q 685 160 617 115 q 790 288 754 204 q 826 492 826 372 q 790 696 826 611 q 685 826 754 781 q 521 871 617 871 q 358 826 426 871 q 253 696 290 781 q 217 492 217 611 q 253 288 217 372 q 358 160 290 204 q 521 115 426 115 m 471 1082 l 346 1269 l 500 1269 l 588 1082 l 471 1082 z "},"Ő":{"ha":1043,"x_min":61,"x_max":982,"o":"m 521 -22 q 275 40 378 -22 q 117 217 172 101 q 61 492 61 332 q 117 767 61 651 q 275 946 172 883 q 521 1008 378 1008 q 769 946 665 1008 q 927 767 872 883 q 982 492 982 651 q 927 217 982 332 q 769 40 872 101 q 521 -22 665 -22 m 521 115 q 685 160 617 115 q 790 288 754 204 q 826 492 826 372 q 790 696 826 611 q 685 826 754 781 q 521 871 617 871 q 358 826 426 871 q 253 696 290 781 q 217 492 217 611 q 253 288 217 372 q 358 160 290 204 q 521 115 426 115 m 358 1075 l 446 1261 l 600 1261 l 475 1075 l 358 1075 m 561 1075 l 649 1261 l 803 1261 l 678 1075 l 561 1075 z "},"Ō":{"ha":1043,"x_min":61,"x_max":982,"o":"m 521 -22 q 275 40 378 -22 q 117 217 172 101 q 61 492 61 332 q 117 767 61 651 q 275 946 172 883 q 521 1008 378 1008 q 769 946 665 1008 q 927 767 872 883 q 982 492 982 651 q 927 217 982 332 q 769 40 872 101 q 521 -22 665 -22 m 521 115 q 685 160 617 115 q 790 288 754 204 q 826 492 826 372 q 790 696 826 611 q 685 826 754 781 q 521 871 617 871 q 358 826 426 871 q 253 696 290 781 q 217 492 217 611 q 253 288 217 372 q 358 160 290 204 q 521 115 426 115 m 328 1107 l 328 1225 l 714 1225 l 714 1107 l 328 1107 z "},"Ø":{"ha":1043,"x_min":61,"x_max":982,"o":"m 521 -22 q 275 40 378 -22 q 117 217 172 101 q 61 492 61 332 q 117 767 61 651 q 275 946 172 883 q 521 1008 378 1008 q 769 946 665 1008 q 927 767 872 883 q 982 492 982 651 q 927 217 982 332 q 769 40 872 101 q 521 -22 665 -22 m 521 115 q 685 160 617 115 q 790 288 754 204 q 826 492 826 372 q 790 696 826 611 q 685 826 754 781 q 521 871 617 871 q 358 826 426 871 q 253 696 290 781 q 217 492 217 611 q 253 288 217 372 q 358 160 290 204 q 521 115 426 115 m 103 -22 l 811 1008 l 940 1008 l 232 -22 l 103 -22 z "},"Õ":{"ha":1043,"x_min":61,"x_max":982,"o":"m 521 -22 q 275 40 378 -22 q 117 217 172 101 q 61 492 61 332 q 117 767 61 651 q 275 946 172 883 q 521 1008 378 1008 q 769 946 665 1008 q 927 767 872 883 q 982 492 982 651 q 927 217 982 332 q 769 40 872 101 q 521 -22 665 -22 m 521 115 q 685 160 617 115 q 790 288 754 204 q 826 492 826 372 q 790 696 826 611 q 685 826 754 781 q 521 871 617 871 q 358 826 426 871 q 253 696 290 781 q 217 492 217 611 q 253 288 217 372 q 358 160 290 204 q 521 115 426 115 m 601 1090 q 550 1100 574 1090 q 501 1129 526 1110 q 467 1155 481 1147 q 436 1163 454 1163 q 397 1146 413 1163 q 378 1081 381 1129 l 296 1081 q 335 1210 297 1165 q 435 1256 374 1256 q 493 1244 468 1256 q 543 1214 518 1233 q 577 1190 563 1197 q 607 1183 592 1183 q 646 1201 632 1183 q 663 1268 660 1218 l 746 1268 q 704 1138 742 1185 q 601 1090 667 1090 z "},"Œ":{"ha":1526,"x_min":61,"x_max":1451,"o":"m 519 -22 q 274 42 376 -22 q 116 222 171 107 q 61 492 61 338 q 115 763 61 647 q 273 944 169 879 q 519 1008 376 1008 q 706 970 625 1008 q 840 861 786 932 l 840 986 l 1440 986 l 1440 849 l 990 849 l 990 561 l 1424 561 l 1424 428 l 990 428 l 990 138 l 1451 138 l 1451 0 l 840 0 l 840 125 q 706 16 786 54 q 519 -22 625 -22 m 519 115 q 691 163 624 115 q 792 297 758 211 q 826 492 826 382 q 793 687 826 601 q 692 822 760 772 q 519 871 624 871 q 351 822 418 871 q 250 687 283 772 q 217 492 217 601 q 251 297 217 382 q 351 163 285 211 q 519 115 418 115 z "},"P":{"ha":913,"x_min":119,"x_max":846,"o":"m 119 0 l 119 986 l 488 986 q 751 905 657 986 q 846 679 846 824 q 803 513 846 583 q 680 406 760 443 q 488 369 600 369 l 269 369 l 269 0 l 119 0 m 269 506 l 483 506 q 638 549 585 506 q 690 679 690 593 q 638 806 690 764 q 483 849 585 849 l 269 849 l 269 506 z "},"Þ":{"ha":871,"x_min":119,"x_max":804,"o":"m 165 208 l 165 344 l 447 344 q 598 385 547 344 q 649 508 649 426 q 598 631 649 590 q 447 671 547 671 l 165 671 l 165 808 l 449 808 q 710 729 617 808 q 804 508 804 650 q 710 288 804 367 q 449 208 617 208 l 165 208 m 119 0 l 119 986 l 269 986 l 269 0 l 119 0 z "},"Q":{"ha":1035,"x_min":61,"x_max":974,"o":"m 769 -93 l 690 10 q 613 -13 657 -4 q 517 -22 568 -22 q 272 46 374 -22 q 116 230 171 114 q 61 492 61 346 q 114 754 61 638 q 269 940 167 871 q 517 1008 371 1008 q 767 940 665 1008 q 922 754 869 871 q 974 492 974 638 q 926 244 974 356 q 788 64 878 133 l 913 -93 l 769 -93 m 517 115 q 564 118 543 115 q 601 128 585 121 l 461 304 l 604 304 l 699 179 q 788 306 758 228 q 818 492 818 385 q 785 681 818 594 q 686 819 753 767 q 517 871 619 871 q 349 819 415 871 q 249 681 282 767 q 217 492 217 594 q 249 304 217 390 q 349 167 282 218 q 517 115 417 115 z "},"R":{"ha":944,"x_min":119,"x_max":864,"o":"m 119 0 l 119 986 l 513 986 q 694 950 618 986 q 813 847 771 914 q 854 689 854 781 q 824 569 854 622 q 745 485 794 517 q 640 450 696 454 l 633 463 q 778 420 726 463 q 838 288 829 378 l 864 0 l 713 0 l 689 268 q 649 356 685 328 q 531 385 613 385 l 269 385 l 269 0 l 119 0 m 269 522 l 515 522 q 649 565 600 522 q 699 685 699 607 q 649 806 699 764 q 503 849 599 849 l 269 849 l 269 522 z "},"Ŕ":{"ha":944,"x_min":119,"x_max":864,"o":"m 119 0 l 119 986 l 513 986 q 694 950 618 986 q 813 847 771 914 q 854 689 854 781 q 824 569 854 622 q 745 485 794 517 q 640 450 696 454 l 633 463 q 778 420 726 463 q 838 288 829 378 l 864 0 l 713 0 l 689 268 q 649 356 685 328 q 531 385 613 385 l 269 385 l 269 0 l 119 0 m 269 522 l 515 522 q 649 565 600 522 q 699 685 699 607 q 649 806 699 764 q 503 849 599 849 l 269 849 l 269 522 m 407 1075 l 494 1261 l 649 1261 l 524 1075 l 407 1075 z "},"Ř":{"ha":944,"x_min":119,"x_max":864,"o":"m 119 0 l 119 986 l 513 986 q 694 950 618 986 q 813 847 771 914 q 854 689 854 781 q 824 569 854 622 q 745 485 794 517 q 640 450 696 454 l 633 463 q 778 420 726 463 q 838 288 829 378 l 864 0 l 713 0 l 689 268 q 649 356 685 328 q 531 385 613 385 l 269 385 l 269 0 l 119 0 m 269 522 l 515 522 q 649 565 600 522 q 699 685 699 607 q 649 806 699 764 q 503 849 599 849 l 269 849 l 269 522 m 268 1268 l 381 1268 l 486 1125 l 458 1125 l 564 1268 l 676 1268 l 549 1075 l 396 1075 l 268 1268 z "},"Ŗ":{"ha":944,"x_min":119,"x_max":864,"o":"m 119 0 l 119 986 l 513 986 q 694 950 618 986 q 813 847 771 914 q 854 689 854 781 q 824 569 854 622 q 745 485 794 517 q 640 450 696 454 l 633 463 q 778 420 726 463 q 838 288 829 378 l 864 0 l 713 0 l 689 268 q 649 356 685 328 q 531 385 613 385 l 269 385 l 269 0 l 119 0 m 269 522 l 515 522 q 649 565 600 522 q 699 685 699 607 q 649 806 699 764 q 503 849 599 849 l 269 849 l 269 522 m 389 -339 l 464 -208 l 414 -208 l 414 -72 l 567 -72 l 567 -196 l 483 -339 l 389 -339 z "},"S":{"ha":908,"x_min":75,"x_max":833,"o":"m 475 -22 q 270 21 357 -22 q 133 140 183 64 q 75 318 83 217 l 229 328 q 269 210 239 258 q 352 138 300 163 q 478 114 404 114 q 587 130 542 114 q 656 178 632 146 q 679 256 679 210 q 659 330 679 297 q 583 390 639 363 q 418 443 526 417 q 229 507 300 472 q 127 594 158 542 q 96 722 96 646 q 137 872 96 807 q 254 972 178 936 q 438 1008 331 1008 q 630 967 550 1008 q 756 853 710 925 q 814 688 803 781 l 660 679 q 625 780 653 736 q 550 848 597 824 q 435 872 503 872 q 299 833 349 872 q 250 728 250 793 q 270 658 250 686 q 342 608 290 629 q 490 564 394 588 q 694 492 618 535 q 801 393 769 450 q 833 264 833 336 q 788 112 833 176 q 663 13 743 47 q 475 -22 582 -22 z "},"Ś":{"ha":908,"x_min":75,"x_max":833,"o":"m 475 -22 q 270 21 357 -22 q 133 140 183 64 q 75 318 83 217 l 229 328 q 269 210 239 258 q 352 138 300 163 q 478 114 404 114 q 587 130 542 114 q 656 178 632 146 q 679 256 679 210 q 659 330 679 297 q 583 390 639 363 q 418 443 526 417 q 229 507 300 472 q 127 594 158 542 q 96 722 96 646 q 137 872 96 807 q 254 972 178 936 q 438 1008 331 1008 q 630 967 550 1008 q 756 853 710 925 q 814 688 803 781 l 660 679 q 625 780 653 736 q 550 848 597 824 q 435 872 503 872 q 299 833 349 872 q 250 728 250 793 q 270 658 250 686 q 342 608 290 629 q 490 564 394 588 q 694 492 618 535 q 801 393 769 450 q 833 264 833 336 q 788 112 833 176 q 663 13 743 47 q 475 -22 582 -22 m 372 1075 l 460 1261 l 614 1261 l 489 1075 l 372 1075 z "},"Š":{"ha":908,"x_min":75,"x_max":833,"o":"m 475 -22 q 270 21 357 -22 q 133 140 183 64 q 75 318 83 217 l 229 328 q 269 210 239 258 q 352 138 300 163 q 478 114 404 114 q 587 130 542 114 q 656 178 632 146 q 679 256 679 210 q 659 330 679 297 q 583 390 639 363 q 418 443 526 417 q 229 507 300 472 q 127 594 158 542 q 96 722 96 646 q 137 872 96 807 q 254 972 178 936 q 438 1008 331 1008 q 630 967 550 1008 q 756 853 710 925 q 814 688 803 781 l 660 679 q 625 780 653 736 q 550 848 597 824 q 435 872 503 872 q 299 833 349 872 q 250 728 250 793 q 270 658 250 686 q 342 608 290 629 q 490 564 394 588 q 694 492 618 535 q 801 393 769 450 q 833 264 833 336 q 788 112 833 176 q 663 13 743 47 q 475 -22 582 -22 m 233 1268 l 346 1268 l 451 1125 l 424 1125 l 529 1268 l 642 1268 l 514 1075 l 361 1075 l 233 1268 z "},"Ş":{"ha":908,"x_min":75,"x_max":833,"o":"m 475 -22 q 270 21 357 -22 q 133 140 183 64 q 75 318 83 217 l 229 328 q 269 210 239 258 q 352 138 300 163 q 478 114 404 114 q 587 130 542 114 q 656 178 632 146 q 679 256 679 210 q 659 330 679 297 q 583 390 639 363 q 418 443 526 417 q 229 507 300 472 q 127 594 158 542 q 96 722 96 646 q 137 872 96 807 q 254 972 178 936 q 438 1008 331 1008 q 630 967 550 1008 q 756 853 710 925 q 814 688 803 781 l 660 679 q 625 780 653 736 q 550 848 597 824 q 435 872 503 872 q 299 833 349 872 q 250 728 250 793 q 270 658 250 686 q 342 608 290 629 q 490 564 394 588 q 694 492 618 535 q 801 393 769 450 q 833 264 833 336 q 788 112 833 176 q 663 13 743 47 q 475 -22 582 -22 m 451 -311 q 342 -280 385 -311 q 285 -200 300 -249 l 363 -169 q 394 -212 374 -199 q 449 -225 415 -225 q 502 -211 483 -225 q 521 -172 521 -197 q 502 -129 521 -146 q 421 -112 483 -112 l 375 -67 l 426 14 l 525 14 l 481 -47 q 582 -87 550 -51 q 614 -175 614 -122 q 592 -248 614 -218 q 535 -294 571 -278 q 451 -311 499 -311 z "},"Ŝ":{"ha":908,"x_min":75,"x_max":833,"o":"m 475 -22 q 270 21 357 -22 q 133 140 183 64 q 75 318 83 217 l 229 328 q 269 210 239 258 q 352 138 300 163 q 478 114 404 114 q 587 130 542 114 q 656 178 632 146 q 679 256 679 210 q 659 330 679 297 q 583 390 639 363 q 418 443 526 417 q 229 507 300 472 q 127 594 158 542 q 96 722 96 646 q 137 872 96 807 q 254 972 178 936 q 438 1008 331 1008 q 630 967 550 1008 q 756 853 710 925 q 814 688 803 781 l 660 679 q 625 780 653 736 q 550 848 597 824 q 435 872 503 872 q 299 833 349 872 q 250 728 250 793 q 270 658 250 686 q 342 608 290 629 q 490 564 394 588 q 694 492 618 535 q 801 393 769 450 q 833 264 833 336 q 788 112 833 176 q 663 13 743 47 q 475 -22 582 -22 m 233 1075 l 361 1268 l 514 1268 l 642 1075 l 529 1075 l 424 1218 l 451 1218 l 346 1075 l 233 1075 z "},"Ș":{"ha":908,"x_min":75,"x_max":833,"o":"m 475 -22 q 270 21 357 -22 q 133 140 183 64 q 75 318 83 217 l 229 328 q 269 210 239 258 q 352 138 300 163 q 478 114 404 114 q 587 130 542 114 q 656 178 632 146 q 679 256 679 210 q 659 330 679 297 q 583 390 639 363 q 418 443 526 417 q 229 507 300 472 q 127 594 158 542 q 96 722 96 646 q 137 872 96 807 q 254 972 178 936 q 438 1008 331 1008 q 630 967 550 1008 q 756 853 710 925 q 814 688 803 781 l 660 679 q 625 780 653 736 q 550 848 597 824 q 435 872 503 872 q 299 833 349 872 q 250 728 250 793 q 270 658 250 686 q 342 608 290 629 q 490 564 394 588 q 694 492 618 535 q 801 393 769 450 q 833 264 833 336 q 788 112 833 176 q 663 13 743 47 q 475 -22 582 -22 m 363 -339 l 438 -208 l 388 -208 l 388 -72 l 540 -72 l 540 -196 l 457 -339 l 363 -339 z "},"ẞ":{"ha":983,"x_min":119,"x_max":903,"o":"m 119 0 l 119 681 q 200 906 119 825 q 425 986 281 986 l 843 986 l 843 840 l 478 508 l 506 594 q 803 520 704 594 q 903 307 903 446 q 859 144 903 213 q 735 38 815 75 q 543 0 654 0 l 363 0 l 363 138 l 543 138 q 692 182 638 138 q 747 306 747 226 q 688 430 747 386 q 528 474 629 474 l 388 474 l 388 594 l 740 925 l 751 849 l 425 849 q 309 806 349 849 q 269 681 269 764 l 269 0 l 119 0 z "},"T":{"ha":789,"x_min":17,"x_max":772,"o":"m 319 0 l 319 849 l 17 849 l 17 986 l 772 986 l 772 849 l 469 849 l 469 0 l 319 0 z "},"Ŧ":{"ha":789,"x_min":17,"x_max":772,"o":"m 319 0 l 319 849 l 17 849 l 17 986 l 772 986 l 772 849 l 469 849 l 469 0 l 319 0 m 135 411 l 135 536 l 654 536 l 654 411 l 135 411 z "},"Ť":{"ha":789,"x_min":17,"x_max":772,"o":"m 319 0 l 319 849 l 17 849 l 17 986 l 772 986 l 772 849 l 469 849 l 469 0 l 319 0 m 190 1268 l 303 1268 l 408 1125 l 381 1125 l 486 1268 l 599 1268 l 471 1075 l 318 1075 l 190 1268 z "},"Ţ":{"ha":789,"x_min":17,"x_max":772,"o":"m 319 0 l 319 849 l 17 849 l 17 986 l 772 986 l 772 849 l 469 849 l 469 0 l 319 0 m 382 -311 q 273 -280 315 -311 q 215 -200 231 -249 l 293 -169 q 325 -212 304 -199 q 379 -225 346 -225 q 433 -211 414 -225 q 451 -172 451 -197 q 433 -129 451 -146 q 351 -112 414 -112 l 306 -67 l 357 14 l 456 14 l 411 -47 q 513 -87 481 -51 q 544 -175 544 -122 q 523 -248 544 -218 q 465 -294 501 -278 q 382 -311 429 -311 z "},"Ț":{"ha":789,"x_min":17,"x_max":772,"o":"m 319 0 l 319 849 l 17 849 l 17 986 l 772 986 l 772 849 l 469 849 l 469 0 l 319 0 m 293 -339 l 368 -208 l 318 -208 l 318 -72 l 471 -72 l 471 -196 l 388 -339 l 293 -339 z "},"U":{"ha":964,"x_min":99,"x_max":865,"o":"m 482 -22 q 278 23 365 -22 q 145 151 192 68 q 99 349 99 235 l 99 988 l 249 988 l 249 349 q 310 176 249 236 q 482 115 371 115 q 654 176 593 115 q 715 349 715 236 l 715 988 l 865 988 l 865 349 q 819 151 865 235 q 686 23 772 68 q 482 -22 600 -22 z "},"Ú":{"ha":964,"x_min":99,"x_max":865,"o":"m 482 -22 q 278 23 365 -22 q 145 151 192 68 q 99 349 99 235 l 99 988 l 249 988 l 249 349 q 310 176 249 236 q 482 115 371 115 q 654 176 593 115 q 715 349 715 236 l 715 988 l 865 988 l 865 349 q 819 151 865 235 q 686 23 772 68 q 482 -22 600 -22 m 417 1075 l 504 1261 l 658 1261 l 533 1075 l 417 1075 z "},"Ŭ":{"ha":964,"x_min":99,"x_max":865,"o":"m 482 -22 q 278 23 365 -22 q 145 151 192 68 q 99 349 99 235 l 99 988 l 249 988 l 249 349 q 310 176 249 236 q 482 115 371 115 q 654 176 593 115 q 715 349 715 236 l 715 988 l 865 988 l 865 349 q 819 151 865 235 q 686 23 772 68 q 482 -22 600 -22 m 482 1079 q 339 1130 393 1079 q 281 1267 285 1181 l 374 1267 q 409 1197 381 1219 q 482 1175 438 1175 q 557 1197 529 1175 q 589 1267 585 1219 l 683 1267 q 626 1130 679 1181 q 482 1079 572 1079 z "},"Û":{"ha":964,"x_min":99,"x_max":865,"o":"m 482 -22 q 278 23 365 -22 q 145 151 192 68 q 99 349 99 235 l 99 988 l 249 988 l 249 349 q 310 176 249 236 q 482 115 371 115 q 654 176 593 115 q 715 349 715 236 l 715 988 l 865 988 l 865 349 q 819 151 865 235 q 686 23 772 68 q 482 -22 600 -22 m 278 1075 l 406 1268 l 558 1268 l 686 1075 l 574 1075 l 468 1218 l 496 1218 l 390 1075 l 278 1075 z "},"Ü":{"ha":964,"x_min":99,"x_max":865,"o":"m 482 -22 q 278 23 365 -22 q 145 151 192 68 q 99 349 99 235 l 99 988 l 249 988 l 249 349 q 310 176 249 236 q 482 115 371 115 q 654 176 593 115 q 715 349 715 236 l 715 988 l 865 988 l 865 349 q 819 151 865 235 q 686 23 772 68 q 482 -22 600 -22 m 279 1092 l 279 1239 l 426 1239 l 426 1092 l 279 1092 m 539 1092 l 539 1239 l 688 1239 l 688 1092 l 539 1092 z "},"Ù":{"ha":964,"x_min":99,"x_max":865,"o":"m 482 -22 q 278 23 365 -22 q 145 151 192 68 q 99 349 99 235 l 99 988 l 249 988 l 249 349 q 310 176 249 236 q 482 115 371 115 q 654 176 593 115 q 715 349 715 236 l 715 988 l 865 988 l 865 349 q 819 151 865 235 q 686 23 772 68 q 482 -22 600 -22 m 432 1082 l 307 1269 l 461 1269 l 549 1082 l 432 1082 z "},"Ű":{"ha":964,"x_min":99,"x_max":865,"o":"m 482 -22 q 278 23 365 -22 q 145 151 192 68 q 99 349 99 235 l 99 988 l 249 988 l 249 349 q 310 176 249 236 q 482 115 371 115 q 654 176 593 115 q 715 349 715 236 l 715 988 l 865 988 l 865 349 q 819 151 865 235 q 686 23 772 68 q 482 -22 600 -22 m 319 1075 l 407 1261 l 561 1261 l 436 1075 l 319 1075 m 522 1075 l 610 1261 l 764 1261 l 639 1075 l 522 1075 z "},"Ū":{"ha":964,"x_min":99,"x_max":865,"o":"m 482 -22 q 278 23 365 -22 q 145 151 192 68 q 99 349 99 235 l 99 988 l 249 988 l 249 349 q 310 176 249 236 q 482 115 371 115 q 654 176 593 115 q 715 349 715 236 l 715 988 l 865 988 l 865 349 q 819 151 865 235 q 686 23 772 68 q 482 -22 600 -22 m 289 1107 l 289 1225 l 675 1225 l 675 1107 l 289 1107 z "},"Ų":{"ha":964,"x_min":99,"x_max":865,"o":"m 482 -22 q 278 23 365 -22 q 145 151 192 68 q 99 349 99 235 l 99 988 l 249 988 l 249 349 q 310 176 249 236 q 482 115 371 115 q 654 176 593 115 q 715 349 715 236 l 715 988 l 865 988 l 865 349 q 819 151 865 235 q 686 23 772 68 q 482 -22 600 -22 m 560 -292 q 459 -265 496 -292 q 422 -187 422 -239 q 447 -106 422 -147 q 497 -26 471 -64 l 540 31 l 640 3 l 593 -60 q 560 -114 569 -93 q 550 -153 550 -135 q 561 -178 550 -169 q 589 -187 572 -187 q 625 -183 608 -187 q 654 -169 642 -178 l 689 -256 q 635 -281 672 -271 q 560 -292 599 -292 z "},"Ů":{"ha":964,"x_min":99,"x_max":865,"o":"m 482 -22 q 278 23 365 -22 q 145 151 192 68 q 99 349 99 235 l 99 988 l 249 988 l 249 349 q 310 176 249 236 q 482 115 371 115 q 654 176 593 115 q 715 349 715 236 l 715 988 l 865 988 l 865 349 q 819 151 865 235 q 686 23 772 68 q 482 -22 600 -22 m 482 1047 q 388 1085 426 1047 q 350 1179 350 1122 q 388 1273 350 1235 q 482 1311 426 1311 q 577 1273 539 1311 q 615 1179 615 1235 q 577 1085 615 1122 q 482 1047 539 1047 m 482 1122 q 523 1138 507 1122 q 539 1179 539 1154 q 523 1219 539 1203 q 482 1235 507 1235 q 442 1219 458 1235 q 426 1179 426 1203 q 442 1138 426 1154 q 482 1122 458 1122 z "},"Ũ":{"ha":964,"x_min":99,"x_max":865,"o":"m 482 -22 q 278 23 365 -22 q 145 151 192 68 q 99 349 99 235 l 99 988 l 249 988 l 249 349 q 310 176 249 236 q 482 115 371 115 q 654 176 593 115 q 715 349 715 236 l 715 988 l 865 988 l 865 349 q 819 151 865 235 q 686 23 772 68 q 482 -22 600 -22 m 563 1090 q 511 1100 535 1090 q 463 1129 488 1110 q 428 1155 442 1147 q 397 1163 415 1163 q 358 1146 374 1163 q 339 1081 342 1129 l 257 1081 q 297 1210 258 1165 q 396 1256 335 1256 q 454 1244 429 1256 q 504 1214 479 1233 q 538 1190 524 1197 q 568 1183 553 1183 q 607 1201 593 1183 q 624 1268 621 1218 l 707 1268 q 665 1138 703 1185 q 563 1090 628 1090 z "},"V":{"ha":956,"x_min":28,"x_max":928,"o":"m 383 0 l 28 986 l 188 986 l 478 167 l 768 986 l 928 986 l 571 0 l 383 0 z "},"W":{"ha":1344,"x_min":53,"x_max":1293,"o":"m 314 0 l 53 986 l 213 986 l 404 207 l 596 986 l 749 986 l 940 207 l 1131 986 l 1293 986 l 1031 0 l 856 0 l 672 719 l 489 0 l 314 0 z "},"Ẃ":{"ha":1344,"x_min":53,"x_max":1293,"o":"m 314 0 l 53 986 l 213 986 l 404 207 l 596 986 l 749 986 l 940 207 l 1131 986 l 1293 986 l 1031 0 l 856 0 l 672 719 l 489 0 l 314 0 m 607 1075 l 694 1261 l 849 1261 l 724 1075 l 607 1075 z "},"Ŵ":{"ha":1344,"x_min":53,"x_max":1293,"o":"m 314 0 l 53 986 l 213 986 l 404 207 l 596 986 l 749 986 l 940 207 l 1131 986 l 1293 986 l 1031 0 l 856 0 l 672 719 l 489 0 l 314 0 m 468 1075 l 596 1268 l 749 1268 l 876 1075 l 764 1075 l 658 1218 l 686 1218 l 581 1075 l 468 1075 z "},"Ẅ":{"ha":1344,"x_min":53,"x_max":1293,"o":"m 314 0 l 53 986 l 213 986 l 404 207 l 596 986 l 749 986 l 940 207 l 1131 986 l 1293 986 l 1031 0 l 856 0 l 672 719 l 489 0 l 314 0 m 468 1092 l 468 1239 l 615 1239 l 615 1092 l 468 1092 m 728 1092 l 728 1239 l 876 1239 l 876 1092 l 728 1092 z "},"Ẁ":{"ha":1344,"x_min":53,"x_max":1293,"o":"m 314 0 l 53 986 l 213 986 l 404 207 l 596 986 l 749 986 l 940 207 l 1131 986 l 1293 986 l 1031 0 l 856 0 l 672 719 l 489 0 l 314 0 m 622 1082 l 497 1269 l 651 1269 l 739 1082 l 622 1082 z "},"X":{"ha":879,"x_min":19,"x_max":860,"o":"m 19 0 l 347 494 l 22 986 l 199 986 l 442 611 l 681 986 l 856 986 l 531 497 l 860 0 l 683 0 l 439 381 l 194 0 l 19 0 z "},"Y":{"ha":825,"x_min":-8,"x_max":835,"o":"m 338 0 l 338 396 l -8 986 l 164 986 l 413 546 l 663 986 l 835 986 l 488 396 l 488 0 l 338 0 z "},"Ý":{"ha":825,"x_min":-8,"x_max":835,"o":"m 338 0 l 338 396 l -8 986 l 164 986 l 413 546 l 663 986 l 835 986 l 488 396 l 488 0 l 338 0 m 347 1075 l 435 1261 l 589 1261 l 464 1075 l 347 1075 z "},"Ŷ":{"ha":825,"x_min":-8,"x_max":835,"o":"m 338 0 l 338 396 l -8 986 l 164 986 l 413 546 l 663 986 l 835 986 l 488 396 l 488 0 l 338 0 m 208 1075 l 336 1268 l 489 1268 l 617 1075 l 504 1075 l 399 1218 l 426 1218 l 321 1075 l 208 1075 z "},"Ÿ":{"ha":825,"x_min":-8,"x_max":835,"o":"m 338 0 l 338 396 l -8 986 l 164 986 l 413 546 l 663 986 l 835 986 l 488 396 l 488 0 l 338 0 m 210 1092 l 210 1239 l 357 1239 l 357 1092 l 210 1092 m 469 1092 l 469 1239 l 618 1239 l 618 1092 l 469 1092 z "},"Ỳ":{"ha":825,"x_min":-8,"x_max":835,"o":"m 338 0 l 338 396 l -8 986 l 164 986 l 413 546 l 663 986 l 835 986 l 488 396 l 488 0 l 338 0 m 363 1082 l 238 1269 l 392 1269 l 479 1082 l 363 1082 z "},"Ỹ":{"ha":825,"x_min":-8,"x_max":835,"o":"m 338 0 l 338 396 l -8 986 l 164 986 l 413 546 l 663 986 l 835 986 l 488 396 l 488 0 l 338 0 m 493 1090 q 442 1100 465 1090 q 393 1129 418 1110 q 359 1155 372 1147 q 328 1163 346 1163 q 288 1146 304 1163 q 269 1081 272 1129 l 188 1081 q 227 1210 189 1165 q 326 1256 265 1256 q 385 1244 360 1256 q 435 1214 410 1233 q 469 1190 454 1197 q 499 1183 483 1183 q 538 1201 524 1183 q 554 1268 551 1218 l 638 1268 q 596 1138 633 1185 q 493 1090 558 1090 z "},"Z":{"ha":779,"x_min":39,"x_max":740,"o":"m 39 0 l 39 139 l 547 849 l 58 849 l 58 986 l 725 986 l 725 847 l 214 138 l 740 138 l 740 0 l 39 0 z "},"Ź":{"ha":779,"x_min":39,"x_max":740,"o":"m 39 0 l 39 139 l 547 849 l 58 849 l 58 986 l 725 986 l 725 847 l 214 138 l 740 138 l 740 0 l 39 0 m 336 1075 l 424 1261 l 578 1261 l 453 1075 l 336 1075 z "},"Ž":{"ha":779,"x_min":39,"x_max":740,"o":"m 39 0 l 39 139 l 547 849 l 58 849 l 58 986 l 725 986 l 725 847 l 214 138 l 740 138 l 740 0 l 39 0 m 197 1268 l 310 1268 l 415 1125 l 388 1125 l 493 1268 l 606 1268 l 478 1075 l 325 1075 l 197 1268 z "},"Ż":{"ha":779,"x_min":39,"x_max":740,"o":"m 39 0 l 39 139 l 547 849 l 58 849 l 58 986 l 725 986 l 725 847 l 214 138 l 740 138 l 740 0 l 39 0 m 325 1093 l 325 1240 l 478 1240 l 478 1093 l 325 1093 z "},"Ꞌ":{"ha":268,"x_min":61,"x_max":207,"o":"m 78 476 l 61 810 l 61 986 l 207 986 l 207 810 l 189 476 l 78 476 z "},"a":{"ha":785,"x_min":58,"x_max":761,"o":"m 311 -17 q 127 36 196 -17 q 58 185 58 89 q 116 334 58 281 q 294 411 174 388 l 549 460 q 508 588 549 546 q 389 631 468 631 q 278 599 318 631 q 222 507 238 568 l 71 517 q 174 692 92 628 q 389 756 257 756 q 617 676 539 756 q 696 451 696 596 l 696 164 q 705 127 696 138 q 735 117 714 117 l 761 117 l 761 0 q 739 -3 754 -1 q 707 -4 724 -4 q 626 11 660 -4 q 575 62 592 26 q 558 157 558 97 l 574 150 q 526 64 563 101 q 433 5 489 26 q 311 -17 376 -17 m 335 100 q 449 126 401 100 q 522 197 496 151 q 549 301 549 243 l 549 349 l 332 307 q 238 267 265 294 q 211 199 211 240 q 244 126 211 151 q 335 100 276 100 z "},"á":{"ha":785,"x_min":58,"x_max":761,"o":"m 311 -17 q 127 36 196 -17 q 58 185 58 89 q 116 334 58 281 q 294 411 174 388 l 549 460 q 508 588 549 546 q 389 631 468 631 q 278 599 318 631 q 222 507 238 568 l 71 517 q 174 692 92 628 q 389 756 257 756 q 617 676 539 756 q 696 451 696 596 l 696 164 q 705 127 696 138 q 735 117 714 117 l 761 117 l 761 0 q 739 -3 754 -1 q 707 -4 724 -4 q 626 11 660 -4 q 575 62 592 26 q 558 157 558 97 l 574 150 q 526 64 563 101 q 433 5 489 26 q 311 -17 376 -17 m 335 100 q 449 126 401 100 q 522 197 496 151 q 549 301 549 243 l 549 349 l 332 307 q 238 267 265 294 q 211 199 211 240 q 244 126 211 151 q 335 100 276 100 m 329 828 l 417 1014 l 571 1014 l 446 828 l 329 828 z "},"ă":{"ha":785,"x_min":58,"x_max":761,"o":"m 311 -17 q 127 36 196 -17 q 58 185 58 89 q 116 334 58 281 q 294 411 174 388 l 549 460 q 508 588 549 546 q 389 631 468 631 q 278 599 318 631 q 222 507 238 568 l 71 517 q 174 692 92 628 q 389 756 257 756 q 617 676 539 756 q 696 451 696 596 l 696 164 q 705 127 696 138 q 735 117 714 117 l 761 117 l 761 0 q 739 -3 754 -1 q 707 -4 724 -4 q 626 11 660 -4 q 575 62 592 26 q 558 157 558 97 l 574 150 q 526 64 563 101 q 433 5 489 26 q 311 -17 376 -17 m 335 100 q 449 126 401 100 q 522 197 496 151 q 549 301 549 243 l 549 349 l 332 307 q 238 267 265 294 q 211 199 211 240 q 244 126 211 151 q 335 100 276 100 m 394 832 q 251 883 306 832 q 193 1019 197 933 l 286 1019 q 322 950 293 972 q 394 928 350 928 q 469 950 442 928 q 501 1019 497 972 l 596 1019 q 538 883 592 933 q 394 832 485 832 z "},"ǎ":{"ha":785,"x_min":58,"x_max":761,"o":"m 311 -17 q 127 36 196 -17 q 58 185 58 89 q 116 334 58 281 q 294 411 174 388 l 549 460 q 508 588 549 546 q 389 631 468 631 q 278 599 318 631 q 222 507 238 568 l 71 517 q 174 692 92 628 q 389 756 257 756 q 617 676 539 756 q 696 451 696 596 l 696 164 q 705 127 696 138 q 735 117 714 117 l 761 117 l 761 0 q 739 -3 754 -1 q 707 -4 724 -4 q 626 11 660 -4 q 575 62 592 26 q 558 157 558 97 l 574 150 q 526 64 563 101 q 433 5 489 26 q 311 -17 376 -17 m 335 100 q 449 126 401 100 q 522 197 496 151 q 549 301 549 243 l 549 349 l 332 307 q 238 267 265 294 q 211 199 211 240 q 244 126 211 151 q 335 100 276 100 m 190 1021 l 303 1021 l 408 878 l 381 878 l 486 1021 l 599 1021 l 471 828 l 318 828 l 190 1021 z "},"â":{"ha":785,"x_min":58,"x_max":761,"o":"m 311 -17 q 127 36 196 -17 q 58 185 58 89 q 116 334 58 281 q 294 411 174 388 l 549 460 q 508 588 549 546 q 389 631 468 631 q 278 599 318 631 q 222 507 238 568 l 71 517 q 174 692 92 628 q 389 756 257 756 q 617 676 539 756 q 696 451 696 596 l 696 164 q 705 127 696 138 q 735 117 714 117 l 761 117 l 761 0 q 739 -3 754 -1 q 707 -4 724 -4 q 626 11 660 -4 q 575 62 592 26 q 558 157 558 97 l 574 150 q 526 64 563 101 q 433 5 489 26 q 311 -17 376 -17 m 335 100 q 449 126 401 100 q 522 197 496 151 q 549 301 549 243 l 549 349 l 332 307 q 238 267 265 294 q 211 199 211 240 q 244 126 211 151 q 335 100 276 100 m 190 828 l 318 1021 l 471 1021 l 599 828 l 486 828 l 381 971 l 408 971 l 303 828 l 190 828 z "},"ä":{"ha":785,"x_min":58,"x_max":761,"o":"m 311 -17 q 127 36 196 -17 q 58 185 58 89 q 116 334 58 281 q 294 411 174 388 l 549 460 q 508 588 549 546 q 389 631 468 631 q 278 599 318 631 q 222 507 238 568 l 71 517 q 174 692 92 628 q 389 756 257 756 q 617 676 539 756 q 696 451 696 596 l 696 164 q 705 127 696 138 q 735 117 714 117 l 761 117 l 761 0 q 739 -3 754 -1 q 707 -4 724 -4 q 626 11 660 -4 q 575 62 592 26 q 558 157 558 97 l 574 150 q 526 64 563 101 q 433 5 489 26 q 311 -17 376 -17 m 335 100 q 449 126 401 100 q 522 197 496 151 q 549 301 549 243 l 549 349 l 332 307 q 238 267 265 294 q 211 199 211 240 q 244 126 211 151 q 335 100 276 100 m 192 844 l 192 992 l 339 992 l 339 844 l 192 844 m 451 844 l 451 992 l 600 992 l 600 844 l 451 844 z "},"à":{"ha":785,"x_min":58,"x_max":761,"o":"m 311 -17 q 127 36 196 -17 q 58 185 58 89 q 116 334 58 281 q 294 411 174 388 l 549 460 q 508 588 549 546 q 389 631 468 631 q 278 599 318 631 q 222 507 238 568 l 71 517 q 174 692 92 628 q 389 756 257 756 q 617 676 539 756 q 696 451 696 596 l 696 164 q 705 127 696 138 q 735 117 714 117 l 761 117 l 761 0 q 739 -3 754 -1 q 707 -4 724 -4 q 626 11 660 -4 q 575 62 592 26 q 558 157 558 97 l 574 150 q 526 64 563 101 q 433 5 489 26 q 311 -17 376 -17 m 335 100 q 449 126 401 100 q 522 197 496 151 q 549 301 549 243 l 549 349 l 332 307 q 238 267 265 294 q 211 199 211 240 q 244 126 211 151 q 335 100 276 100 m 344 835 l 219 1022 l 374 1022 l 461 835 l 344 835 z "},"ā":{"ha":785,"x_min":58,"x_max":761,"o":"m 311 -17 q 127 36 196 -17 q 58 185 58 89 q 116 334 58 281 q 294 411 174 388 l 549 460 q 508 588 549 546 q 389 631 468 631 q 278 599 318 631 q 222 507 238 568 l 71 517 q 174 692 92 628 q 389 756 257 756 q 617 676 539 756 q 696 451 696 596 l 696 164 q 705 127 696 138 q 735 117 714 117 l 761 117 l 761 0 q 739 -3 754 -1 q 707 -4 724 -4 q 626 11 660 -4 q 575 62 592 26 q 558 157 558 97 l 574 150 q 526 64 563 101 q 433 5 489 26 q 311 -17 376 -17 m 335 100 q 449 126 401 100 q 522 197 496 151 q 549 301 549 243 l 549 349 l 332 307 q 238 267 265 294 q 211 199 211 240 q 244 126 211 151 q 335 100 276 100 m 201 860 l 201 978 l 588 978 l 588 860 l 201 860 z "},"ą":{"ha":785,"x_min":58,"x_max":811,"o":"m 311 -17 q 127 36 196 -17 q 58 185 58 89 q 116 334 58 281 q 294 411 174 388 l 549 460 q 508 588 549 546 q 389 631 468 631 q 278 599 318 631 q 222 507 238 568 l 71 517 q 174 692 92 628 q 389 756 257 756 q 617 676 539 756 q 696 451 696 596 l 696 164 q 705 127 696 138 q 735 117 714 117 l 761 117 l 761 0 q 739 -3 754 -1 q 707 -4 724 -4 q 626 11 660 -4 q 575 62 592 26 q 558 157 558 97 l 574 150 q 526 64 563 101 q 433 5 489 26 q 311 -17 376 -17 m 335 100 q 449 126 401 100 q 522 197 496 151 q 549 301 549 243 l 549 349 l 332 307 q 238 267 265 294 q 211 199 211 240 q 244 126 211 151 q 335 100 276 100 m 682 -294 q 581 -268 618 -294 q 544 -190 544 -242 q 569 -108 544 -150 q 619 -29 593 -67 l 663 28 l 763 0 l 715 -62 q 682 -117 692 -96 q 672 -156 672 -137 q 683 -181 672 -172 q 711 -190 694 -190 q 747 -185 731 -190 q 776 -172 764 -181 l 811 -258 q 758 -284 794 -274 q 682 -294 721 -294 z "},"å":{"ha":785,"x_min":58,"x_max":761,"o":"m 311 -17 q 127 36 196 -17 q 58 185 58 89 q 116 334 58 281 q 294 411 174 388 l 549 460 q 508 588 549 546 q 389 631 468 631 q 278 599 318 631 q 222 507 238 568 l 71 517 q 174 692 92 628 q 389 756 257 756 q 617 676 539 756 q 696 451 696 596 l 696 164 q 705 127 696 138 q 735 117 714 117 l 761 117 l 761 0 q 739 -3 754 -1 q 707 -4 724 -4 q 626 11 660 -4 q 575 62 592 26 q 558 157 558 97 l 574 150 q 526 64 563 101 q 433 5 489 26 q 311 -17 376 -17 m 335 100 q 449 126 401 100 q 522 197 496 151 q 549 301 549 243 l 549 349 l 332 307 q 238 267 265 294 q 211 199 211 240 q 244 126 211 151 q 335 100 276 100 m 394 800 q 301 838 339 800 q 263 932 263 875 q 301 1026 263 988 q 394 1064 339 1064 q 490 1026 451 1064 q 528 932 528 988 q 490 838 528 875 q 394 800 451 800 m 394 875 q 435 891 419 875 q 451 932 451 907 q 435 972 451 956 q 394 988 419 988 q 355 972 371 988 q 339 932 339 956 q 355 891 339 907 q 394 875 371 875 z "},"ã":{"ha":785,"x_min":58,"x_max":761,"o":"m 311 -17 q 127 36 196 -17 q 58 185 58 89 q 116 334 58 281 q 294 411 174 388 l 549 460 q 508 588 549 546 q 389 631 468 631 q 278 599 318 631 q 222 507 238 568 l 71 517 q 174 692 92 628 q 389 756 257 756 q 617 676 539 756 q 696 451 696 596 l 696 164 q 705 127 696 138 q 735 117 714 117 l 761 117 l 761 0 q 739 -3 754 -1 q 707 -4 724 -4 q 626 11 660 -4 q 575 62 592 26 q 558 157 558 97 l 574 150 q 526 64 563 101 q 433 5 489 26 q 311 -17 376 -17 m 335 100 q 449 126 401 100 q 522 197 496 151 q 549 301 549 243 l 549 349 l 332 307 q 238 267 265 294 q 211 199 211 240 q 244 126 211 151 q 335 100 276 100 m 475 843 q 424 853 447 843 q 375 882 400 863 q 341 908 354 900 q 310 915 328 915 q 270 899 286 915 q 251 833 254 882 l 169 833 q 209 963 171 918 q 308 1008 247 1008 q 367 997 342 1008 q 417 967 392 986 q 451 943 436 950 q 481 936 465 936 q 519 953 506 936 q 536 1021 533 971 l 619 1021 q 578 890 615 938 q 475 843 540 843 z "},"æ":{"ha":1294,"x_min":58,"x_max":1238,"o":"m 313 -17 q 130 35 201 -17 q 58 185 58 86 q 90 306 58 260 q 176 376 122 351 q 294 411 231 401 l 549 449 q 508 587 547 543 q 386 631 469 631 q 275 597 315 631 q 222 507 235 563 l 71 517 q 175 692 93 628 q 385 756 257 756 q 615 678 533 756 q 696 442 697 600 l 639 232 q 581 99 625 156 q 469 13 538 43 q 313 -17 400 -17 m 354 99 q 453 125 410 101 q 523 192 497 149 q 549 300 549 236 l 549 338 l 332 307 q 235 267 260 297 q 211 199 211 238 q 246 123 211 150 q 354 99 281 96 m 903 -17 q 717 31 796 -17 q 596 165 639 78 q 553 369 553 253 q 596 573 553 486 q 716 708 639 660 q 899 756 793 756 q 1076 709 1000 756 q 1195 575 1153 663 q 1238 364 1238 488 l 1238 326 l 706 326 q 765 164 713 218 q 904 110 817 110 q 1013 140 969 110 q 1072 222 1056 171 l 1226 213 q 1111 47 1197 110 q 903 -17 1025 -17 m 706 438 l 1081 438 q 1024 583 1074 536 q 899 631 975 631 q 770 581 821 631 q 706 438 719 532 z "},"b":{"ha":844,"x_min":104,"x_max":786,"o":"m 472 -17 q 337 17 396 -17 q 246 111 278 51 l 242 0 l 104 0 l 104 986 l 251 986 l 251 635 q 338 719 281 683 q 472 756 396 756 q 639 708 568 756 q 748 574 710 661 q 786 369 786 488 q 748 165 786 251 q 639 31 710 78 q 472 -17 568 -17 m 449 111 q 583 180 533 111 q 633 369 633 249 q 583 559 633 490 q 450 628 533 628 q 343 597 388 628 q 275 509 299 567 q 251 369 251 451 q 275 232 251 290 q 343 142 299 174 q 449 111 388 111 z "},"c":{"ha":782,"x_min":58,"x_max":739,"o":"m 408 -17 q 224 31 303 -17 q 101 165 144 78 q 58 369 58 253 q 101 573 58 486 q 224 708 144 660 q 408 756 303 756 q 569 724 499 756 q 683 633 639 693 q 739 488 726 574 l 585 479 q 526 590 574 551 q 408 628 479 628 q 263 559 315 628 q 211 369 211 490 q 263 180 211 249 q 408 111 315 111 q 526 151 479 111 q 585 271 574 190 l 739 263 q 683 115 726 178 q 569 18 639 53 q 408 -17 499 -17 z "},"ć":{"ha":782,"x_min":58,"x_max":739,"o":"m 408 -17 q 224 31 303 -17 q 101 165 144 78 q 58 369 58 253 q 101 573 58 486 q 224 708 144 660 q 408 756 303 756 q 569 724 499 756 q 683 633 639 693 q 739 488 726 574 l 585 479 q 526 590 574 551 q 408 628 479 628 q 263 559 315 628 q 211 369 211 490 q 263 180 211 249 q 408 111 315 111 q 526 151 479 111 q 585 271 574 190 l 739 263 q 683 115 726 178 q 569 18 639 53 q 408 -17 499 -17 m 343 828 l 431 1014 l 585 1014 l 460 828 l 343 828 z "},"č":{"ha":782,"x_min":58,"x_max":739,"o":"m 408 -17 q 224 31 303 -17 q 101 165 144 78 q 58 369 58 253 q 101 573 58 486 q 224 708 144 660 q 408 756 303 756 q 569 724 499 756 q 683 633 639 693 q 739 488 726 574 l 585 479 q 526 590 574 551 q 408 628 479 628 q 263 559 315 628 q 211 369 211 490 q 263 180 211 249 q 408 111 315 111 q 526 151 479 111 q 585 271 574 190 l 739 263 q 683 115 726 178 q 569 18 639 53 q 408 -17 499 -17 m 204 1021 l 317 1021 l 422 878 l 394 878 l 500 1021 l 613 1021 l 485 828 l 332 828 l 204 1021 z "},"ç":{"ha":782,"x_min":58,"x_max":739,"o":"m 408 -17 q 224 31 303 -17 q 101 165 144 78 q 58 369 58 253 q 101 573 58 486 q 224 708 144 660 q 408 756 303 756 q 569 724 499 756 q 683 633 639 693 q 739 488 726 574 l 585 479 q 526 590 574 551 q 408 628 479 628 q 263 559 315 628 q 211 369 211 490 q 263 180 211 249 q 408 111 315 111 q 526 151 479 111 q 585 271 574 190 l 739 263 q 683 115 726 178 q 569 18 639 53 q 408 -17 499 -17 m 396 -311 q 287 -280 329 -311 q 229 -200 244 -249 l 307 -169 q 339 -212 318 -199 q 393 -225 360 -225 q 447 -211 428 -225 q 465 -172 465 -197 q 447 -129 465 -146 q 365 -112 428 -112 l 319 -67 l 371 14 l 469 14 l 425 -47 q 526 -87 494 -51 q 558 -175 558 -122 q 537 -248 558 -218 q 479 -294 515 -278 q 396 -311 443 -311 z "},"ĉ":{"ha":782,"x_min":58,"x_max":739,"o":"m 408 -17 q 224 31 303 -17 q 101 165 144 78 q 58 369 58 253 q 101 573 58 486 q 224 708 144 660 q 408 756 303 756 q 569 724 499 756 q 683 633 639 693 q 739 488 726 574 l 585 479 q 526 590 574 551 q 408 628 479 628 q 263 559 315 628 q 211 369 211 490 q 263 180 211 249 q 408 111 315 111 q 526 151 479 111 q 585 271 574 190 l 739 263 q 683 115 726 178 q 569 18 639 53 q 408 -17 499 -17 m 204 828 l 332 1021 l 485 1021 l 613 828 l 500 828 l 394 971 l 422 971 l 317 828 l 204 828 z "},"ċ":{"ha":782,"x_min":58,"x_max":739,"o":"m 408 -17 q 224 31 303 -17 q 101 165 144 78 q 58 369 58 253 q 101 573 58 486 q 224 708 144 660 q 408 756 303 756 q 569 724 499 756 q 683 633 639 693 q 739 488 726 574 l 585 479 q 526 590 574 551 q 408 628 479 628 q 263 559 315 628 q 211 369 211 490 q 263 180 211 249 q 408 111 315 111 q 526 151 479 111 q 585 271 574 190 l 739 263 q 683 115 726 178 q 569 18 639 53 q 408 -17 499 -17 m 333 846 l 333 993 l 486 993 l 486 846 l 333 846 z "},"d":{"ha":844,"x_min":58,"x_max":740,"o":"m 367 -17 q 202 31 272 -17 q 95 165 132 78 q 58 369 58 251 q 96 574 58 488 q 203 708 133 661 q 367 756 272 756 q 503 724 443 756 q 593 635 563 692 l 593 986 l 740 986 l 740 0 l 603 0 l 599 111 q 506 17 568 51 q 367 -17 444 -17 m 406 111 q 507 142 465 111 q 571 231 549 172 q 593 369 593 289 q 571 510 593 453 q 507 598 549 568 q 406 628 465 628 q 264 559 317 628 q 211 369 211 490 q 264 181 211 250 q 406 111 317 111 z "},"ď":{"ha":956,"x_min":58,"x_max":989,"o":"m 367 -17 q 202 31 272 -17 q 95 165 132 78 q 58 369 58 251 q 96 574 58 488 q 203 708 133 661 q 367 756 272 756 q 503 724 443 756 q 593 635 563 692 l 593 986 l 740 986 l 740 0 l 603 0 l 599 111 q 506 17 568 51 q 367 -17 444 -17 m 406 111 q 507 142 465 111 q 571 231 549 172 q 593 369 593 289 q 571 510 593 453 q 507 598 549 568 q 406 628 465 628 q 264 559 317 628 q 211 369 211 490 q 264 181 211 250 q 406 111 317 111 m 810 618 l 851 986 l 989 986 l 915 618 l 810 618 z "},"đ":{"ha":844,"x_min":58,"x_max":832,"o":"m 367 -17 q 202 31 272 -17 q 95 165 132 78 q 58 369 58 251 q 96 574 58 488 q 203 708 133 661 q 367 756 272 756 q 503 724 443 756 q 593 635 563 692 l 593 986 l 740 986 l 740 0 l 603 0 l 599 111 q 506 17 568 51 q 367 -17 444 -17 m 406 111 q 507 142 465 111 q 571 231 549 172 q 593 369 593 289 q 571 510 593 453 q 507 598 549 568 q 406 628 465 628 q 264 559 317 628 q 211 369 211 490 q 264 181 211 250 q 406 111 317 111 m 393 806 l 393 910 l 832 910 l 832 806 l 393 806 z "},"ð":{"ha":817,"x_min":58,"x_max":768,"o":"m 328 719 l 293 810 l 733 976 l 768 885 l 328 719 m 622 382 q 582 653 622 544 q 456 819 542 763 q 233 888 369 876 l 271 1003 q 498 935 404 989 q 649 795 592 882 q 733 597 707 708 q 758 358 758 486 l 622 382 m 408 -17 q 221 26 300 -17 q 100 147 142 68 q 58 336 58 226 q 100 524 58 446 q 221 645 142 603 q 408 688 300 688 q 549 656 485 688 q 660 574 613 625 q 733 467 707 524 q 758 358 758 410 q 665 81 758 178 q 408 -17 572 -17 m 408 110 q 554 169 503 110 q 606 347 606 229 q 554 503 606 444 q 408 561 503 561 q 263 502 315 561 q 211 336 211 443 q 263 169 211 228 q 408 110 315 110 z "},"e":{"ha":800,"x_min":58,"x_max":742,"o":"m 408 -17 q 222 31 300 -17 q 101 165 143 78 q 58 369 58 253 q 101 573 58 486 q 221 708 143 660 q 404 756 299 756 q 581 709 504 756 q 699 575 657 663 q 742 364 742 488 l 742 326 l 211 326 q 269 164 217 218 q 410 110 321 110 q 518 140 475 110 q 578 222 561 171 l 731 213 q 616 47 701 110 q 408 -17 531 -17 m 211 438 l 586 438 q 530 583 579 536 q 404 631 481 631 q 274 581 325 631 q 211 438 224 532 z "},"é":{"ha":800,"x_min":58,"x_max":742,"o":"m 408 -17 q 222 31 300 -17 q 101 165 143 78 q 58 369 58 253 q 101 573 58 486 q 221 708 143 660 q 404 756 299 756 q 581 709 504 756 q 699 575 657 663 q 742 364 742 488 l 742 326 l 211 326 q 269 164 217 218 q 410 110 321 110 q 518 140 475 110 q 578 222 561 171 l 731 213 q 616 47 701 110 q 408 -17 531 -17 m 211 438 l 586 438 q 530 583 579 536 q 404 631 481 631 q 274 581 325 631 q 211 438 224 532 m 343 825 l 431 1011 l 585 1011 l 460 825 l 343 825 z "},"ě":{"ha":800,"x_min":58,"x_max":742,"o":"m 408 -17 q 222 31 300 -17 q 101 165 143 78 q 58 369 58 253 q 101 573 58 486 q 221 708 143 660 q 404 756 299 756 q 581 709 504 756 q 699 575 657 663 q 742 364 742 488 l 742 326 l 211 326 q 269 164 217 218 q 410 110 321 110 q 518 140 475 110 q 578 222 561 171 l 731 213 q 616 47 701 110 q 408 -17 531 -17 m 211 438 l 586 438 q 530 583 579 536 q 404 631 481 631 q 274 581 325 631 q 211 438 224 532 m 204 1018 l 317 1018 l 422 875 l 394 875 l 500 1018 l 613 1018 l 485 825 l 332 825 l 204 1018 z "},"ê":{"ha":800,"x_min":58,"x_max":742,"o":"m 408 -17 q 222 31 300 -17 q 101 165 143 78 q 58 369 58 253 q 101 573 58 486 q 221 708 143 660 q 404 756 299 756 q 581 709 504 756 q 699 575 657 663 q 742 364 742 488 l 742 326 l 211 326 q 269 164 217 218 q 410 110 321 110 q 518 140 475 110 q 578 222 561 171 l 731 213 q 616 47 701 110 q 408 -17 531 -17 m 211 438 l 586 438 q 530 583 579 536 q 404 631 481 631 q 274 581 325 631 q 211 438 224 532 m 204 825 l 332 1018 l 485 1018 l 613 825 l 500 825 l 394 968 l 422 968 l 317 825 l 204 825 z "},"ë":{"ha":800,"x_min":58,"x_max":742,"o":"m 408 -17 q 222 31 300 -17 q 101 165 143 78 q 58 369 58 253 q 101 573 58 486 q 221 708 143 660 q 404 756 299 756 q 581 709 504 756 q 699 575 657 663 q 742 364 742 488 l 742 326 l 211 326 q 269 164 217 218 q 410 110 321 110 q 518 140 475 110 q 578 222 561 171 l 731 213 q 616 47 701 110 q 408 -17 531 -17 m 211 438 l 586 438 q 530 583 579 536 q 404 631 481 631 q 274 581 325 631 q 211 438 224 532 m 206 842 l 206 989 l 353 989 l 353 842 l 206 842 m 465 842 l 465 989 l 614 989 l 614 842 l 465 842 z "},"ė":{"ha":800,"x_min":58,"x_max":742,"o":"m 408 -17 q 222 31 300 -17 q 101 165 143 78 q 58 369 58 253 q 101 573 58 486 q 221 708 143 660 q 404 756 299 756 q 581 709 504 756 q 699 575 657 663 q 742 364 742 488 l 742 326 l 211 326 q 269 164 217 218 q 410 110 321 110 q 518 140 475 110 q 578 222 561 171 l 731 213 q 616 47 701 110 q 408 -17 531 -17 m 211 438 l 586 438 q 530 583 579 536 q 404 631 481 631 q 274 581 325 631 q 211 438 224 532 m 333 843 l 333 990 l 486 990 l 486 843 l 333 843 z "},"è":{"ha":800,"x_min":58,"x_max":742,"o":"m 408 -17 q 222 31 300 -17 q 101 165 143 78 q 58 369 58 253 q 101 573 58 486 q 221 708 143 660 q 404 756 299 756 q 581 709 504 756 q 699 575 657 663 q 742 364 742 488 l 742 326 l 211 326 q 269 164 217 218 q 410 110 321 110 q 518 140 475 110 q 578 222 561 171 l 731 213 q 616 47 701 110 q 408 -17 531 -17 m 211 438 l 586 438 q 530 583 579 536 q 404 631 481 631 q 274 581 325 631 q 211 438 224 532 m 358 832 l 233 1019 l 388 1019 l 475 832 l 358 832 z "},"ē":{"ha":800,"x_min":58,"x_max":742,"o":"m 408 -17 q 222 31 300 -17 q 101 165 143 78 q 58 369 58 253 q 101 573 58 486 q 221 708 143 660 q 404 756 299 756 q 581 709 504 756 q 699 575 657 663 q 742 364 742 488 l 742 326 l 211 326 q 269 164 217 218 q 410 110 321 110 q 518 140 475 110 q 578 222 561 171 l 731 213 q 616 47 701 110 q 408 -17 531 -17 m 211 438 l 586 438 q 530 583 579 536 q 404 631 481 631 q 274 581 325 631 q 211 438 224 532 m 217 857 l 217 975 l 603 975 l 603 857 l 217 857 z "},"ę":{"ha":800,"x_min":58,"x_max":742,"o":"m 518 -294 q 417 -262 453 -294 q 382 -175 382 -231 q 399 -94 382 -131 q 446 -25 415 -58 l 563 108 l 672 94 l 554 -49 q 518 -103 529 -79 q 507 -149 507 -128 q 518 -180 507 -169 q 546 -190 529 -190 q 581 -185 565 -190 q 611 -172 597 -181 l 646 -258 q 593 -284 629 -274 q 518 -294 557 -294 m 408 -17 q 222 31 300 -17 q 101 165 143 78 q 58 369 58 253 q 101 573 58 486 q 221 708 143 660 q 404 756 299 756 q 581 709 504 756 q 699 575 657 663 q 742 364 742 488 l 742 326 l 211 326 q 269 164 217 218 q 410 110 321 110 q 518 140 475 110 q 578 222 561 171 l 731 213 q 616 47 701 110 q 408 -17 531 -17 m 211 438 l 586 438 q 530 583 579 536 q 404 631 481 631 q 274 581 325 631 q 211 438 224 532 z "},"ẽ":{"ha":800,"x_min":58,"x_max":742,"o":"m 408 -17 q 222 31 300 -17 q 101 165 143 78 q 58 369 58 253 q 101 573 58 486 q 221 708 143 660 q 404 756 299 756 q 581 709 504 756 q 699 575 657 663 q 742 364 742 488 l 742 326 l 211 326 q 269 164 217 218 q 410 110 321 110 q 518 140 475 110 q 578 222 561 171 l 731 213 q 616 47 701 110 q 408 -17 531 -17 m 211 438 l 586 438 q 530 583 579 536 q 404 631 481 631 q 274 581 325 631 q 211 438 224 532 m 489 840 q 438 850 461 840 q 389 879 414 860 q 355 905 368 897 q 324 913 342 913 q 284 896 300 913 q 265 831 268 879 l 183 831 q 223 960 185 915 q 322 1006 261 1006 q 381 994 356 1006 q 431 964 406 983 q 465 940 450 947 q 494 933 479 933 q 533 951 519 933 q 550 1018 547 968 l 633 1018 q 592 888 629 935 q 489 840 554 840 z "},"ə":{"ha":800,"x_min":58,"x_max":742,"o":"m 392 756 q 578 708 499 756 q 699 573 657 660 q 742 369 742 486 q 699 166 742 253 q 579 31 657 79 q 396 -17 501 -17 q 219 30 296 -17 q 101 164 143 76 q 58 375 58 251 l 58 413 l 589 413 q 531 575 583 521 q 390 629 479 629 q 283 599 325 629 q 222 517 240 569 l 68 526 q 184 692 99 629 q 392 756 269 756 m 589 301 l 214 301 q 271 156 221 204 q 396 108 321 108 q 526 158 475 108 q 589 301 576 208 z "},"f":{"ha":572,"x_min":76,"x_max":522,"o":"m 179 0 l 179 786 q 231 932 179 878 q 392 986 282 986 l 522 986 l 522 865 l 411 865 q 347 842 368 865 q 326 778 326 819 l 326 0 l 179 0 m 76 610 l 76 729 l 511 729 l 511 610 l 76 610 z "},"g":{"ha":843,"x_min":58,"x_max":739,"o":"m 401 -225 q 247 -199 314 -225 q 138 -124 181 -172 q 79 -12 94 -76 l 232 -3 q 285 -76 247 -49 q 401 -103 324 -103 q 542 -64 493 -103 q 592 54 592 -25 l 592 161 q 507 71 565 104 q 376 38 449 38 q 211 83 283 38 q 99 210 139 129 q 58 396 58 290 q 98 583 58 503 q 209 710 138 664 q 371 756 281 756 q 510 719 450 756 q 597 622 571 683 l 597 739 l 739 739 l 739 58 q 698 -97 739 -33 q 581 -192 657 -160 q 401 -225 506 -225 m 400 163 q 538 225 486 163 q 592 397 590 288 q 569 522 593 469 q 502 602 546 574 q 400 631 458 631 q 260 567 310 631 q 211 397 211 504 q 262 226 211 289 q 400 163 313 163 z "},"ğ":{"ha":843,"x_min":58,"x_max":739,"o":"m 401 -225 q 247 -199 314 -225 q 138 -124 181 -172 q 79 -12 94 -76 l 232 -3 q 285 -76 247 -49 q 401 -103 324 -103 q 542 -64 493 -103 q 592 54 592 -25 l 592 161 q 507 71 565 104 q 376 38 449 38 q 211 83 283 38 q 99 210 139 129 q 58 396 58 290 q 98 583 58 503 q 209 710 138 664 q 371 756 281 756 q 510 719 450 756 q 597 622 571 683 l 597 739 l 739 739 l 739 58 q 698 -97 739 -33 q 581 -192 657 -160 q 401 -225 506 -225 m 400 163 q 538 225 486 163 q 592 397 590 288 q 569 522 593 469 q 502 602 546 574 q 400 631 458 631 q 260 567 310 631 q 211 397 211 504 q 262 226 211 289 q 400 163 313 163 m 406 832 q 263 883 317 832 q 204 1019 208 933 l 297 1019 q 333 950 304 972 q 406 928 361 928 q 481 950 453 928 q 513 1019 508 972 l 607 1019 q 549 883 603 933 q 406 832 496 832 z "},"ǧ":{"ha":843,"x_min":58,"x_max":739,"o":"m 401 -225 q 247 -199 314 -225 q 138 -124 181 -172 q 79 -12 94 -76 l 232 -3 q 285 -76 247 -49 q 401 -103 324 -103 q 542 -64 493 -103 q 592 54 592 -25 l 592 161 q 507 71 565 104 q 376 38 449 38 q 211 83 283 38 q 99 210 139 129 q 58 396 58 290 q 98 583 58 503 q 209 710 138 664 q 371 756 281 756 q 510 719 450 756 q 597 622 571 683 l 597 739 l 739 739 l 739 58 q 698 -97 739 -33 q 581 -192 657 -160 q 401 -225 506 -225 m 400 163 q 538 225 486 163 q 592 397 590 288 q 569 522 593 469 q 502 602 546 574 q 400 631 458 631 q 260 567 310 631 q 211 397 211 504 q 262 226 211 289 q 400 163 313 163 m 201 1021 l 314 1021 l 419 878 l 392 878 l 497 1021 l 610 1021 l 482 828 l 329 828 l 201 1021 z "},"ĝ":{"ha":843,"x_min":58,"x_max":739,"o":"m 401 -225 q 247 -199 314 -225 q 138 -124 181 -172 q 79 -12 94 -76 l 232 -3 q 285 -76 247 -49 q 401 -103 324 -103 q 542 -64 493 -103 q 592 54 592 -25 l 592 161 q 507 71 565 104 q 376 38 449 38 q 211 83 283 38 q 99 210 139 129 q 58 396 58 290 q 98 583 58 503 q 209 710 138 664 q 371 756 281 756 q 510 719 450 756 q 597 622 571 683 l 597 739 l 739 739 l 739 58 q 698 -97 739 -33 q 581 -192 657 -160 q 401 -225 506 -225 m 400 163 q 538 225 486 163 q 592 397 590 288 q 569 522 593 469 q 502 602 546 574 q 400 631 458 631 q 260 567 310 631 q 211 397 211 504 q 262 226 211 289 q 400 163 313 163 m 201 828 l 329 1021 l 482 1021 l 610 828 l 497 828 l 392 971 l 419 971 l 314 828 l 201 828 z "},"ģ":{"ha":843,"x_min":58,"x_max":739,"o":"m 401 -225 q 247 -199 314 -225 q 138 -124 181 -172 q 79 -12 94 -76 l 232 -3 q 285 -76 247 -49 q 401 -103 324 -103 q 542 -64 493 -103 q 592 54 592 -25 l 592 161 q 507 71 565 104 q 376 38 449 38 q 211 83 283 38 q 99 210 139 129 q 58 396 58 290 q 98 583 58 503 q 209 710 138 664 q 371 756 281 756 q 510 719 450 756 q 597 622 571 683 l 597 739 l 739 739 l 739 58 q 698 -97 739 -33 q 581 -192 657 -160 q 401 -225 506 -225 m 400 163 q 538 225 486 163 q 592 397 590 288 q 569 522 593 469 q 502 602 546 574 q 400 631 458 631 q 260 567 310 631 q 211 397 211 504 q 262 226 211 289 q 400 163 313 163 m 328 832 l 328 957 l 411 1100 l 506 1100 l 431 969 l 481 969 l 481 832 l 328 832 z "},"ġ":{"ha":843,"x_min":58,"x_max":739,"o":"m 401 -225 q 247 -199 314 -225 q 138 -124 181 -172 q 79 -12 94 -76 l 232 -3 q 285 -76 247 -49 q 401 -103 324 -103 q 542 -64 493 -103 q 592 54 592 -25 l 592 161 q 507 71 565 104 q 376 38 449 38 q 211 83 283 38 q 99 210 139 129 q 58 396 58 290 q 98 583 58 503 q 209 710 138 664 q 371 756 281 756 q 510 719 450 756 q 597 622 571 683 l 597 739 l 739 739 l 739 58 q 698 -97 739 -33 q 581 -192 657 -160 q 401 -225 506 -225 m 400 163 q 538 225 486 163 q 592 397 590 288 q 569 522 593 469 q 502 602 546 574 q 400 631 458 631 q 260 567 310 631 q 211 397 211 504 q 262 226 211 289 q 400 163 313 163 m 329 846 l 329 993 l 482 993 l 482 846 l 329 846 z "},"ḡ":{"ha":843,"x_min":58,"x_max":739,"o":"m 401 -225 q 247 -199 314 -225 q 138 -124 181 -172 q 79 -12 94 -76 l 232 -3 q 285 -76 247 -49 q 401 -103 324 -103 q 542 -64 493 -103 q 592 54 592 -25 l 592 161 q 507 71 565 104 q 376 38 449 38 q 211 83 283 38 q 99 210 139 129 q 58 396 58 290 q 98 583 58 503 q 209 710 138 664 q 371 756 281 756 q 510 719 450 756 q 597 622 571 683 l 597 739 l 739 739 l 739 58 q 698 -97 739 -33 q 581 -192 657 -160 q 401 -225 506 -225 m 400 163 q 538 225 486 163 q 592 397 590 288 q 569 522 593 469 q 502 602 546 574 q 400 631 458 631 q 260 567 310 631 q 211 397 211 504 q 262 226 211 289 q 400 163 313 163 m 213 860 l 213 978 l 599 978 l 599 860 l 213 860 z "},"ǥ":{"ha":882,"x_min":58,"x_max":833,"o":"m 346 338 l 346 443 l 833 443 l 833 338 l 346 338 m 401 -225 q 247 -199 314 -225 q 138 -124 181 -172 q 79 -12 94 -76 l 232 -3 q 285 -76 247 -49 q 401 -103 324 -103 q 542 -64 493 -103 q 592 54 592 -25 l 592 161 q 507 71 565 104 q 376 38 449 38 q 211 83 283 38 q 99 210 139 129 q 58 396 58 290 q 98 583 58 503 q 209 710 138 664 q 371 756 281 756 q 510 719 450 756 q 597 622 571 683 l 597 739 l 739 739 l 739 58 q 698 -97 739 -33 q 581 -192 657 -160 q 401 -225 506 -225 m 400 163 q 538 225 486 163 q 592 397 590 288 q 569 522 593 469 q 502 602 546 574 q 400 631 458 631 q 260 567 310 631 q 211 397 211 504 q 262 226 211 289 q 400 163 313 163 z "},"h":{"ha":821,"x_min":104,"x_max":717,"o":"m 104 0 l 104 986 l 251 986 l 251 572 l 233 575 q 279 677 246 638 q 361 736 313 717 q 468 756 410 756 q 604 720 549 756 q 688 621 660 685 q 717 475 717 557 l 717 0 l 569 0 l 569 436 q 535 584 569 536 q 429 632 501 632 q 300 581 349 632 q 251 433 251 531 l 251 0 l 104 0 z "},"ħ":{"ha":821,"x_min":8,"x_max":717,"o":"m 104 0 l 104 986 l 251 986 l 251 572 l 233 575 q 279 677 246 638 q 361 736 313 717 q 468 756 410 756 q 604 720 549 756 q 688 621 660 685 q 717 475 717 557 l 717 0 l 569 0 l 569 436 q 535 584 569 536 q 429 632 501 632 q 300 581 349 632 q 251 433 251 531 l 251 0 l 104 0 m 8 806 l 8 910 l 447 910 l 447 806 l 8 806 z "},"ĥ":{"ha":821,"x_min":-26,"x_max":717,"o":"m 104 0 l 104 986 l 251 986 l 251 572 l 233 575 q 279 677 246 638 q 361 736 313 717 q 468 756 410 756 q 604 720 549 756 q 688 621 660 685 q 717 475 717 557 l 717 0 l 569 0 l 569 436 q 535 584 569 536 q 429 632 501 632 q 300 581 349 632 q 251 433 251 531 l 251 0 l 104 0 m -25 1047 l 103 1240 l 256 1240 l 383 1047 l 271 1047 l 165 1190 l 193 1190 l 88 1047 l -25 1047 z "},"i":{"ha":356,"x_min":101,"x_max":254,"o":"m 104 0 l 104 739 l 251 739 l 251 0 l 104 0 m 101 846 l 101 993 l 254 993 l 254 846 l 101 846 z "},"ı":{"ha":356,"x_min":104,"x_max":251,"o":"m 104 0 l 104 739 l 251 739 l 251 0 l 104 0 z "},"í":{"ha":356,"x_min":104,"x_max":356,"o":"m 104 0 l 104 739 l 251 739 l 251 0 l 104 0 m 113 828 l 200 1014 l 354 1014 l 229 828 l 113 828 z "},"î":{"ha":356,"x_min":-26,"x_max":383,"o":"m 104 0 l 104 739 l 251 739 l 251 0 l 104 0 m -26 828 l 101 1021 l 254 1021 l 382 828 l 269 828 l 164 971 l 192 971 l 86 828 l -26 828 z "},"ï":{"ha":356,"x_min":-26,"x_max":382,"o":"m 104 0 l 104 739 l 251 739 l 251 0 l 104 0 m -25 844 l -25 992 l 122 992 l 122 844 l -25 844 m 235 844 l 235 992 l 383 992 l 383 844 l 235 844 z "},"ì":{"ha":356,"x_min":3,"x_max":251,"o":"m 104 0 l 104 739 l 251 739 l 251 0 l 104 0 m 128 835 l 3 1022 l 157 1022 l 244 835 l 128 835 z "},"ī":{"ha":356,"x_min":-15,"x_max":371,"o":"m 104 0 l 104 739 l 251 739 l 251 0 l 104 0 m -15 860 l -15 978 l 371 978 l 371 860 l -15 860 z "},"į":{"ha":356,"x_min":33,"x_max":301,"o":"m 104 0 l 104 739 l 251 739 l 251 0 l 104 0 m 101 846 l 101 993 l 254 993 l 254 846 l 101 846 m 172 -294 q 72 -268 108 -294 q 35 -190 35 -242 q 59 -108 35 -150 q 110 -29 83 -67 l 153 28 l 253 0 l 206 -62 q 172 -117 182 -96 q 163 -156 163 -137 q 174 -181 163 -172 q 201 -190 185 -190 q 238 -185 221 -190 q 267 -172 254 -181 l 301 -258 q 248 -284 285 -274 q 172 -294 211 -294 z "},"ĩ":{"ha":356,"x_min":-47,"x_max":403,"o":"m 104 0 l 104 739 l 251 739 l 251 0 l 104 0 m 258 843 q 207 853 231 843 q 158 882 183 863 q 124 908 138 900 q 93 915 111 915 q 53 899 69 915 q 35 833 38 882 l -47 833 q -8 963 -46 918 q 92 1008 31 1008 q 150 997 125 1008 q 200 967 175 986 q 234 943 219 950 q 264 936 249 936 q 303 953 289 936 q 319 1021 317 971 l 403 1021 q 361 890 399 938 q 258 843 324 843 z "},"ĳ":{"ha":728,"x_min":101,"x_max":626,"o":"m 104 0 l 104 739 l 251 739 l 251 0 l 104 0 m 101 846 l 101 993 l 254 993 l 254 846 l 101 846 m 328 -208 l 328 -87 l 394 -87 q 453 -71 432 -87 q 475 -7 475 -54 l 475 739 l 624 739 l 624 -12 q 576 -163 624 -118 q 417 -208 528 -208 l 328 -208 m 474 846 l 474 993 l 626 993 l 626 846 l 474 846 z "},"j":{"ha":394,"x_min":-6,"x_max":293,"o":"m -6 -208 l -6 -87 l 61 -87 q 120 -71 99 -87 q 142 -7 142 -54 l 142 739 l 290 739 l 290 -12 q 242 -163 290 -118 q 83 -208 194 -208 l -6 -208 m 140 846 l 140 993 l 293 993 l 293 846 l 140 846 z "},"ȷ":{"ha":394,"x_min":-6,"x_max":290,"o":"m -6 -208 l -6 -87 l 61 -87 q 120 -71 99 -87 q 142 -7 142 -54 l 142 739 l 290 739 l 290 -12 q 242 -163 290 -118 q 83 -208 194 -208 l -6 -208 z "},"ĵ":{"ha":394,"x_min":-6,"x_max":421,"o":"m -6 -208 l -6 -87 l 61 -87 q 120 -71 99 -87 q 142 -7 142 -54 l 142 739 l 290 739 l 290 -12 q 242 -163 290 -118 q 83 -208 194 -208 l -6 -208 m 13 828 l 140 1021 l 293 1021 l 421 828 l 308 828 l 203 971 l 231 971 l 125 828 l 13 828 z "},"k":{"ha":846,"x_min":104,"x_max":781,"o":"m 104 0 l 104 986 l 251 986 l 251 374 l 583 739 l 769 739 l 481 428 l 781 0 l 611 0 l 382 336 l 251 197 l 251 0 l 104 0 z "},"ǩ":{"ha":846,"x_min":-26,"x_max":781,"o":"m 104 0 l 104 986 l 251 986 l 251 374 l 583 739 l 769 739 l 481 428 l 781 0 l 611 0 l 382 336 l 251 197 l 251 0 l 104 0 m -26 1221 l 86 1221 l 192 1078 l 164 1078 l 269 1221 l 382 1221 l 254 1028 l 101 1028 l -26 1221 z "},"ķ":{"ha":846,"x_min":104,"x_max":781,"o":"m 104 0 l 104 986 l 251 986 l 251 374 l 583 739 l 769 739 l 481 428 l 781 0 l 611 0 l 382 336 l 251 197 l 251 0 l 104 0 m 318 -339 l 393 -208 l 343 -208 l 343 -72 l 496 -72 l 496 -196 l 413 -339 l 318 -339 z "},"l":{"ha":392,"x_min":104,"x_max":361,"o":"m 265 0 q 149 38 193 0 q 104 157 104 75 l 104 986 l 251 986 l 251 171 q 265 133 251 146 q 303 121 278 121 l 361 121 l 361 0 l 265 0 z "},"ĺ":{"ha":392,"x_min":104,"x_max":361,"o":"m 265 0 q 149 38 193 0 q 104 157 104 75 l 104 986 l 251 986 l 251 171 q 265 133 251 146 q 303 121 278 121 l 361 121 l 361 0 l 265 0 m 113 1028 l 200 1214 l 354 1214 l 229 1028 l 113 1028 z "},"ľ":{"ha":475,"x_min":104,"x_max":508,"o":"m 265 0 q 149 38 193 0 q 104 157 104 75 l 104 986 l 251 986 l 251 171 q 265 133 251 146 q 303 121 278 121 l 361 121 l 361 0 l 265 0 m 329 618 l 371 986 l 508 986 l 435 618 l 329 618 z "},"ļ":{"ha":392,"x_min":104,"x_max":361,"o":"m 265 0 q 149 38 193 0 q 104 157 104 75 l 104 986 l 251 986 l 251 171 q 265 133 251 146 q 303 121 278 121 l 361 121 l 361 0 l 265 0 m 136 -339 l 211 -208 l 161 -208 l 161 -72 l 314 -72 l 314 -196 l 231 -339 l 136 -339 z "},"ł":{"ha":392,"x_min":7,"x_max":361,"o":"m 265 0 q 149 38 193 0 q 104 157 104 75 l 104 986 l 251 986 l 251 171 q 265 133 251 146 q 303 121 278 121 l 361 121 l 361 0 l 265 0 m 7 418 l 7 525 l 361 692 l 361 585 l 7 418 z "},"m":{"ha":1229,"x_min":104,"x_max":1124,"o":"m 104 0 l 104 739 l 239 739 l 243 556 l 226 561 q 270 665 239 622 q 347 732 301 708 q 447 756 393 756 q 601 702 542 756 q 676 556 661 649 l 653 556 q 695 665 665 621 q 772 732 725 708 q 879 756 819 756 q 1012 723 957 756 q 1095 628 1067 690 q 1124 475 1124 565 l 1124 0 l 976 0 l 976 439 q 942 583 976 535 q 836 632 907 632 q 756 608 790 632 q 702 540 721 585 q 683 433 683 496 l 683 0 l 543 0 l 543 433 q 512 580 543 528 q 406 632 481 632 q 324 608 358 632 q 271 540 290 585 q 251 433 251 494 l 251 0 l 104 0 z "},"n":{"ha":821,"x_min":104,"x_max":717,"o":"m 104 0 l 104 739 l 239 739 l 244 542 l 226 551 q 274 668 239 624 q 358 734 308 713 q 467 756 408 756 q 605 719 550 756 q 688 619 660 682 q 717 475 717 556 l 717 0 l 569 0 l 569 431 q 556 540 569 496 q 510 608 542 585 q 426 632 478 632 q 300 581 349 632 q 251 431 251 529 l 251 0 l 104 0 z "},"ń":{"ha":821,"x_min":104,"x_max":717,"o":"m 104 0 l 104 739 l 239 739 l 244 542 l 226 551 q 274 668 239 624 q 358 734 308 713 q 467 756 408 756 q 605 719 550 756 q 688 619 660 682 q 717 475 717 556 l 717 0 l 569 0 l 569 431 q 556 540 569 496 q 510 608 542 585 q 426 632 478 632 q 300 581 349 632 q 251 431 251 529 l 251 0 l 104 0 m 346 828 l 433 1014 l 588 1014 l 463 828 l 346 828 z "},"ň":{"ha":821,"x_min":104,"x_max":717,"o":"m 104 0 l 104 739 l 239 739 l 244 542 l 226 551 q 274 668 239 624 q 358 734 308 713 q 467 756 408 756 q 605 719 550 756 q 688 619 660 682 q 717 475 717 556 l 717 0 l 569 0 l 569 431 q 556 540 569 496 q 510 608 542 585 q 426 632 478 632 q 300 581 349 632 q 251 431 251 529 l 251 0 l 104 0 m 207 1021 l 319 1021 l 425 878 l 397 878 l 503 1021 l 615 1021 l 488 828 l 335 828 l 207 1021 z "},"ņ":{"ha":821,"x_min":104,"x_max":717,"o":"m 104 0 l 104 739 l 239 739 l 244 542 l 226 551 q 274 668 239 624 q 358 734 308 713 q 467 756 408 756 q 605 719 550 756 q 688 619 660 682 q 717 475 717 556 l 717 0 l 569 0 l 569 431 q 556 540 569 496 q 510 608 542 585 q 426 632 478 632 q 300 581 349 632 q 251 431 251 529 l 251 0 l 104 0 m 310 -339 l 385 -208 l 335 -208 l 335 -72 l 488 -72 l 488 -196 l 404 -339 l 310 -339 z "},"ñ":{"ha":821,"x_min":104,"x_max":717,"o":"m 104 0 l 104 739 l 239 739 l 244 542 l 226 551 q 274 668 239 624 q 358 734 308 713 q 467 756 408 756 q 605 719 550 756 q 688 619 660 682 q 717 475 717 556 l 717 0 l 569 0 l 569 431 q 556 540 569 496 q 510 608 542 585 q 426 632 478 632 q 300 581 349 632 q 251 431 251 529 l 251 0 l 104 0 m 492 843 q 440 853 464 843 q 392 882 417 863 q 358 908 371 900 q 326 915 344 915 q 287 899 303 915 q 268 833 271 882 l 186 833 q 226 963 188 918 q 325 1008 264 1008 q 383 997 358 1008 q 433 967 408 986 q 467 943 453 950 q 497 936 482 936 q 536 953 522 936 q 553 1021 550 971 l 636 1021 q 594 890 632 938 q 492 843 557 843 z "},"ŋ":{"ha":821,"x_min":104,"x_max":717,"o":"m 378 -208 l 378 -93 l 482 -93 q 546 -69 522 -93 q 569 -3 569 -44 l 569 139 l 717 139 l 717 -8 q 690 -112 717 -67 q 615 -183 663 -158 q 500 -208 567 -208 l 378 -208 m 104 0 l 104 739 l 239 739 l 244 542 l 226 551 q 274 668 239 624 q 358 734 308 713 q 467 756 408 756 q 605 719 550 756 q 688 619 660 682 q 717 475 717 556 l 717 0 l 569 0 l 569 431 q 556 540 569 496 q 510 608 542 585 q 426 632 478 632 q 300 581 349 632 q 251 431 251 529 l 251 0 l 104 0 z "},"o":{"ha":817,"x_min":58,"x_max":758,"o":"m 408 -17 q 224 31 303 -17 q 101 165 144 78 q 58 369 58 253 q 101 574 58 488 q 224 708 144 660 q 408 756 303 756 q 593 708 514 756 q 715 574 672 660 q 758 369 758 488 q 715 165 758 253 q 593 31 672 78 q 408 -17 514 -17 m 408 111 q 554 180 503 111 q 606 369 606 249 q 554 559 606 490 q 408 628 503 628 q 263 559 315 628 q 211 369 211 490 q 263 180 211 249 q 408 111 315 111 z "},"ó":{"ha":817,"x_min":58,"x_max":758,"o":"m 408 -17 q 224 31 303 -17 q 101 165 144 78 q 58 369 58 253 q 101 574 58 488 q 224 708 144 660 q 408 756 303 756 q 593 708 514 756 q 715 574 672 660 q 758 369 758 488 q 715 165 758 253 q 593 31 672 78 q 408 -17 514 -17 m 408 111 q 554 180 503 111 q 606 369 606 249 q 554 559 606 490 q 408 628 503 628 q 263 559 315 628 q 211 369 211 490 q 263 180 211 249 q 408 111 315 111 m 343 828 l 431 1014 l 585 1014 l 460 828 l 343 828 z "},"ô":{"ha":817,"x_min":58,"x_max":758,"o":"m 408 -17 q 224 31 303 -17 q 101 165 144 78 q 58 369 58 253 q 101 574 58 488 q 224 708 144 660 q 408 756 303 756 q 593 708 514 756 q 715 574 672 660 q 758 369 758 488 q 715 165 758 253 q 593 31 672 78 q 408 -17 514 -17 m 408 111 q 554 180 503 111 q 606 369 606 249 q 554 559 606 490 q 408 628 503 628 q 263 559 315 628 q 211 369 211 490 q 263 180 211 249 q 408 111 315 111 m 204 828 l 332 1021 l 485 1021 l 613 828 l 500 828 l 394 971 l 422 971 l 317 828 l 204 828 z "},"ö":{"ha":817,"x_min":58,"x_max":758,"o":"m 408 -17 q 224 31 303 -17 q 101 165 144 78 q 58 369 58 253 q 101 574 58 488 q 224 708 144 660 q 408 756 303 756 q 593 708 514 756 q 715 574 672 660 q 758 369 758 488 q 715 165 758 253 q 593 31 672 78 q 408 -17 514 -17 m 408 111 q 554 180 503 111 q 606 369 606 249 q 554 559 606 490 q 408 628 503 628 q 263 559 315 628 q 211 369 211 490 q 263 180 211 249 q 408 111 315 111 m 206 844 l 206 992 l 353 992 l 353 844 l 206 844 m 465 844 l 465 992 l 614 992 l 614 844 l 465 844 z "},"ò":{"ha":817,"x_min":58,"x_max":758,"o":"m 408 -17 q 224 31 303 -17 q 101 165 144 78 q 58 369 58 253 q 101 574 58 488 q 224 708 144 660 q 408 756 303 756 q 593 708 514 756 q 715 574 672 660 q 758 369 758 488 q 715 165 758 253 q 593 31 672 78 q 408 -17 514 -17 m 408 111 q 554 180 503 111 q 606 369 606 249 q 554 559 606 490 q 408 628 503 628 q 263 559 315 628 q 211 369 211 490 q 263 180 211 249 q 408 111 315 111 m 358 835 l 233 1022 l 388 1022 l 475 835 l 358 835 z "},"ő":{"ha":817,"x_min":58,"x_max":758,"o":"m 408 -17 q 224 31 303 -17 q 101 165 144 78 q 58 369 58 253 q 101 574 58 488 q 224 708 144 660 q 408 756 303 756 q 593 708 514 756 q 715 574 672 660 q 758 369 758 488 q 715 165 758 253 q 593 31 672 78 q 408 -17 514 -17 m 408 111 q 554 180 503 111 q 606 369 606 249 q 554 559 606 490 q 408 628 503 628 q 263 559 315 628 q 211 369 211 490 q 263 180 211 249 q 408 111 315 111 m 246 828 l 333 1014 l 488 1014 l 363 828 l 246 828 m 449 828 l 536 1014 l 690 1014 l 565 828 l 449 828 z "},"ō":{"ha":817,"x_min":58,"x_max":758,"o":"m 408 -17 q 224 31 303 -17 q 101 165 144 78 q 58 369 58 253 q 101 574 58 488 q 224 708 144 660 q 408 756 303 756 q 593 708 514 756 q 715 574 672 660 q 758 369 758 488 q 715 165 758 253 q 593 31 672 78 q 408 -17 514 -17 m 408 111 q 554 180 503 111 q 606 369 606 249 q 554 559 606 490 q 408 628 503 628 q 263 559 315 628 q 211 369 211 490 q 263 180 211 249 q 408 111 315 111 m 217 860 l 217 978 l 603 978 l 603 860 l 217 860 z "},"ø":{"ha":817,"x_min":58,"x_max":758,"o":"m 408 -17 q 224 31 303 -17 q 101 165 144 78 q 58 369 58 253 q 101 574 58 488 q 224 708 144 660 q 408 756 303 756 q 593 708 514 756 q 715 574 672 660 q 758 369 758 488 q 715 165 758 253 q 593 31 672 78 q 408 -17 514 -17 m 408 111 q 554 180 503 111 q 606 369 606 249 q 554 559 606 490 q 408 628 503 628 q 263 559 315 628 q 211 369 211 490 q 263 180 211 249 q 408 111 315 111 m 86 -19 l 619 758 l 731 758 l 197 -19 l 86 -19 z "},"õ":{"ha":817,"x_min":58,"x_max":758,"o":"m 408 -17 q 224 31 303 -17 q 101 165 144 78 q 58 369 58 253 q 101 574 58 488 q 224 708 144 660 q 408 756 303 756 q 593 708 514 756 q 715 574 672 660 q 758 369 758 488 q 715 165 758 253 q 593 31 672 78 q 408 -17 514 -17 m 408 111 q 554 180 503 111 q 606 369 606 249 q 554 559 606 490 q 408 628 503 628 q 263 559 315 628 q 211 369 211 490 q 263 180 211 249 q 408 111 315 111 m 489 843 q 438 853 461 843 q 389 882 414 863 q 355 908 368 900 q 324 915 342 915 q 284 899 300 915 q 265 833 268 882 l 183 833 q 223 963 185 918 q 322 1008 261 1008 q 381 997 356 1008 q 431 967 406 986 q 465 943 450 950 q 494 936 479 936 q 533 953 519 936 q 550 1021 547 971 l 633 1021 q 592 890 629 938 q 489 843 554 843 z "},"œ":{"ha":1349,"x_min":58,"x_max":1292,"o":"m 408 -17 q 224 31 303 -17 q 101 165 144 78 q 58 369 58 253 q 101 574 58 488 q 224 708 144 660 q 408 756 303 756 q 593 708 514 756 q 715 574 672 660 q 758 369 758 488 q 715 165 758 253 q 593 31 672 78 q 408 -17 514 -17 m 408 111 q 554 180 503 111 q 606 369 606 249 q 554 559 606 490 q 408 628 503 628 q 263 559 315 628 q 211 369 211 490 q 263 180 211 249 q 408 111 315 111 m 957 -17 q 770 31 849 -17 q 649 165 692 78 q 607 369 607 253 q 649 573 607 486 q 769 708 692 660 q 953 756 847 756 q 1129 709 1053 756 q 1248 575 1206 663 q 1290 364 1290 488 l 1290 326 l 760 326 q 817 164 765 218 q 958 110 869 110 q 1067 140 1024 110 q 1126 222 1110 171 l 1279 213 q 1165 47 1250 110 q 957 -17 1079 -17 m 760 438 l 1135 438 q 1078 583 1128 536 q 953 631 1029 631 q 823 581 874 631 q 760 438 772 532 z "},"p":{"ha":844,"x_min":104,"x_max":786,"o":"m 104 -208 l 104 739 l 243 739 l 247 581 l 231 589 q 322 713 258 671 q 469 756 386 756 q 648 702 578 756 q 752 561 718 649 q 786 369 786 474 q 752 178 786 265 q 648 37 718 90 q 469 -17 578 -17 q 365 3 414 -17 q 283 58 317 22 q 235 142 249 93 l 251 158 l 251 -208 l 104 -208 m 443 111 q 583 179 532 111 q 633 369 633 247 q 583 560 633 492 q 443 628 532 628 q 342 599 385 628 q 275 513 299 571 q 251 369 251 454 q 274 226 251 285 q 341 140 297 168 q 443 111 385 111 z "},"þ":{"ha":840,"x_min":104,"x_max":782,"o":"m 104 -208 l 104 986 l 254 986 l 254 656 q 338 729 285 703 q 465 756 390 756 q 642 702 572 756 q 747 561 713 649 q 782 369 782 474 q 747 178 782 265 q 642 37 713 90 q 465 -17 572 -17 q 340 9 393 -17 q 254 81 288 35 l 254 -208 l 104 -208 m 435 115 q 547 151 504 115 q 609 246 589 188 q 629 369 629 304 q 609 497 629 439 q 547 592 589 556 q 435 628 504 628 q 325 591 368 628 q 262 496 282 554 q 242 369 242 438 q 262 247 242 306 q 325 152 282 189 q 435 115 368 115 z "},"q":{"ha":844,"x_min":58,"x_max":740,"o":"m 740 -208 l 593 -208 l 593 158 l 610 142 q 562 58 596 93 q 479 3 528 22 q 375 -17 431 -17 q 197 37 267 -17 q 92 178 126 90 q 58 369 58 265 q 92 561 58 474 q 197 702 126 649 q 375 756 267 756 q 524 713 460 756 q 614 589 588 671 l 597 581 l 601 739 l 740 739 l 740 -208 m 401 111 q 504 140 461 111 q 570 226 547 168 q 593 369 593 285 q 569 513 593 454 q 503 599 546 571 q 401 628 460 628 q 262 560 313 628 q 211 369 211 492 q 262 179 211 247 q 401 111 313 111 z "},"r":{"ha":547,"x_min":104,"x_max":490,"o":"m 104 0 l 104 739 l 239 739 l 244 543 l 232 547 q 294 693 247 647 q 419 739 340 739 l 490 739 l 490 607 l 419 607 q 326 589 364 607 q 270 533 289 571 q 251 436 251 496 l 251 0 l 104 0 z "},"ŕ":{"ha":547,"x_min":104,"x_max":490,"o":"m 104 0 l 104 739 l 239 739 l 244 543 l 232 547 q 294 693 247 647 q 419 739 340 739 l 490 739 l 490 607 l 419 607 q 326 589 364 607 q 270 533 289 571 q 251 436 251 496 l 251 0 l 104 0 m 224 828 l 311 1014 l 465 1014 l 340 828 l 224 828 z "},"ř":{"ha":547,"x_min":83,"x_max":493,"o":"m 104 0 l 104 739 l 239 739 l 244 543 l 232 547 q 294 693 247 647 q 419 739 340 739 l 490 739 l 490 607 l 419 607 q 326 589 364 607 q 270 533 289 571 q 251 436 251 496 l 251 0 l 104 0 m 85 1021 l 197 1021 l 303 878 l 275 878 l 381 1021 l 493 1021 l 365 828 l 213 828 l 85 1021 z "},"ŗ":{"ha":547,"x_min":76,"x_max":490,"o":"m 104 0 l 104 739 l 239 739 l 244 543 l 232 547 q 294 693 247 647 q 419 739 340 739 l 490 739 l 490 607 l 419 607 q 326 589 364 607 q 270 533 289 571 q 251 436 251 496 l 251 0 l 104 0 m 76 -339 l 151 -208 l 101 -208 l 101 -72 l 254 -72 l 254 -196 l 171 -339 l 76 -339 z "},"s":{"ha":750,"x_min":58,"x_max":692,"o":"m 389 -17 q 213 15 285 -17 q 103 103 142 47 q 58 233 64 160 l 210 240 q 263 143 221 179 q 389 107 304 107 q 499 129 458 107 q 539 200 539 151 q 526 245 539 226 q 475 277 513 264 q 364 303 438 290 q 192 351 254 324 q 103 422 129 379 q 76 526 76 465 q 152 692 76 628 q 371 756 228 756 q 532 723 467 756 q 634 635 597 690 q 681 513 671 581 l 529 504 q 502 572 522 543 q 449 616 482 600 q 369 632 415 632 q 264 604 299 632 q 229 532 229 576 q 245 478 229 499 q 297 444 261 457 q 393 421 333 431 q 574 373 508 401 q 665 303 639 344 q 692 201 692 261 q 653 83 692 132 q 546 9 614 35 q 389 -17 478 -17 z "},"ś":{"ha":750,"x_min":58,"x_max":692,"o":"m 389 -17 q 213 15 285 -17 q 103 103 142 47 q 58 233 64 160 l 210 240 q 263 143 221 179 q 389 107 304 107 q 499 129 458 107 q 539 200 539 151 q 526 245 539 226 q 475 277 513 264 q 364 303 438 290 q 192 351 254 324 q 103 422 129 379 q 76 526 76 465 q 152 692 76 628 q 371 756 228 756 q 532 723 467 756 q 634 635 597 690 q 681 513 671 581 l 529 504 q 502 572 522 543 q 449 616 482 600 q 369 632 415 632 q 264 604 299 632 q 229 532 229 576 q 245 478 229 499 q 297 444 261 457 q 393 421 333 431 q 574 373 508 401 q 665 303 639 344 q 692 201 692 261 q 653 83 692 132 q 546 9 614 35 q 389 -17 478 -17 m 306 828 l 393 1014 l 547 1014 l 422 828 l 306 828 z "},"š":{"ha":750,"x_min":58,"x_max":692,"o":"m 389 -17 q 213 15 285 -17 q 103 103 142 47 q 58 233 64 160 l 210 240 q 263 143 221 179 q 389 107 304 107 q 499 129 458 107 q 539 200 539 151 q 526 245 539 226 q 475 277 513 264 q 364 303 438 290 q 192 351 254 324 q 103 422 129 379 q 76 526 76 465 q 152 692 76 628 q 371 756 228 756 q 532 723 467 756 q 634 635 597 690 q 681 513 671 581 l 529 504 q 502 572 522 543 q 449 616 482 600 q 369 632 415 632 q 264 604 299 632 q 229 532 229 576 q 245 478 229 499 q 297 444 261 457 q 393 421 333 431 q 574 373 508 401 q 665 303 639 344 q 692 201 692 261 q 653 83 692 132 q 546 9 614 35 q 389 -17 478 -17 m 167 1021 l 279 1021 l 385 878 l 357 878 l 463 1021 l 575 1021 l 447 828 l 294 828 l 167 1021 z "},"ş":{"ha":750,"x_min":58,"x_max":692,"o":"m 389 -17 q 213 15 285 -17 q 103 103 142 47 q 58 233 64 160 l 210 240 q 263 143 221 179 q 389 107 304 107 q 499 129 458 107 q 539 200 539 151 q 526 245 539 226 q 475 277 513 264 q 364 303 438 290 q 192 351 254 324 q 103 422 129 379 q 76 526 76 465 q 152 692 76 628 q 371 756 228 756 q 532 723 467 756 q 634 635 597 690 q 681 513 671 581 l 529 504 q 502 572 522 543 q 449 616 482 600 q 369 632 415 632 q 264 604 299 632 q 229 532 229 576 q 245 478 229 499 q 297 444 261 457 q 393 421 333 431 q 574 373 508 401 q 665 303 639 344 q 692 201 692 261 q 653 83 692 132 q 546 9 614 35 q 389 -17 478 -17 m 368 -311 q 259 -280 301 -311 q 201 -200 217 -249 l 279 -169 q 311 -212 290 -199 q 365 -225 332 -225 q 419 -211 400 -225 q 438 -172 438 -197 q 419 -129 438 -146 q 338 -112 400 -112 l 292 -67 l 343 14 l 442 14 l 397 -47 q 499 -87 467 -51 q 531 -175 531 -122 q 509 -248 531 -218 q 451 -294 488 -278 q 368 -311 415 -311 z "},"ŝ":{"ha":750,"x_min":58,"x_max":692,"o":"m 389 -17 q 213 15 285 -17 q 103 103 142 47 q 58 233 64 160 l 210 240 q 263 143 221 179 q 389 107 304 107 q 499 129 458 107 q 539 200 539 151 q 526 245 539 226 q 475 277 513 264 q 364 303 438 290 q 192 351 254 324 q 103 422 129 379 q 76 526 76 465 q 152 692 76 628 q 371 756 228 756 q 532 723 467 756 q 634 635 597 690 q 681 513 671 581 l 529 504 q 502 572 522 543 q 449 616 482 600 q 369 632 415 632 q 264 604 299 632 q 229 532 229 576 q 245 478 229 499 q 297 444 261 457 q 393 421 333 431 q 574 373 508 401 q 665 303 639 344 q 692 201 692 261 q 653 83 692 132 q 546 9 614 35 q 389 -17 478 -17 m 167 828 l 294 1021 l 447 1021 l 575 828 l 463 828 l 357 971 l 385 971 l 279 828 l 167 828 z "},"ș":{"ha":750,"x_min":58,"x_max":692,"o":"m 389 -17 q 213 15 285 -17 q 103 103 142 47 q 58 233 64 160 l 210 240 q 263 143 221 179 q 389 107 304 107 q 499 129 458 107 q 539 200 539 151 q 526 245 539 226 q 475 277 513 264 q 364 303 438 290 q 192 351 254 324 q 103 422 129 379 q 76 526 76 465 q 152 692 76 628 q 371 756 228 756 q 532 723 467 756 q 634 635 597 690 q 681 513 671 581 l 529 504 q 502 572 522 543 q 449 616 482 600 q 369 632 415 632 q 264 604 299 632 q 229 532 229 576 q 245 478 229 499 q 297 444 261 457 q 393 421 333 431 q 574 373 508 401 q 665 303 639 344 q 692 201 692 261 q 653 83 692 132 q 546 9 614 35 q 389 -17 478 -17 m 279 -339 l 354 -208 l 304 -208 l 304 -72 l 457 -72 l 457 -196 l 374 -339 l 279 -339 z "},"ß":{"ha":847,"x_min":104,"x_max":796,"o":"m 104 0 l 104 679 q 144 851 104 779 q 256 962 183 924 q 429 1000 329 1000 q 654 929 574 1000 q 735 740 735 858 q 672 585 735 646 q 506 518 610 525 l 504 542 q 658 503 592 538 q 760 411 724 469 q 796 278 796 353 q 701 74 796 149 q 433 0 607 0 l 344 0 l 344 132 l 433 132 q 589 171 535 132 q 643 290 643 210 q 619 381 643 343 q 544 437 594 418 q 421 456 494 456 l 357 456 l 357 586 l 417 586 q 541 626 496 586 q 586 732 586 665 q 547 831 586 793 q 429 868 508 868 q 299 818 347 868 q 251 679 251 768 l 251 0 l 104 0 z "},"t":{"ha":569,"x_min":69,"x_max":525,"o":"m 388 0 q 232 49 282 0 q 182 200 182 97 l 182 913 l 329 913 l 329 211 q 351 140 329 160 q 419 121 374 121 l 525 121 l 525 0 l 388 0 m 69 618 l 69 739 l 525 739 l 525 618 l 69 618 z "},"ŧ":{"ha":569,"x_min":69,"x_max":525,"o":"m 388 0 q 232 49 282 0 q 182 200 182 97 l 182 913 l 329 913 l 329 211 q 351 140 329 160 q 419 121 374 121 l 525 121 l 525 0 l 388 0 m 69 618 l 69 739 l 525 739 l 525 618 l 69 618 m 69 347 l 69 451 l 514 451 l 514 347 l 69 347 z "},"ť":{"ha":578,"x_min":69,"x_max":597,"o":"m 422 769 l 464 1068 l 597 1068 l 524 769 l 422 769 m 388 0 q 232 49 282 0 q 182 200 182 97 l 182 913 l 329 913 l 329 211 q 351 140 329 160 q 419 121 374 121 l 525 121 l 525 0 l 388 0 m 69 618 l 69 739 l 525 739 l 525 618 l 69 618 z "},"ţ":{"ha":569,"x_min":69,"x_max":525,"o":"m 388 0 q 232 49 282 0 q 182 200 182 97 l 182 913 l 329 913 l 329 211 q 351 140 329 160 q 419 121 374 121 l 525 121 l 525 0 l 388 0 m 69 618 l 69 739 l 525 739 l 525 618 l 69 618 m 325 -311 q 216 -280 258 -311 q 158 -200 174 -249 l 236 -169 q 268 -212 247 -199 q 322 -225 289 -225 q 376 -211 357 -225 q 394 -172 394 -197 q 376 -129 394 -146 q 294 -112 357 -112 l 249 -67 l 300 14 l 399 14 l 354 -47 q 456 -87 424 -51 q 488 -175 488 -122 q 466 -248 488 -218 q 408 -294 444 -278 q 325 -311 372 -311 z "},"ț":{"ha":569,"x_min":69,"x_max":525,"o":"m 388 0 q 232 49 282 0 q 182 200 182 97 l 182 913 l 329 913 l 329 211 q 351 140 329 160 q 419 121 374 121 l 525 121 l 525 0 l 388 0 m 69 618 l 69 739 l 525 739 l 525 618 l 69 618 m 236 -339 l 311 -208 l 261 -208 l 261 -72 l 414 -72 l 414 -196 l 331 -339 l 236 -339 z "},"u":{"ha":814,"x_min":104,"x_max":710,"o":"m 347 -17 q 170 58 236 -17 q 104 264 104 132 l 104 739 l 251 739 l 251 301 q 286 154 251 201 q 392 107 321 107 q 517 159 472 107 q 563 306 563 211 l 563 739 l 710 739 l 710 0 l 572 0 l 569 193 l 590 185 q 508 35 571 88 q 347 -17 446 -17 z "},"ú":{"ha":814,"x_min":104,"x_max":710,"o":"m 347 -17 q 170 58 236 -17 q 104 264 104 132 l 104 739 l 251 739 l 251 301 q 286 154 251 201 q 392 107 321 107 q 517 159 472 107 q 563 306 563 211 l 563 739 l 710 739 l 710 0 l 572 0 l 569 193 l 590 185 q 508 35 571 88 q 347 -17 446 -17 m 338 828 l 425 1014 l 579 1014 l 454 828 l 338 828 z "},"ŭ":{"ha":814,"x_min":104,"x_max":710,"o":"m 347 -17 q 170 58 236 -17 q 104 264 104 132 l 104 739 l 251 739 l 251 301 q 286 154 251 201 q 392 107 321 107 q 517 159 472 107 q 563 306 563 211 l 563 739 l 710 739 l 710 0 l 572 0 l 569 193 l 590 185 q 508 35 571 88 q 347 -17 446 -17 m 403 832 q 260 883 314 832 q 201 1019 206 933 l 294 1019 q 330 950 301 972 q 403 928 358 928 q 478 950 450 928 q 510 1019 506 972 l 604 1019 q 547 883 600 933 q 403 832 493 832 z "},"û":{"ha":814,"x_min":104,"x_max":710,"o":"m 347 -17 q 170 58 236 -17 q 104 264 104 132 l 104 739 l 251 739 l 251 301 q 286 154 251 201 q 392 107 321 107 q 517 159 472 107 q 563 306 563 211 l 563 739 l 710 739 l 710 0 l 572 0 l 569 193 l 590 185 q 508 35 571 88 q 347 -17 446 -17 m 199 828 l 326 1021 l 479 1021 l 607 828 l 494 828 l 389 971 l 417 971 l 311 828 l 199 828 z "},"ü":{"ha":814,"x_min":104,"x_max":710,"o":"m 347 -17 q 170 58 236 -17 q 104 264 104 132 l 104 739 l 251 739 l 251 301 q 286 154 251 201 q 392 107 321 107 q 517 159 472 107 q 563 306 563 211 l 563 739 l 710 739 l 710 0 l 572 0 l 569 193 l 590 185 q 508 35 571 88 q 347 -17 446 -17 m 199 844 l 199 992 l 346 992 l 346 844 l 199 844 m 458 844 l 458 992 l 607 992 l 607 844 l 458 844 z "},"ù":{"ha":814,"x_min":104,"x_max":710,"o":"m 347 -17 q 170 58 236 -17 q 104 264 104 132 l 104 739 l 251 739 l 251 301 q 286 154 251 201 q 392 107 321 107 q 517 159 472 107 q 563 306 563 211 l 563 739 l 710 739 l 710 0 l 572 0 l 569 193 l 590 185 q 508 35 571 88 q 347 -17 446 -17 m 353 835 l 228 1022 l 382 1022 l 469 835 l 353 835 z "},"ű":{"ha":814,"x_min":104,"x_max":710,"o":"m 347 -17 q 170 58 236 -17 q 104 264 104 132 l 104 739 l 251 739 l 251 301 q 286 154 251 201 q 392 107 321 107 q 517 159 472 107 q 563 306 563 211 l 563 739 l 710 739 l 710 0 l 572 0 l 569 193 l 590 185 q 508 35 571 88 q 347 -17 446 -17 m 239 828 l 326 1014 l 481 1014 l 356 828 l 239 828 m 443 828 l 531 1014 l 685 1014 l 560 828 l 443 828 z "},"ū":{"ha":814,"x_min":104,"x_max":710,"o":"m 347 -17 q 170 58 236 -17 q 104 264 104 132 l 104 739 l 251 739 l 251 301 q 286 154 251 201 q 392 107 321 107 q 517 159 472 107 q 563 306 563 211 l 563 739 l 710 739 l 710 0 l 572 0 l 569 193 l 590 185 q 508 35 571 88 q 347 -17 446 -17 m 210 860 l 210 978 l 596 978 l 596 860 l 210 860 z "},"ų":{"ha":814,"x_min":104,"x_max":758,"o":"m 347 -17 q 170 58 236 -17 q 104 264 104 132 l 104 739 l 251 739 l 251 301 q 286 154 251 201 q 392 107 321 107 q 517 159 472 107 q 563 306 563 211 l 563 739 l 710 739 l 710 0 l 572 0 l 569 193 l 590 185 q 508 35 571 88 q 347 -17 446 -17 m 629 -294 q 528 -268 565 -294 q 492 -190 492 -242 q 516 -108 492 -150 q 567 -29 540 -67 l 610 28 l 710 0 l 663 -62 q 629 -117 639 -96 q 619 -156 619 -137 q 631 -181 619 -172 q 658 -190 642 -190 q 694 -185 678 -190 q 724 -172 711 -181 l 758 -258 q 705 -284 742 -274 q 629 -294 668 -294 z "},"ů":{"ha":814,"x_min":104,"x_max":710,"o":"m 347 -17 q 170 58 236 -17 q 104 264 104 132 l 104 739 l 251 739 l 251 301 q 286 154 251 201 q 392 107 321 107 q 517 159 472 107 q 563 306 563 211 l 563 739 l 710 739 l 710 0 l 572 0 l 569 193 l 590 185 q 508 35 571 88 q 347 -17 446 -17 m 403 800 q 309 838 347 800 q 271 932 271 875 q 309 1026 271 988 q 403 1064 347 1064 q 498 1026 460 1064 q 536 932 536 988 q 498 838 536 875 q 403 800 460 800 m 403 875 q 444 891 428 875 q 460 932 460 907 q 444 972 460 956 q 403 988 428 988 q 363 972 379 988 q 347 932 347 956 q 363 891 347 907 q 403 875 379 875 z "},"ũ":{"ha":814,"x_min":104,"x_max":710,"o":"m 347 -17 q 170 58 236 -17 q 104 264 104 132 l 104 739 l 251 739 l 251 301 q 286 154 251 201 q 392 107 321 107 q 517 159 472 107 q 563 306 563 211 l 563 739 l 710 739 l 710 0 l 572 0 l 569 193 l 590 185 q 508 35 571 88 q 347 -17 446 -17 m 468 843 q 417 853 440 843 q 368 882 393 863 q 334 908 347 900 q 303 915 321 915 q 263 899 279 915 q 244 833 247 882 l 163 833 q 202 963 164 918 q 301 1008 240 1008 q 360 997 335 1008 q 410 967 385 986 q 444 943 429 950 q 474 936 458 936 q 513 953 499 936 q 529 1021 526 971 l 613 1021 q 571 890 608 938 q 468 843 533 843 z "},"v":{"ha":778,"x_min":31,"x_max":749,"o":"m 300 0 l 31 739 l 188 739 l 389 150 l 590 739 l 749 739 l 478 0 l 300 0 z "},"w":{"ha":1151,"x_min":31,"x_max":1121,"o":"m 256 0 l 31 739 l 185 739 l 343 161 l 506 739 l 644 739 l 807 161 l 967 739 l 1121 739 l 896 0 l 731 0 l 575 528 l 419 0 l 256 0 z "},"ẃ":{"ha":1151,"x_min":31,"x_max":1121,"o":"m 256 0 l 31 739 l 185 739 l 343 161 l 506 739 l 644 739 l 807 161 l 967 739 l 1121 739 l 896 0 l 731 0 l 575 528 l 419 0 l 256 0 m 511 828 l 599 1014 l 753 1014 l 628 828 l 511 828 z "},"ŵ":{"ha":1151,"x_min":31,"x_max":1121,"o":"m 256 0 l 31 739 l 185 739 l 343 161 l 506 739 l 644 739 l 807 161 l 967 739 l 1121 739 l 896 0 l 731 0 l 575 528 l 419 0 l 256 0 m 372 828 l 500 1021 l 653 1021 l 781 828 l 668 828 l 563 971 l 590 971 l 485 828 l 372 828 z "},"ẅ":{"ha":1151,"x_min":31,"x_max":1121,"o":"m 256 0 l 31 739 l 185 739 l 343 161 l 506 739 l 644 739 l 807 161 l 967 739 l 1121 739 l 896 0 l 731 0 l 575 528 l 419 0 l 256 0 m 372 844 l 372 992 l 519 992 l 519 844 l 372 844 m 632 844 l 632 992 l 781 992 l 781 844 l 632 844 z "},"ẁ":{"ha":1151,"x_min":31,"x_max":1121,"o":"m 256 0 l 31 739 l 185 739 l 343 161 l 506 739 l 644 739 l 807 161 l 967 739 l 1121 739 l 896 0 l 731 0 l 575 528 l 419 0 l 256 0 m 526 835 l 401 1022 l 556 1022 l 643 835 l 526 835 z "},"x":{"ha":843,"x_min":65,"x_max":778,"o":"m 65 0 l 333 378 l 76 739 l 240 739 l 422 474 l 599 739 l 767 739 l 513 375 l 778 0 l 614 0 l 424 282 l 232 0 l 65 0 z "},"y":{"ha":768,"x_min":31,"x_max":739,"o":"m 146 -208 l 146 -87 l 236 -87 q 292 -76 274 -87 q 319 -39 310 -65 l 343 22 l 297 22 l 31 739 l 186 739 l 389 158 l 582 739 l 739 739 l 444 -86 q 378 -179 422 -150 q 257 -208 335 -208 l 146 -208 z "},"ý":{"ha":768,"x_min":31,"x_max":739,"o":"m 146 -208 l 146 -87 l 236 -87 q 292 -76 274 -87 q 319 -39 310 -65 l 343 22 l 297 22 l 31 739 l 186 739 l 389 158 l 582 739 l 739 739 l 444 -86 q 378 -179 422 -150 q 257 -208 335 -208 l 146 -208 m 319 828 l 407 1014 l 561 1014 l 436 828 l 319 828 z "},"ŷ":{"ha":768,"x_min":31,"x_max":739,"o":"m 146 -208 l 146 -87 l 236 -87 q 292 -76 274 -87 q 319 -39 310 -65 l 343 22 l 297 22 l 31 739 l 186 739 l 389 158 l 582 739 l 739 739 l 444 -86 q 378 -179 422 -150 q 257 -208 335 -208 l 146 -208 m 181 828 l 308 1021 l 461 1021 l 589 828 l 476 828 l 371 971 l 399 971 l 293 828 l 181 828 z "},"ÿ":{"ha":768,"x_min":31,"x_max":739,"o":"m 146 -208 l 146 -87 l 236 -87 q 292 -76 274 -87 q 319 -39 310 -65 l 343 22 l 297 22 l 31 739 l 186 739 l 389 158 l 582 739 l 739 739 l 444 -86 q 378 -179 422 -150 q 257 -208 335 -208 l 146 -208 m 182 844 l 182 992 l 329 992 l 329 844 l 182 844 m 442 844 l 442 992 l 590 992 l 590 844 l 442 844 z "},"ỳ":{"ha":768,"x_min":31,"x_max":739,"o":"m 146 -208 l 146 -87 l 236 -87 q 292 -76 274 -87 q 319 -39 310 -65 l 343 22 l 297 22 l 31 739 l 186 739 l 389 158 l 582 739 l 739 739 l 444 -86 q 378 -179 422 -150 q 257 -208 335 -208 l 146 -208 m 335 835 l 210 1022 l 364 1022 l 451 835 l 335 835 z "},"ỹ":{"ha":768,"x_min":31,"x_max":739,"o":"m 146 -208 l 146 -87 l 236 -87 q 292 -76 274 -87 q 319 -39 310 -65 l 343 22 l 297 22 l 31 739 l 186 739 l 389 158 l 582 739 l 739 739 l 444 -86 q 378 -179 422 -150 q 257 -208 335 -208 l 146 -208 m 465 843 q 414 853 438 843 q 365 882 390 863 q 331 908 344 900 q 300 915 318 915 q 260 899 276 915 q 242 833 244 882 l 160 833 q 199 963 161 918 q 299 1008 238 1008 q 357 997 332 1008 q 407 967 382 986 q 441 943 426 950 q 471 936 456 936 q 510 953 496 936 q 526 1021 524 971 l 610 1021 q 568 890 606 938 q 465 843 531 843 z "},"z":{"ha":783,"x_min":79,"x_max":706,"o":"m 79 0 l 79 132 l 525 618 l 93 618 l 93 739 l 694 739 l 694 607 l 244 121 l 706 121 l 706 0 l 79 0 z "},"ź":{"ha":783,"x_min":79,"x_max":706,"o":"m 79 0 l 79 132 l 525 618 l 93 618 l 93 739 l 694 739 l 694 607 l 244 121 l 706 121 l 706 0 l 79 0 m 329 828 l 417 1014 l 571 1014 l 446 828 l 329 828 z "},"ž":{"ha":783,"x_min":79,"x_max":706,"o":"m 79 0 l 79 132 l 525 618 l 93 618 l 93 739 l 694 739 l 694 607 l 244 121 l 706 121 l 706 0 l 79 0 m 190 1021 l 303 1021 l 408 878 l 381 878 l 486 1021 l 599 1021 l 471 828 l 318 828 l 190 1021 z "},"ż":{"ha":783,"x_min":79,"x_max":706,"o":"m 79 0 l 79 132 l 525 618 l 93 618 l 93 739 l 694 739 l 694 607 l 244 121 l 706 121 l 706 0 l 79 0 m 318 846 l 318 993 l 471 993 l 471 846 l 318 846 z "},"ꞌ":{"ha":347,"x_min":104,"x_max":243,"o":"m 122 504 l 104 865 l 104 986 l 243 986 l 243 865 l 225 504 l 122 504 z "},"ﬁ":{"ha":908,"x_min":76,"x_max":807,"o":"m 179 0 l 179 786 q 231 932 179 878 q 392 986 282 986 l 522 986 l 522 865 l 411 865 q 347 842 368 865 q 326 778 326 819 l 326 0 l 179 0 m 76 610 l 76 729 l 511 729 l 511 610 l 76 610 m 656 0 l 656 739 l 803 739 l 803 0 l 656 0 m 654 846 l 654 993 l 807 993 l 807 846 l 654 846 z "},"ﬂ":{"ha":939,"x_min":76,"x_max":908,"o":"m 179 0 l 179 786 q 231 932 179 878 q 392 986 282 986 l 522 986 l 522 865 l 411 865 q 347 842 368 865 q 326 778 326 819 l 326 0 l 179 0 m 76 610 l 76 729 l 511 729 l 511 610 l 76 610 m 813 0 q 696 38 740 0 q 651 157 651 75 l 651 986 l 799 986 l 799 171 q 812 133 799 146 q 850 121 825 121 l 908 121 l 908 0 l 813 0 z "},"ª":{"ha":571,"x_min":56,"x_max":529,"o":"m 221 522 q 101 555 146 522 q 56 647 56 588 q 95 745 56 711 q 210 794 135 779 l 361 825 q 340 892 361 869 q 281 915 318 915 q 224 898 244 915 q 196 849 203 881 l 64 854 q 133 969 76 929 q 281 1008 189 1008 q 439 959 386 1008 q 492 815 492 910 l 492 650 q 498 623 492 631 q 517 615 504 615 l 529 615 l 529 526 q 512 524 525 525 q 482 522 499 522 q 430 532 454 522 q 392 565 406 542 q 378 633 378 589 l 388 628 q 334 553 376 583 q 221 522 292 522 m 246 608 q 328 637 296 608 q 361 715 361 665 l 361 743 l 254 719 q 205 697 221 713 q 189 658 189 681 q 203 622 189 635 q 246 608 217 608 z "},"º":{"ha":594,"x_min":56,"x_max":539,"o":"m 297 522 q 121 588 186 522 q 56 765 56 654 q 121 942 56 876 q 297 1008 186 1008 q 474 942 408 1008 q 539 765 539 875 q 474 588 539 654 q 297 522 408 522 m 297 619 q 379 658 351 619 q 407 765 407 696 q 379 872 407 833 q 297 911 351 911 q 215 872 243 911 q 188 765 188 832 q 215 658 188 697 q 297 619 243 619 z "},"А":{"ha":957,"x_min":28,"x_max":929,"o":"m 28 0 l 383 986 l 574 986 l 929 0 l 769 0 l 679 257 l 276 257 l 188 0 l 28 0 m 324 393 l 633 393 l 478 843 l 324 393 z "},"Б":{"ha":926,"x_min":119,"x_max":846,"o":"m 119 0 l 119 986 l 269 986 l 269 611 l 488 611 q 751 529 657 611 q 846 303 846 447 q 751 81 846 161 q 488 0 657 0 l 119 0 m 269 138 l 483 138 q 638 179 586 138 q 690 303 690 221 q 638 431 690 388 q 483 474 586 474 l 269 474 l 269 138 m 129 849 l 129 986 l 800 986 l 800 849 l 129 849 z "},"В":{"ha":956,"x_min":119,"x_max":874,"o":"m 119 0 l 119 986 l 474 986 q 742 922 651 986 q 832 719 832 858 q 806 610 832 657 q 728 535 779 563 q 608 507 678 508 l 607 513 q 803 444 733 510 q 874 271 874 378 q 783 68 874 136 q 526 0 693 0 l 119 0 m 269 135 l 522 135 q 667 173 615 135 q 719 285 719 211 q 667 397 719 357 q 522 438 615 438 l 269 438 l 269 135 m 269 565 l 471 565 q 624 603 569 565 q 678 708 678 640 q 626 816 678 781 q 471 851 574 851 l 269 851 l 269 565 z "},"Г":{"ha":815,"x_min":119,"x_max":800,"o":"m 119 0 l 119 986 l 800 986 l 800 849 l 269 849 l 269 0 l 119 0 z "},"Ѓ":{"ha":815,"x_min":119,"x_max":800,"o":"m 119 0 l 119 986 l 800 986 l 800 849 l 269 849 l 269 0 l 119 0 m 394 1075 l 482 1261 l 636 1261 l 511 1075 l 394 1075 z "},"Ґ":{"ha":731,"x_min":119,"x_max":715,"o":"m 119 0 l 119 986 l 715 986 l 715 849 l 269 849 l 269 0 l 119 0 m 565 849 l 565 1201 l 715 1201 l 715 849 l 565 849 z "},"Ғ":{"ha":889,"x_min":92,"x_max":874,"o":"m 92 388 l 92 524 l 672 524 l 672 388 l 92 388 m 193 0 l 193 986 l 874 986 l 874 849 l 343 849 l 343 0 l 193 0 z "},"Д":{"ha":1140,"x_min":69,"x_max":1071,"o":"m 69 -208 l 69 138 l 122 138 q 205 183 175 138 q 244 321 235 228 l 317 986 l 949 986 l 949 138 l 1071 138 l 1071 -208 l 921 -208 l 921 0 l 219 0 l 219 -208 l 69 -208 m 340 138 l 799 138 l 799 849 l 454 849 l 396 307 q 376 210 389 251 q 340 138 363 168 z "},"Е":{"ha":846,"x_min":119,"x_max":772,"o":"m 119 0 l 119 986 l 761 986 l 761 849 l 269 849 l 269 561 l 744 561 l 744 428 l 269 428 l 269 138 l 772 138 l 772 0 l 119 0 z "},"Ѐ":{"ha":846,"x_min":119,"x_max":772,"o":"m 119 0 l 119 986 l 761 986 l 761 849 l 269 849 l 269 561 l 744 561 l 744 428 l 269 428 l 269 138 l 772 138 l 772 0 l 119 0 m 399 1082 l 274 1269 l 428 1269 l 515 1082 l 399 1082 z "},"Ё":{"ha":846,"x_min":119,"x_max":772,"o":"m 119 0 l 119 986 l 761 986 l 761 849 l 269 849 l 269 561 l 744 561 l 744 428 l 269 428 l 269 138 l 772 138 l 772 0 l 119 0 m 239 1092 l 239 1239 l 386 1239 l 386 1092 l 239 1092 m 499 1092 l 499 1239 l 647 1239 l 647 1092 l 499 1092 z "},"Ж":{"ha":1335,"x_min":19,"x_max":1315,"o":"m 19 0 l 417 493 l 33 986 l 229 986 l 613 493 l 215 0 l 19 0 m 593 0 l 593 986 l 743 986 l 743 0 l 593 0 m 1119 0 l 722 493 l 1106 986 l 1301 986 l 918 493 l 1315 0 l 1119 0 z "},"З":{"ha":924,"x_min":68,"x_max":856,"o":"m 463 -22 q 263 15 350 -22 q 124 116 175 51 q 68 265 72 181 l 222 274 q 293 158 228 201 q 463 115 358 115 q 636 163 572 115 q 700 289 700 210 q 667 388 700 350 q 585 444 635 425 q 479 461 535 463 l 378 460 l 378 588 l 479 586 q 566 601 524 586 q 637 649 608 615 q 665 742 665 683 q 610 837 665 803 q 461 871 556 871 q 317 839 372 871 q 254 751 263 807 l 99 761 q 158 890 108 833 q 285 977 207 946 q 463 1008 364 1008 q 650 976 569 1008 q 776 885 731 943 q 822 751 822 828 q 792 640 822 688 q 706 563 763 593 q 567 521 650 533 l 568 544 q 724 495 660 532 q 822 401 789 458 q 856 271 856 344 q 806 119 856 185 q 667 15 756 53 q 463 -22 579 -22 z "},"И":{"ha":1029,"x_min":114,"x_max":910,"o":"m 910 0 l 760 0 l 760 786 l 311 0 l 114 0 l 114 986 l 264 986 l 264 182 l 719 986 l 910 986 l 910 0 z "},"Й":{"ha":1029,"x_min":114,"x_max":910,"o":"m 910 0 l 760 0 l 760 786 l 311 0 l 114 0 l 114 986 l 264 986 l 264 182 l 719 986 l 910 986 l 910 0 m 508 1082 q 366 1133 421 1082 q 307 1269 311 1183 l 400 1269 q 435 1200 407 1222 q 508 1178 464 1178 q 583 1200 556 1178 q 617 1269 611 1222 l 710 1269 q 652 1133 706 1183 q 508 1082 599 1082 z "},"Ѝ":{"ha":1029,"x_min":114,"x_max":910,"o":"m 910 0 l 760 0 l 760 786 l 311 0 l 114 0 l 114 986 l 264 986 l 264 182 l 719 986 l 910 986 l 910 0 m 444 1082 l 319 1269 l 475 1269 l 563 1082 l 444 1082 z "},"К":{"ha":908,"x_min":119,"x_max":889,"o":"m 700 0 l 260 493 l 449 493 l 889 0 l 700 0 m 119 0 l 119 986 l 269 986 l 269 0 l 119 0 m 260 493 l 686 986 l 875 986 l 449 493 l 260 493 z "},"Ќ":{"ha":908,"x_min":119,"x_max":889,"o":"m 700 0 l 260 493 l 449 493 l 889 0 l 700 0 m 119 0 l 119 986 l 269 986 l 269 0 l 119 0 m 260 493 l 686 986 l 875 986 l 449 493 l 260 493 m 410 1075 l 497 1261 l 651 1261 l 526 1075 l 410 1075 z "},"Л":{"ha":1069,"x_min":85,"x_max":950,"o":"m 85 0 l 85 138 l 165 138 q 224 165 203 138 q 249 238 244 192 l 313 986 l 950 986 l 950 0 l 801 0 l 801 849 l 451 849 l 397 217 q 341 59 389 118 q 197 0 293 0 l 85 0 z "},"М":{"ha":1236,"x_min":119,"x_max":1117,"o":"m 119 0 l 119 986 l 325 986 l 618 176 l 911 986 l 1117 986 l 1117 0 l 967 0 l 967 722 l 701 1 l 535 1 l 269 722 l 269 0 l 119 0 z "},"Н":{"ha":994,"x_min":119,"x_max":875,"o":"m 119 0 l 119 986 l 269 986 l 269 511 l 197 564 l 797 564 l 725 511 l 725 986 l 875 986 l 875 0 l 725 0 l 725 481 l 797 428 l 197 428 l 269 481 l 269 0 l 119 0 z "},"О":{"ha":1043,"x_min":61,"x_max":982,"o":"m 521 -22 q 275 40 378 -22 q 117 217 172 101 q 61 492 61 332 q 117 767 61 651 q 275 946 172 883 q 521 1008 378 1008 q 769 946 665 1008 q 927 767 872 883 q 982 492 982 651 q 927 217 982 332 q 769 40 872 101 q 521 -22 665 -22 m 521 115 q 685 160 617 115 q 790 288 754 204 q 826 492 826 372 q 790 696 826 611 q 685 826 754 781 q 521 871 617 871 q 358 826 426 871 q 253 696 290 781 q 217 492 217 611 q 253 288 217 372 q 358 160 290 204 q 521 115 426 115 z "},"П":{"ha":983,"x_min":119,"x_max":864,"o":"m 119 0 l 119 986 l 864 986 l 864 0 l 714 0 l 714 849 l 269 849 l 269 0 l 119 0 z "},"Р":{"ha":913,"x_min":119,"x_max":846,"o":"m 119 0 l 119 986 l 488 986 q 751 905 657 986 q 846 679 846 824 q 803 513 846 583 q 680 406 760 443 q 488 369 600 369 l 269 369 l 269 0 l 119 0 m 269 506 l 483 506 q 638 549 585 506 q 690 679 690 593 q 638 806 690 764 q 483 849 585 849 l 269 849 l 269 506 z "},"С":{"ha":983,"x_min":58,"x_max":933,"o":"m 508 -22 q 274 40 375 -22 q 115 217 172 101 q 58 492 58 332 q 115 766 58 650 q 272 945 171 882 q 510 1008 374 1008 q 794 917 693 1008 q 926 663 896 825 l 769 654 q 686 813 750 756 q 510 871 622 871 q 353 825 419 871 q 251 694 288 779 q 214 492 214 610 q 251 289 214 374 q 354 160 288 204 q 508 115 421 115 q 694 178 628 115 q 776 353 760 242 l 933 344 q 861 150 915 232 q 718 23 807 68 q 508 -22 629 -22 z "},"Т":{"ha":811,"x_min":0,"x_max":757,"o":"m 303 0 l 303 849 l 0 849 l 0 986 l 756 986 l 756 849 l 453 849 l 453 0 l 303 0 z "},"У":{"ha":783,"x_min":28,"x_max":756,"o":"m 126 0 l 126 135 l 239 135 q 286 147 268 135 q 314 186 304 160 l 347 272 l 296 272 l 28 986 l 186 986 l 394 406 l 597 986 l 756 986 l 446 122 q 380 30 424 60 q 268 0 336 0 l 126 0 z "},"Ў":{"ha":783,"x_min":28,"x_max":756,"o":"m 126 0 l 126 135 l 239 135 q 286 147 268 135 q 314 186 304 160 l 347 272 l 296 272 l 28 986 l 186 986 l 394 406 l 597 986 l 756 986 l 446 122 q 380 30 424 60 q 268 0 336 0 l 126 0 m 389 1079 q 246 1130 300 1079 q 188 1267 192 1181 l 281 1267 q 316 1197 288 1219 q 389 1175 344 1175 q 464 1197 436 1175 q 496 1267 492 1219 l 590 1267 q 533 1130 586 1181 q 389 1079 479 1079 z "},"Ф":{"ha":1172,"x_min":61,"x_max":1111,"o":"m 583 101 q 311 151 429 101 q 127 290 193 201 q 61 493 61 378 q 127 697 61 610 q 311 835 193 785 q 583 885 429 885 q 858 835 739 885 q 1044 697 976 785 q 1111 493 1111 610 q 1044 290 1111 378 q 858 151 976 201 q 583 101 739 101 m 583 239 q 781 270 699 239 q 909 358 864 301 q 954 493 954 415 q 909 628 954 571 q 781 716 864 685 q 583 747 699 747 q 390 716 472 747 q 262 628 307 685 q 217 493 217 571 q 262 358 217 415 q 390 270 307 301 q 583 239 472 239 m 514 0 l 514 986 l 657 986 l 657 0 l 514 0 z "},"Х":{"ha":879,"x_min":19,"x_max":860,"o":"m 19 0 l 347 494 l 22 986 l 199 986 l 442 611 l 681 986 l 856 986 l 531 497 l 860 0 l 683 0 l 439 381 l 194 0 l 19 0 z "},"Ц":{"ha":1088,"x_min":119,"x_max":996,"o":"m 846 -208 l 846 138 l 996 138 l 996 -208 l 846 -208 m 631 0 l 631 138 l 867 138 l 867 0 l 631 0 m 119 986 l 269 986 l 269 138 l 714 138 l 714 986 l 864 986 l 864 0 l 119 0 l 119 986 z "},"Ч":{"ha":915,"x_min":54,"x_max":796,"o":"m 646 0 l 646 513 l 671 557 q 632 442 671 493 q 527 360 593 390 q 378 331 461 331 q 138 415 222 331 q 54 644 54 500 l 54 986 l 204 986 l 204 661 q 253 519 204 571 q 396 467 301 467 q 527 491 471 467 q 615 560 583 515 q 646 663 646 604 l 646 986 l 796 986 l 796 0 l 646 0 z "},"Ш":{"ha":1299,"x_min":119,"x_max":1179,"o":"m 119 0 l 119 986 l 269 986 l 269 0 l 119 0 m 119 0 l 119 138 l 1179 138 l 1179 0 l 119 0 m 574 0 l 574 986 l 725 986 l 725 0 l 574 0 m 1029 0 l 1029 986 l 1179 986 l 1179 0 l 1029 0 z "},"Щ":{"ha":1403,"x_min":119,"x_max":1311,"o":"m 1161 -208 l 1161 138 l 1311 138 l 1311 -208 l 1161 -208 m 1046 0 l 1046 138 l 1281 138 l 1281 0 l 1046 0 m 119 0 l 119 986 l 269 986 l 269 0 l 119 0 m 119 0 l 119 138 l 1179 138 l 1179 0 l 119 0 m 574 0 l 574 986 l 725 986 l 725 0 l 574 0 m 1029 0 l 1029 986 l 1179 986 l 1179 0 l 1029 0 z "},"Џ":{"ha":983,"x_min":119,"x_max":864,"o":"m 417 -208 l 417 44 l 567 44 l 567 -208 l 417 -208 m 119 986 l 269 986 l 269 138 l 714 138 l 714 986 l 864 986 l 864 0 l 119 0 l 119 986 z "},"Ь":{"ha":926,"x_min":119,"x_max":846,"o":"m 119 986 l 269 986 l 269 617 l 488 617 q 680 580 600 617 q 803 474 760 543 q 846 307 846 404 q 751 81 846 163 q 488 0 657 0 l 119 0 l 119 986 m 269 481 l 269 138 l 483 138 q 638 180 585 138 q 690 307 690 222 q 638 437 690 393 q 483 481 585 481 l 269 481 z "},"Ы":{"ha":1221,"x_min":119,"x_max":1101,"o":"m 951 0 l 951 986 l 1101 986 l 1101 0 l 951 0 m 119 986 l 269 986 l 269 617 l 488 617 q 680 580 600 617 q 803 474 760 543 q 846 307 846 404 q 751 81 846 163 q 488 0 657 0 l 119 0 l 119 986 m 269 481 l 269 138 l 483 138 q 638 180 585 138 q 690 307 690 222 q 638 437 690 393 q 483 481 585 481 l 269 481 z "},"Ъ":{"ha":1033,"x_min":92,"x_max":967,"o":"m 92 849 l 92 986 l 369 986 l 369 849 l 92 849 m 240 986 l 390 986 l 390 617 l 608 617 q 801 580 721 617 q 924 474 881 543 q 967 307 967 404 q 872 81 967 163 q 608 0 778 0 l 240 0 l 240 986 m 390 481 l 390 138 l 604 138 q 758 180 706 138 q 811 307 811 222 q 758 437 811 393 q 604 481 706 481 l 390 481 z "},"Љ":{"ha":1567,"x_min":85,"x_max":1485,"o":"m 85 0 l 85 138 l 165 138 q 224 165 203 138 q 249 238 244 192 l 313 986 l 950 986 l 950 0 l 801 0 l 801 849 l 451 849 l 397 217 q 341 59 389 118 q 197 0 293 0 l 85 0 m 758 986 l 908 986 l 908 617 l 1126 617 q 1319 580 1239 617 q 1442 474 1400 543 q 1485 307 1485 404 q 1390 81 1485 163 q 1126 0 1296 0 l 758 0 l 758 986 m 908 481 l 908 138 l 1122 138 q 1277 180 1225 138 q 1329 307 1329 222 q 1276 437 1329 393 q 1122 481 1224 481 l 908 481 z "},"Њ":{"ha":1521,"x_min":119,"x_max":1440,"o":"m 119 0 l 119 986 l 269 986 l 269 0 l 119 0 m 243 481 l 243 617 l 789 617 l 789 481 l 243 481 m 714 986 l 864 986 l 864 617 l 1082 617 q 1274 580 1194 617 q 1397 474 1354 543 q 1440 307 1440 404 q 1346 81 1440 163 q 1082 0 1251 0 l 714 0 l 714 986 m 864 481 l 864 138 l 1078 138 q 1232 180 1179 138 q 1285 307 1285 222 q 1232 437 1285 393 q 1078 481 1179 481 l 864 481 z "},"Ѕ":{"ha":908,"x_min":75,"x_max":833,"o":"m 475 -22 q 270 21 357 -22 q 133 140 183 64 q 75 318 83 217 l 229 328 q 269 210 239 258 q 352 138 300 163 q 478 114 404 114 q 587 130 542 114 q 656 178 632 146 q 679 256 679 210 q 659 330 679 297 q 583 390 639 363 q 418 443 526 417 q 229 507 300 472 q 127 594 158 542 q 96 722 96 646 q 137 872 96 807 q 254 972 178 936 q 438 1008 331 1008 q 630 967 550 1008 q 756 853 710 925 q 814 688 803 781 l 660 679 q 625 780 653 736 q 550 848 597 824 q 435 872 503 872 q 299 833 349 872 q 250 728 250 793 q 270 658 250 686 q 342 608 290 629 q 490 564 394 588 q 694 492 618 535 q 801 393 769 450 q 833 264 833 336 q 788 112 833 176 q 663 13 743 47 q 475 -22 582 -22 z "},"Є":{"ha":1036,"x_min":71,"x_max":978,"o":"m 532 -22 q 284 40 388 -22 q 126 218 181 103 q 71 492 71 333 q 126 768 71 653 q 284 946 181 883 q 532 1008 388 1008 q 744 964 653 1008 q 896 837 836 919 q 978 638 956 754 l 818 638 q 760 763 800 711 q 663 843 719 815 q 532 871 606 871 q 367 826 436 871 q 263 696 299 781 q 226 492 226 611 q 263 290 226 375 q 367 160 299 206 q 532 115 436 115 q 715 176 642 115 q 818 347 789 238 l 978 347 q 896 149 956 232 q 744 22 836 67 q 532 -22 653 -22 m 606 426 l 179 426 l 179 558 l 606 558 l 606 426 z "},"Э":{"ha":1029,"x_min":61,"x_max":968,"o":"m 507 -22 q 295 22 388 -22 q 143 149 203 67 q 61 347 83 232 l 221 347 q 324 176 250 238 q 507 115 397 115 q 672 160 604 115 q 776 290 740 206 q 813 492 813 375 q 776 696 813 611 q 672 826 740 781 q 507 871 604 871 q 377 843 435 871 q 280 763 319 815 q 221 638 240 711 l 61 638 q 143 837 83 754 q 295 964 203 919 q 507 1008 388 1008 q 756 946 653 1008 q 913 768 858 883 q 968 492 968 653 q 913 218 968 333 q 756 40 858 103 q 507 -22 653 -22 m 433 426 l 433 558 l 860 558 l 860 426 l 433 426 z "},"І":{"ha":394,"x_min":125,"x_max":275,"o":"m 125 0 l 125 986 l 275 986 l 275 0 l 125 0 z "},"Ї":{"ha":389,"x_min":-7,"x_max":401,"o":"m 115 0 l 115 986 l 265 986 l 265 0 l 115 0 m -7 1094 l -7 1242 l 140 1242 l 140 1094 l -7 1094 m 253 1094 l 253 1242 l 401 1242 l 401 1094 l 253 1094 z "},"Ј":{"ha":843,"x_min":85,"x_max":744,"o":"m 414 -22 q 241 23 315 -22 q 126 148 167 68 q 85 332 86 228 l 238 340 q 285 172 239 229 q 414 115 331 115 q 548 175 501 115 q 594 347 594 235 l 594 986 l 744 986 l 744 347 q 703 151 744 235 q 589 23 663 68 q 414 -22 515 -22 z "},"Ћ":{"ha":1072,"x_min":17,"x_max":1019,"o":"m 17 849 l 17 986 l 719 986 l 719 849 l 17 849 m 428 986 l 428 474 l 401 429 q 441 544 403 493 q 547 626 479 596 q 694 656 614 656 q 935 571 850 656 q 1019 342 1019 486 l 1019 0 l 869 0 l 869 325 q 821 468 869 417 q 676 519 772 519 q 547 495 603 519 q 459 426 490 471 q 428 324 428 382 l 428 0 l 278 0 l 278 986 l 428 986 z "},"Ю":{"ha":1401,"x_min":119,"x_max":1340,"o":"m 119 0 l 119 986 l 269 986 l 269 0 l 119 0 m 250 425 l 250 561 l 513 561 l 513 425 l 250 425 m 879 -22 q 632 40 735 -22 q 474 217 529 101 q 418 492 418 332 q 474 767 418 651 q 632 946 529 883 q 879 1008 735 1008 q 1126 946 1024 1008 q 1285 767 1229 883 q 1340 492 1340 651 q 1285 217 1340 332 q 1126 40 1229 101 q 879 -22 1024 -22 m 879 115 q 1043 160 975 115 q 1147 288 1111 204 q 1183 492 1183 372 q 1147 696 1183 611 q 1043 826 1111 781 q 879 871 975 871 q 715 826 783 871 q 611 696 647 781 q 575 492 575 611 q 611 288 575 372 q 715 160 647 204 q 879 115 783 115 z "},"Я":{"ha":956,"x_min":81,"x_max":836,"o":"m 836 0 l 686 0 l 686 386 l 474 386 q 467 386 469 386 q 460 386 464 386 l 244 0 l 81 0 l 311 410 q 162 511 214 439 q 110 683 110 583 q 204 906 110 826 q 468 986 299 986 l 836 986 l 836 0 m 686 522 l 686 849 l 472 849 q 319 806 374 849 q 265 685 265 764 q 319 564 265 606 q 472 522 374 522 l 686 522 z "},"Ђ":{"ha":1075,"x_min":17,"x_max":1019,"o":"m 278 0 l 278 986 l 428 986 l 428 474 l 401 429 q 441 544 403 493 q 546 626 479 596 q 693 656 613 656 q 863 615 790 656 q 978 502 936 575 q 1019 333 1019 429 q 970 156 1019 232 q 831 40 921 81 q 618 0 742 0 l 618 138 q 799 190 735 138 q 864 332 864 243 q 814 469 864 418 q 676 519 764 519 q 546 494 603 519 q 458 425 489 469 q 428 321 428 381 l 428 0 l 278 0 m 17 849 l 17 986 l 719 986 l 719 849 l 17 849 z "},"Ѣ":{"ha":1038,"x_min":78,"x_max":956,"o":"m 78 736 l 78 856 l 533 856 l 533 736 l 78 736 m 229 986 l 379 986 l 379 617 l 597 617 q 790 580 710 617 q 913 474 871 543 q 956 307 956 404 q 861 81 956 163 q 597 0 767 0 l 229 0 l 229 986 m 379 481 l 379 138 l 593 138 q 748 180 696 138 q 800 307 800 222 q 747 437 800 393 q 593 481 694 481 l 379 481 z "},"Ѫ":{"ha":976,"x_min":19,"x_max":957,"o":"m 19 0 l 164 388 q 240 502 192 465 q 347 539 288 539 l 628 539 q 737 502 689 539 q 811 388 785 465 l 957 0 l 797 0 l 679 325 q 642 388 663 372 q 592 403 622 403 l 386 403 q 334 388 354 403 q 297 325 314 372 l 179 0 l 19 0 m 415 0 l 415 539 l 563 539 l 563 0 l 415 0 m 415 415 l 117 849 l 282 849 l 581 415 l 415 415 m 397 415 l 697 849 l 861 849 l 563 415 l 397 415 m 117 849 l 117 986 l 861 986 l 861 849 l 117 849 z "},"Ѳ":{"ha":1043,"x_min":61,"x_max":982,"o":"m 167 403 l 158 558 q 228 591 194 579 q 296 606 263 603 q 394 603 339 611 q 497 576 450 596 q 591 543 554 556 q 653 524 628 531 q 699 517 679 518 q 740 519 719 517 q 808 537 776 524 q 872 576 840 550 l 879 425 q 819 397 850 407 q 760 382 789 386 q 701 381 731 378 q 626 397 671 383 q 504 438 581 410 q 403 465 456 457 q 315 468 351 472 q 237 447 274 463 q 167 403 200 431 m 521 -22 q 275 40 378 -22 q 117 217 172 101 q 61 492 61 332 q 117 767 61 651 q 275 946 172 883 q 521 1008 378 1008 q 769 946 665 1008 q 927 767 872 883 q 982 492 982 651 q 927 217 982 332 q 769 40 872 101 q 521 -22 665 -22 m 521 115 q 685 160 617 115 q 790 288 754 204 q 826 492 826 372 q 790 696 826 611 q 685 826 754 781 q 521 871 617 871 q 358 826 426 871 q 253 696 290 781 q 217 492 217 611 q 253 288 217 372 q 358 160 290 204 q 521 115 426 115 z "},"Ѵ":{"ha":1026,"x_min":28,"x_max":999,"o":"m 385 0 l 28 986 l 188 986 l 478 168 l 700 796 q 794 935 731 885 q 938 986 857 986 l 999 986 l 999 849 l 976 849 q 892 822 924 849 q 835 726 861 794 l 571 0 l 385 0 z "},"Җ":{"ha":1388,"x_min":19,"x_max":1375,"o":"m 1225 -208 l 1225 108 l 1375 108 l 1375 -208 l 1225 -208 m 19 0 l 417 493 l 33 986 l 229 986 l 613 493 l 215 0 l 19 0 m 593 0 l 593 986 l 743 986 l 743 0 l 593 0 m 1119 0 l 722 493 l 1106 986 l 1301 986 l 918 493 l 1315 0 l 1119 0 z "},"Қ":{"ha":947,"x_min":119,"x_max":928,"o":"m 778 -208 l 778 108 l 928 108 l 928 -208 l 778 -208 m 700 0 l 260 493 l 449 493 l 889 0 l 700 0 m 119 0 l 119 986 l 269 986 l 269 0 l 119 0 m 260 493 l 686 986 l 875 986 l 449 493 l 260 493 z "},"Ң":{"ha":1060,"x_min":119,"x_max":968,"o":"m 818 -208 l 818 108 l 968 108 l 968 -208 l 818 -208 m 119 0 l 119 986 l 269 986 l 269 511 l 197 564 l 797 564 l 725 511 l 725 986 l 875 986 l 875 0 l 725 0 l 725 481 l 797 428 l 197 428 l 269 481 l 269 0 l 119 0 z "},"Ү":{"ha":825,"x_min":-8,"x_max":835,"o":"m 338 0 l 338 396 l -8 986 l 164 986 l 413 546 l 663 986 l 835 986 l 488 396 l 488 0 l 338 0 z "},"Ұ":{"ha":915,"x_min":1,"x_max":844,"o":"m 160 299 l 160 435 l 765 435 l 765 299 l 160 299 m 349 0 l 349 396 l 1 986 l 174 986 l 424 546 l 672 986 l 844 986 l 499 396 l 499 0 l 349 0 z "},"Ҳ":{"ha":954,"x_min":19,"x_max":935,"o":"m 785 -208 l 785 108 l 935 108 l 935 -208 l 785 -208 m 19 0 l 347 494 l 22 986 l 199 986 l 442 611 l 681 986 l 856 986 l 531 497 l 860 0 l 683 0 l 439 381 l 194 0 l 19 0 z "},"Ҷ":{"ha":996,"x_min":54,"x_max":904,"o":"m 754 -208 l 754 108 l 904 108 l 904 -208 l 754 -208 m 646 0 l 646 513 l 671 557 q 632 442 671 493 q 527 360 593 390 q 378 331 461 331 q 138 415 222 331 q 54 644 54 500 l 54 986 l 204 986 l 204 661 q 253 519 204 571 q 396 467 301 467 q 527 491 471 467 q 615 560 583 515 q 646 663 646 604 l 646 986 l 796 986 l 796 0 l 646 0 z "},"Һ":{"ha":915,"x_min":119,"x_max":861,"o":"m 269 986 l 269 474 l 243 429 q 283 544 244 493 q 389 626 322 596 q 538 656 456 656 q 777 571 693 656 q 861 342 861 486 l 861 0 l 711 0 l 711 325 q 663 468 711 417 q 519 519 614 519 q 389 495 446 519 q 301 426 332 471 q 269 324 269 382 l 269 0 l 119 0 l 119 986 l 269 986 z "},"Ӏ":{"ha":389,"x_min":119,"x_max":269,"o":"m 119 0 l 119 986 l 269 986 l 269 0 l 119 0 z "},"Ә":{"ha":1011,"x_min":61,"x_max":950,"o":"m 810 415 l 222 415 q 271 250 235 317 q 364 149 307 183 q 496 115 421 115 q 648 155 581 115 q 755 274 715 194 q 794 468 794 353 l 794 508 q 754 705 794 624 q 646 828 714 786 q 494 871 578 871 q 393 851 440 871 q 310 792 346 832 q 249 692 274 751 l 90 704 q 178 866 121 799 q 317 971 236 933 q 494 1008 397 1008 q 735 946 632 1008 q 894 768 838 883 q 950 493 950 653 q 915 274 950 369 q 819 112 881 178 q 676 12 758 46 q 494 -22 593 -22 q 333 9 411 -22 q 193 103 254 40 q 97 259 132 165 q 61 476 61 353 l 61 549 l 814 549 l 810 415 z "},"Ӣ":{"ha":1029,"x_min":114,"x_max":910,"o":"m 910 0 l 760 0 l 760 786 l 311 0 l 114 0 l 114 986 l 264 986 l 264 182 l 719 986 l 910 986 l 910 0 m 303 1107 l 303 1225 l 689 1225 l 689 1107 l 303 1107 z "},"Ө":{"ha":1043,"x_min":61,"x_max":982,"o":"m 132 425 l 132 561 l 918 561 l 918 425 l 132 425 m 521 -22 q 275 40 378 -22 q 117 217 172 101 q 61 492 61 332 q 117 767 61 651 q 275 946 172 883 q 521 1008 378 1008 q 769 946 665 1008 q 927 767 872 883 q 982 492 982 651 q 927 217 982 332 q 769 40 872 101 q 521 -22 665 -22 m 521 115 q 685 160 617 115 q 790 288 754 204 q 826 492 826 372 q 790 696 826 611 q 685 826 754 781 q 521 871 617 871 q 358 826 426 871 q 253 696 290 781 q 217 492 217 611 q 253 288 217 372 q 358 160 290 204 q 521 115 426 115 z "},"Ӯ":{"ha":783,"x_min":28,"x_max":756,"o":"m 126 0 l 126 135 l 239 135 q 286 147 268 135 q 314 186 304 160 l 347 272 l 296 272 l 28 986 l 186 986 l 394 406 l 597 986 l 756 986 l 446 122 q 380 30 424 60 q 268 0 336 0 l 126 0 m 200 1107 l 200 1225 l 586 1225 l 586 1107 l 200 1107 z "},"а":{"ha":785,"x_min":58,"x_max":761,"o":"m 311 -17 q 127 36 196 -17 q 58 185 58 89 q 116 334 58 281 q 294 411 174 388 l 549 460 q 508 588 549 546 q 389 631 468 631 q 278 599 318 631 q 222 507 238 568 l 71 517 q 174 692 92 628 q 389 756 257 756 q 617 676 539 756 q 696 451 696 596 l 696 164 q 705 127 696 138 q 735 117 714 117 l 761 117 l 761 0 q 739 -3 754 -1 q 707 -4 724 -4 q 626 11 660 -4 q 575 62 592 26 q 558 157 558 97 l 574 150 q 526 64 563 101 q 433 5 489 26 q 311 -17 376 -17 m 335 100 q 449 126 401 100 q 522 197 496 151 q 549 301 549 243 l 549 349 l 332 307 q 238 267 265 294 q 211 199 211 240 q 244 126 211 151 q 335 100 276 100 z "},"б":{"ha":844,"x_min":61,"x_max":783,"o":"m 424 -22 q 286 4 354 -22 q 164 92 218 31 q 87 234 113 144 q 61 436 61 324 q 87 661 61 571 q 169 810 113 751 q 315 907 225 868 q 388 948 363 928 q 424 994 414 968 q 435 1060 435 1021 l 574 1061 q 539 914 574 975 q 417 813 504 853 q 328 766 368 789 q 258 709 288 743 q 213 620 228 675 q 203 476 199 565 l 172 479 q 233 585 194 542 q 326 652 272 629 q 444 675 381 675 q 623 631 547 675 q 741 510 699 588 q 783 329 783 432 q 738 142 783 222 q 612 20 693 63 q 424 -22 531 -22 m 426 106 q 533 134 486 106 q 605 213 579 163 q 631 329 631 264 q 606 442 631 393 q 538 519 582 492 q 435 547 493 547 q 324 519 372 547 q 249 442 276 492 q 219 329 221 393 q 244 213 218 264 q 318 134 271 163 q 426 106 365 106 z "},"в":{"ha":835,"x_min":104,"x_max":744,"o":"m 104 0 l 104 739 l 421 739 q 636 685 558 739 q 714 533 714 631 q 662 423 714 464 q 519 381 610 382 l 519 383 q 684 335 624 382 q 744 210 744 289 q 669 56 744 111 q 461 0 594 0 l 104 0 m 253 118 l 457 118 q 554 144 518 118 q 590 215 590 171 q 554 292 590 264 q 457 319 518 319 l 253 319 l 253 118 m 253 431 l 419 431 q 522 457 483 431 q 560 528 560 483 q 522 596 560 571 q 419 621 483 621 l 253 621 l 253 431 z "},"г":{"ha":679,"x_min":104,"x_max":636,"o":"m 104 0 l 104 739 l 636 739 l 636 618 l 176 618 l 251 683 l 251 0 l 104 0 z "},"ѓ":{"ha":679,"x_min":104,"x_max":636,"o":"m 104 0 l 104 739 l 636 739 l 636 618 l 176 618 l 251 683 l 251 0 l 104 0 m 304 828 l 392 1014 l 546 1014 l 421 828 l 304 828 z "},"ґ":{"ha":615,"x_min":104,"x_max":585,"o":"m 104 0 l 104 739 l 585 739 l 585 618 l 251 618 l 251 0 l 104 0 m 436 624 l 436 954 l 585 954 l 585 624 l 436 624 z "},"ғ":{"ha":747,"x_min":76,"x_max":689,"o":"m 76 307 l 76 426 l 521 426 l 521 307 l 76 307 m 157 0 l 157 739 l 689 739 l 689 618 l 229 618 l 304 683 l 304 0 l 157 0 z "},"д":{"ha":981,"x_min":54,"x_max":928,"o":"m 54 38 l 54 119 l 115 119 q 184 152 160 119 q 218 253 208 185 l 285 739 l 808 739 l 808 0 l 661 0 l 661 618 l 410 618 l 358 243 q 289 88 343 138 q 135 38 235 38 l 54 38 m 54 -208 l 54 93 l 201 93 l 201 -208 l 54 -208 m 57 0 l 57 119 l 869 119 l 869 0 l 57 0 m 781 -208 l 781 119 l 928 119 l 928 -208 l 781 -208 z "},"е":{"ha":800,"x_min":58,"x_max":742,"o":"m 408 -17 q 222 31 300 -17 q 101 165 143 78 q 58 369 58 253 q 101 573 58 486 q 221 708 143 660 q 404 756 299 756 q 581 709 504 756 q 699 575 657 663 q 742 364 742 488 l 742 326 l 211 326 q 269 164 217 218 q 410 110 321 110 q 518 140 475 110 q 578 222 561 171 l 731 213 q 616 47 701 110 q 408 -17 531 -17 m 211 438 l 586 438 q 530 583 579 536 q 404 631 481 631 q 274 581 325 631 q 211 438 224 532 z "},"ѐ":{"ha":800,"x_min":58,"x_max":742,"o":"m 408 -17 q 222 31 300 -17 q 101 165 143 78 q 58 369 58 253 q 101 573 58 486 q 221 708 143 660 q 404 756 299 756 q 581 709 504 756 q 699 575 657 663 q 742 364 742 488 l 742 326 l 211 326 q 269 164 217 218 q 410 110 321 110 q 518 140 475 110 q 578 222 561 171 l 731 213 q 616 47 701 110 q 408 -17 531 -17 m 211 438 l 586 438 q 530 583 579 536 q 404 631 481 631 q 274 581 325 631 q 211 438 224 532 m 358 832 l 233 1019 l 388 1019 l 475 832 l 358 832 z "},"ё":{"ha":800,"x_min":58,"x_max":742,"o":"m 408 -17 q 222 31 300 -17 q 101 165 143 78 q 58 369 58 253 q 101 573 58 486 q 221 708 143 660 q 404 756 299 756 q 581 709 504 756 q 699 575 657 663 q 742 364 742 488 l 742 326 l 211 326 q 269 164 217 218 q 410 110 321 110 q 518 140 475 110 q 578 222 561 171 l 731 213 q 616 47 701 110 q 408 -17 531 -17 m 211 438 l 586 438 q 530 583 579 536 q 404 631 481 631 q 274 581 325 631 q 211 438 224 532 m 206 842 l 206 989 l 353 989 l 353 842 l 206 842 m 465 842 l 465 989 l 614 989 l 614 842 l 465 842 z "},"ж":{"ha":1256,"x_min":65,"x_max":1190,"o":"m 65 0 l 383 369 l 569 369 l 256 0 l 65 0 m 556 0 l 556 739 l 703 739 l 703 0 l 556 0 m 1003 0 l 688 369 l 872 369 l 1190 0 l 1003 0 m 688 369 l 989 739 l 1176 739 l 872 369 l 688 369 m 383 369 l 79 739 l 269 739 l 569 369 l 383 369 z "},"з":{"ha":756,"x_min":56,"x_max":685,"o":"m 372 -17 q 208 11 279 -17 q 99 91 138 39 q 56 214 60 143 l 208 219 q 256 139 213 169 q 372 108 300 108 q 490 137 446 108 q 533 214 533 165 q 492 303 533 271 q 381 333 450 335 l 308 332 l 308 449 l 381 447 q 474 474 439 446 q 508 547 508 501 q 471 615 508 590 q 371 640 433 640 q 278 617 314 640 q 236 553 242 593 l 82 560 q 171 703 93 651 q 372 756 249 756 q 583 700 506 756 q 661 547 661 644 q 608 444 661 488 q 463 388 556 401 l 464 406 q 626 335 567 390 q 685 201 685 281 q 601 42 685 100 q 372 -17 517 -17 z "},"и":{"ha":807,"x_min":104,"x_max":701,"o":"m 104 0 l 104 739 l 251 739 l 251 219 l 546 739 l 701 739 l 701 0 l 554 0 l 554 507 l 268 0 l 104 0 z "},"й":{"ha":807,"x_min":104,"x_max":701,"o":"m 104 0 l 104 739 l 251 739 l 251 219 l 546 739 l 701 739 l 701 0 l 554 0 l 554 507 l 268 0 l 104 0 m 397 832 q 254 883 308 832 q 196 1019 200 933 l 289 1019 q 324 950 296 972 q 397 928 353 928 q 472 950 444 928 q 504 1019 500 972 l 599 1019 q 541 883 594 933 q 397 832 488 832 z "},"ѝ":{"ha":807,"x_min":104,"x_max":701,"o":"m 104 0 l 104 739 l 251 739 l 251 219 l 546 739 l 701 739 l 701 0 l 554 0 l 554 507 l 268 0 l 104 0 m 349 835 l 224 1022 l 378 1022 l 465 835 l 349 835 z "},"к":{"ha":850,"x_min":104,"x_max":785,"o":"m 592 0 l 244 369 l 428 369 l 785 0 l 592 0 m 104 0 l 104 739 l 254 739 l 254 0 l 104 0 m 244 369 l 578 739 l 768 739 l 428 369 l 244 369 z "},"ќ":{"ha":850,"x_min":104,"x_max":785,"o":"m 592 0 l 244 369 l 428 369 l 785 0 l 592 0 m 104 0 l 104 739 l 254 739 l 254 0 l 104 0 m 244 369 l 578 739 l 768 739 l 428 369 l 244 369 m 350 828 l 438 1014 l 592 1014 l 467 828 l 350 828 z "},"л":{"ha":940,"x_min":76,"x_max":836,"o":"m 76 0 l 76 132 l 136 132 q 192 158 172 132 q 217 232 211 183 l 272 739 l 836 739 l 836 0 l 689 0 l 689 618 l 406 618 l 363 206 q 307 52 353 104 q 178 0 261 0 l 76 0 z "},"м":{"ha":1013,"x_min":104,"x_max":907,"o":"m 104 0 l 104 739 l 294 739 l 507 144 l 719 739 l 907 739 l 907 0 l 760 0 l 760 482 l 579 0 l 433 0 l 251 482 l 251 0 l 104 0 z "},"н":{"ha":814,"x_min":104,"x_max":710,"o":"m 104 0 l 104 739 l 251 739 l 251 0 l 104 0 m 563 0 l 563 739 l 710 739 l 710 0 l 563 0 m 158 308 l 158 428 l 650 428 l 650 308 l 158 308 z "},"о":{"ha":817,"x_min":58,"x_max":758,"o":"m 408 -17 q 224 31 303 -17 q 101 165 144 78 q 58 369 58 253 q 101 574 58 488 q 224 708 144 660 q 408 756 303 756 q 593 708 514 756 q 715 574 672 660 q 758 369 758 488 q 715 165 758 253 q 593 31 672 78 q 408 -17 514 -17 m 408 111 q 554 180 503 111 q 606 369 606 249 q 554 559 606 490 q 408 628 503 628 q 263 559 315 628 q 211 369 211 490 q 263 180 211 249 q 408 111 315 111 z "},"п":{"ha":821,"x_min":104,"x_max":717,"o":"m 104 0 l 104 739 l 717 739 l 717 0 l 569 0 l 569 618 l 251 618 l 251 0 l 104 0 z "},"р":{"ha":844,"x_min":104,"x_max":786,"o":"m 104 -208 l 104 739 l 243 739 l 247 581 l 231 589 q 322 713 258 671 q 469 756 386 756 q 648 702 578 756 q 752 561 718 649 q 786 369 786 474 q 752 178 786 265 q 648 37 718 90 q 469 -17 578 -17 q 365 3 414 -17 q 283 58 317 22 q 235 142 249 93 l 251 158 l 251 -208 l 104 -208 m 443 111 q 583 179 532 111 q 633 369 633 247 q 583 560 633 492 q 443 628 532 628 q 342 599 385 628 q 275 513 299 571 q 251 369 251 454 q 274 226 251 285 q 341 140 297 168 q 443 111 385 111 z "},"с":{"ha":782,"x_min":58,"x_max":739,"o":"m 408 -17 q 224 31 303 -17 q 101 165 144 78 q 58 369 58 253 q 101 573 58 486 q 224 708 144 660 q 408 756 303 756 q 569 724 499 756 q 683 633 639 693 q 739 488 726 574 l 585 479 q 526 590 574 551 q 408 628 479 628 q 263 559 315 628 q 211 369 211 490 q 263 180 211 249 q 408 111 315 111 q 526 151 479 111 q 585 271 574 190 l 739 263 q 683 115 726 178 q 569 18 639 53 q 408 -17 499 -17 z "},"т":{"ha":788,"x_min":61,"x_max":731,"o":"m 322 0 l 322 618 l 61 618 l 61 739 l 731 739 l 731 618 l 471 618 l 471 0 l 322 0 z "},"у":{"ha":768,"x_min":31,"x_max":739,"o":"m 146 -208 l 146 -87 l 236 -87 q 292 -76 274 -87 q 319 -39 310 -65 l 343 22 l 297 22 l 31 739 l 186 739 l 389 158 l 582 739 l 739 739 l 444 -86 q 378 -179 422 -150 q 257 -208 335 -208 l 146 -208 z "},"ў":{"ha":768,"x_min":31,"x_max":739,"o":"m 146 -208 l 146 -87 l 236 -87 q 292 -76 274 -87 q 319 -39 310 -65 l 343 22 l 297 22 l 31 739 l 186 739 l 389 158 l 582 739 l 739 739 l 444 -86 q 378 -179 422 -150 q 257 -208 335 -208 l 146 -208 m 379 832 q 236 883 290 832 q 178 1019 182 933 l 271 1019 q 306 950 278 972 q 379 928 335 928 q 454 950 426 928 q 486 1019 482 972 l 581 1019 q 523 883 576 933 q 379 832 469 832 z "},"ф":{"ha":928,"x_min":58,"x_max":871,"o":"m 464 33 q 251 76 342 33 q 109 196 160 119 q 58 374 58 272 q 109 552 58 476 q 251 671 160 628 q 464 714 342 714 q 677 671 586 714 q 819 552 768 628 q 871 374 871 476 q 819 196 871 272 q 677 76 768 119 q 464 33 586 33 m 464 165 q 649 222 581 165 q 717 374 717 278 q 649 526 717 469 q 464 582 581 582 q 279 526 347 582 q 211 374 211 469 q 279 222 211 278 q 464 165 347 165 m 394 -210 l 394 986 l 536 986 l 536 -210 l 394 -210 z "},"х":{"ha":843,"x_min":65,"x_max":778,"o":"m 65 0 l 333 378 l 76 739 l 240 739 l 422 474 l 599 739 l 767 739 l 513 375 l 778 0 l 614 0 l 424 282 l 232 0 l 65 0 z "},"ц":{"ha":935,"x_min":104,"x_max":844,"o":"m 696 -210 l 696 119 l 844 119 l 844 -210 l 696 -210 m 563 0 l 563 119 l 726 119 l 726 0 l 563 0 m 104 739 l 251 739 l 251 121 l 569 121 l 569 739 l 717 739 l 717 0 l 104 0 l 104 739 z "},"ч":{"ha":857,"x_min":104,"x_max":753,"o":"m 604 0 l 604 403 l 628 447 q 595 332 628 383 q 508 251 563 281 q 386 221 454 221 q 181 306 257 221 q 104 535 104 390 l 104 739 l 251 739 l 251 551 q 293 403 251 458 q 406 349 335 349 q 512 374 467 349 q 581 444 557 399 q 604 553 604 490 l 604 739 l 753 739 l 753 0 l 604 0 z "},"ш":{"ha":1133,"x_min":104,"x_max":1029,"o":"m 104 0 l 104 739 l 251 739 l 251 0 l 104 0 m 104 0 l 104 119 l 1029 119 l 1029 0 l 104 0 m 494 0 l 494 739 l 640 739 l 640 0 l 494 0 m 882 0 l 882 739 l 1029 739 l 1029 0 l 882 0 z "},"щ":{"ha":1239,"x_min":104,"x_max":1163,"o":"m 1014 -210 l 1014 119 l 1163 119 l 1163 -210 l 1014 -210 m 881 0 l 881 119 l 1044 119 l 1044 0 l 881 0 m 104 0 l 104 739 l 251 739 l 251 0 l 104 0 m 104 0 l 104 119 l 1029 119 l 1029 0 l 104 0 m 494 0 l 494 739 l 640 739 l 640 0 l 494 0 m 882 0 l 882 739 l 1029 739 l 1029 0 l 882 0 z "},"џ":{"ha":821,"x_min":104,"x_max":717,"o":"m 336 -210 l 336 40 l 483 40 l 483 -210 l 336 -210 m 104 739 l 251 739 l 251 121 l 569 121 l 569 739 l 717 739 l 717 0 l 104 0 l 104 739 z "},"ь":{"ha":819,"x_min":104,"x_max":761,"o":"m 104 0 l 104 739 l 251 739 l 251 469 l 432 469 q 676 408 592 469 q 761 233 761 347 q 676 60 761 121 q 432 0 592 0 l 104 0 m 251 118 l 425 118 q 563 147 518 118 q 608 233 608 175 q 563 322 608 292 q 425 351 518 351 l 251 351 l 251 118 z "},"ы":{"ha":1139,"x_min":104,"x_max":1033,"o":"m 886 0 l 886 739 l 1033 739 l 1033 0 l 886 0 m 104 0 l 104 739 l 251 739 l 251 469 l 432 469 q 676 408 592 469 q 761 233 761 347 q 676 60 761 121 q 432 0 592 0 l 104 0 m 251 118 l 425 118 q 563 147 518 118 q 608 233 608 175 q 563 322 608 292 q 425 351 518 351 l 251 351 l 251 118 z "},"ъ":{"ha":908,"x_min":76,"x_max":851,"o":"m 76 618 l 76 739 l 315 739 l 315 618 l 76 618 m 194 0 l 194 739 l 342 739 l 342 469 l 521 469 q 767 408 682 469 q 851 233 851 347 q 767 60 851 121 q 521 0 682 0 l 194 0 m 342 118 l 515 118 q 653 147 607 118 q 699 233 699 175 q 653 322 699 292 q 515 351 607 351 l 342 351 l 342 118 z "},"љ":{"ha":1404,"x_min":76,"x_max":1346,"o":"m 689 0 l 689 739 l 836 739 l 836 469 l 1017 469 q 1261 408 1176 469 q 1346 233 1346 347 q 1261 60 1346 121 q 1017 0 1176 0 l 689 0 m 836 118 l 1010 118 q 1148 147 1103 118 q 1193 233 1193 175 q 1148 322 1193 292 q 1010 351 1103 351 l 836 351 l 836 118 m 76 0 l 76 132 l 136 132 q 192 158 172 132 q 217 232 211 183 l 272 739 l 836 739 l 836 0 l 689 0 l 689 618 l 406 618 l 363 206 q 307 52 353 104 q 178 0 261 0 l 76 0 z "},"њ":{"ha":1276,"x_min":104,"x_max":1219,"o":"m 104 0 l 104 739 l 251 739 l 251 0 l 104 0 m 115 349 l 115 469 l 693 469 l 693 349 l 115 349 m 561 0 l 561 739 l 708 739 l 708 469 l 889 469 q 1135 408 1050 469 q 1219 233 1219 347 q 1135 60 1219 121 q 889 0 1050 0 l 561 0 m 708 118 l 883 118 q 1021 147 975 118 q 1067 233 1067 175 q 1021 322 1067 292 q 883 351 975 351 l 708 351 l 708 118 z "},"ѕ":{"ha":750,"x_min":58,"x_max":692,"o":"m 389 -17 q 213 15 285 -17 q 103 103 142 47 q 58 233 64 160 l 210 240 q 263 143 221 179 q 389 107 304 107 q 499 129 458 107 q 539 200 539 151 q 526 245 539 226 q 475 277 513 264 q 364 303 438 290 q 192 351 254 324 q 103 422 129 379 q 76 526 76 465 q 152 692 76 628 q 371 756 228 756 q 532 723 467 756 q 634 635 597 690 q 681 513 671 581 l 529 504 q 502 572 522 543 q 449 616 482 600 q 369 632 415 632 q 264 604 299 632 q 229 532 229 576 q 245 478 229 499 q 297 444 261 457 q 393 421 333 431 q 574 373 508 401 q 665 303 639 344 q 692 201 692 261 q 653 83 692 132 q 546 9 614 35 q 389 -17 478 -17 z "},"є":{"ha":806,"x_min":58,"x_max":747,"o":"m 408 -17 q 224 31 303 -17 q 101 165 144 78 q 58 369 58 253 q 101 574 58 488 q 224 708 144 660 q 408 756 303 756 q 630 681 540 756 q 747 476 719 607 l 592 476 q 526 588 572 549 q 408 628 479 628 q 263 559 315 628 q 211 369 211 490 q 263 180 211 249 q 408 111 315 111 q 524 149 476 111 q 590 258 571 188 l 746 258 q 628 56 718 129 q 408 -17 539 -17 m 439 313 l 114 313 l 114 426 l 439 426 l 439 313 z "},"э":{"ha":806,"x_min":58,"x_max":747,"o":"m 396 -17 q 177 56 267 -17 q 60 258 88 129 l 215 258 q 281 149 235 188 q 396 111 328 111 q 543 180 492 111 q 594 369 594 249 q 543 559 594 490 q 396 628 492 628 q 280 588 326 628 q 214 476 233 549 l 58 476 q 176 681 86 607 q 396 756 265 756 q 582 708 503 756 q 704 574 661 660 q 747 369 747 488 q 704 165 747 253 q 582 31 661 78 q 396 -17 503 -17 m 365 313 l 365 426 l 690 426 l 690 313 l 365 313 z "},"і":{"ha":356,"x_min":101,"x_max":254,"o":"m 104 0 l 104 739 l 251 739 l 251 0 l 104 0 m 101 846 l 101 993 l 254 993 l 254 846 l 101 846 z "},"ї":{"ha":356,"x_min":-26,"x_max":382,"o":"m 104 0 l 104 739 l 251 739 l 251 0 l 104 0 m -25 844 l -25 992 l 122 992 l 122 844 l -25 844 m 235 844 l 235 992 l 383 992 l 383 844 l 235 844 z "},"ј":{"ha":394,"x_min":-6,"x_max":293,"o":"m -6 -208 l -6 -87 l 61 -87 q 120 -71 99 -87 q 142 -7 142 -54 l 142 739 l 290 739 l 290 -12 q 242 -163 290 -118 q 83 -208 194 -208 l -6 -208 m 140 846 l 140 993 l 293 993 l 293 846 l 140 846 z "},"ћ":{"ha":821,"x_min":8,"x_max":717,"o":"m 104 0 l 104 986 l 251 986 l 251 572 l 233 575 q 279 677 246 638 q 361 736 313 717 q 468 756 410 756 q 604 720 549 756 q 688 621 660 685 q 717 475 717 557 l 717 0 l 569 0 l 569 436 q 535 584 569 536 q 429 632 501 632 q 300 581 349 632 q 251 433 251 531 l 251 0 l 104 0 m 8 806 l 8 910 l 447 910 l 447 806 l 8 806 z "},"ю":{"ha":1122,"x_min":104,"x_max":1065,"o":"m 104 0 l 104 739 l 251 739 l 251 0 l 104 0 m 176 310 l 176 429 l 453 429 l 453 310 l 176 310 m 715 -17 q 531 31 610 -17 q 408 165 451 78 q 364 369 364 253 q 408 574 364 488 q 531 708 451 660 q 715 756 610 756 q 899 708 821 756 q 1022 574 978 660 q 1065 369 1065 488 q 1022 165 1065 253 q 899 31 978 78 q 715 -17 821 -17 m 715 111 q 860 180 808 111 q 913 369 913 249 q 860 559 913 490 q 715 628 808 628 q 569 559 621 628 q 517 369 517 490 q 569 180 517 249 q 715 111 621 111 z "},"я":{"ha":835,"x_min":104,"x_max":731,"o":"m 104 0 l 282 304 q 163 388 206 335 q 121 513 121 442 q 200 681 121 622 q 428 739 279 739 l 731 739 l 731 0 l 583 0 l 583 279 l 429 279 l 267 0 l 104 0 m 428 396 l 583 396 l 583 622 l 428 622 q 315 593 356 622 q 275 510 275 564 q 315 426 275 456 q 428 396 356 396 z "},"ђ":{"ha":872,"x_min":76,"x_max":768,"o":"m 156 0 l 156 990 l 303 990 l 303 572 l 282 581 q 332 682 297 643 q 416 738 367 721 q 519 756 465 756 q 651 721 596 756 q 738 624 707 686 q 768 475 768 561 l 768 19 l 621 19 l 621 422 q 586 574 621 524 q 478 625 551 625 q 350 573 397 625 q 303 422 303 521 l 303 0 l 156 0 m 485 -208 l 485 -87 l 539 -87 q 582 -76 564 -87 q 610 -42 600 -64 q 621 10 621 -19 l 621 333 l 768 333 l 768 10 q 717 -150 768 -92 q 561 -208 665 -208 l 485 -208 m 76 810 l 76 918 l 461 918 l 461 810 l 76 810 z "},"ѣ":{"ha":949,"x_min":76,"x_max":892,"o":"m 233 0 l 233 990 l 381 990 l 381 497 l 561 497 q 806 433 719 497 q 892 247 892 368 q 806 64 892 128 q 561 0 719 0 l 233 0 m 381 118 l 556 118 q 690 151 643 118 q 738 247 738 185 q 690 344 738 310 q 556 379 643 379 l 381 379 l 381 118 m 76 738 l 76 856 l 538 856 l 538 738 l 76 738 z "},"ѫ":{"ha":1003,"x_min":65,"x_max":939,"o":"m 65 0 l 196 290 q 267 372 219 344 q 371 400 315 400 l 632 400 q 737 372 689 400 q 808 290 785 344 l 939 0 l 781 0 l 682 240 q 647 288 668 275 q 592 300 626 300 l 411 300 q 356 288 378 300 q 322 240 335 275 l 222 0 l 65 0 m 429 0 l 429 400 l 574 400 l 574 0 l 429 0 m 417 325 l 133 621 l 293 621 l 578 325 l 417 325 m 428 325 l 713 621 l 872 621 l 588 325 l 428 325 m 133 621 l 133 739 l 872 739 l 872 621 l 133 621 z "},"ѳ":{"ha":817,"x_min":58,"x_max":758,"o":"m 131 279 l 121 415 q 178 449 151 438 q 232 463 204 461 q 310 460 267 467 q 394 436 354 454 q 472 402 442 414 q 522 385 503 390 q 557 380 542 381 q 590 381 572 379 q 646 398 619 383 q 696 439 672 413 l 704 306 q 656 275 679 288 q 607 263 632 263 q 560 263 583 261 q 502 276 538 265 q 403 315 467 288 q 321 341 361 335 q 249 346 281 347 q 188 325 218 343 q 131 279 157 307 m 408 -17 q 224 31 303 -17 q 101 165 144 78 q 58 369 58 253 q 101 574 58 488 q 224 708 144 660 q 408 756 303 756 q 593 708 514 756 q 715 574 672 660 q 758 369 758 488 q 715 165 758 253 q 593 31 672 78 q 408 -17 514 -17 m 408 111 q 554 180 503 111 q 606 369 606 249 q 554 559 606 490 q 408 628 503 628 q 263 559 315 628 q 211 369 211 490 q 263 180 211 249 q 408 111 315 111 z "},"ѵ":{"ha":840,"x_min":31,"x_max":810,"o":"m 300 0 l 31 739 l 185 739 l 389 151 l 529 558 q 622 693 560 647 q 769 739 685 739 l 810 739 l 810 618 l 796 618 q 718 593 750 618 q 667 518 686 568 l 478 0 l 300 0 z "},"җ":{"ha":1269,"x_min":65,"x_max":1204,"o":"m 1057 -210 l 1057 103 l 1204 103 l 1204 -210 l 1057 -210 m 65 0 l 383 369 l 569 369 l 256 0 l 65 0 m 556 0 l 556 739 l 703 739 l 703 0 l 556 0 m 1003 0 l 688 369 l 872 369 l 1190 0 l 1003 0 m 688 369 l 989 739 l 1176 739 l 872 369 l 688 369 m 383 369 l 79 739 l 269 739 l 569 369 l 383 369 z "},"қ":{"ha":871,"x_min":104,"x_max":806,"o":"m 658 -210 l 658 103 l 806 103 l 806 -210 l 658 -210 m 592 0 l 244 369 l 428 369 l 785 0 l 592 0 m 104 0 l 104 739 l 254 739 l 254 0 l 104 0 m 244 369 l 578 739 l 768 739 l 428 369 l 244 369 z "},"ң":{"ha":929,"x_min":104,"x_max":825,"o":"m 678 -210 l 678 103 l 825 103 l 825 -210 l 678 -210 m 104 0 l 104 739 l 251 739 l 251 0 l 104 0 m 563 0 l 563 739 l 710 739 l 710 0 l 563 0 m 158 308 l 158 428 l 650 428 l 650 308 l 158 308 z "},"ү":{"ha":778,"x_min":31,"x_max":749,"o":"m 315 0 l 31 739 l 185 739 l 389 165 l 593 739 l 749 739 l 463 0 l 315 0 m 315 -208 l 315 81 l 463 81 l 463 -208 l 315 -208 z "},"ұ":{"ha":778,"x_min":31,"x_max":749,"o":"m 153 -60 l 153 60 l 626 60 l 626 -60 l 153 -60 m 315 0 l 31 739 l 185 739 l 389 165 l 593 739 l 749 739 l 463 0 l 315 0 m 315 -208 l 315 81 l 463 81 l 463 -208 l 315 -208 z "},"ҳ":{"ha":892,"x_min":65,"x_max":826,"o":"m 679 -210 l 679 103 l 826 103 l 826 -210 l 679 -210 m 65 0 l 333 378 l 76 739 l 240 739 l 422 474 l 599 739 l 767 739 l 513 375 l 778 0 l 614 0 l 424 282 l 232 0 l 65 0 z "},"ҷ":{"ha":949,"x_min":104,"x_max":865,"o":"m 718 -208 l 718 103 l 865 103 l 865 -208 l 718 -208 m 604 0 l 604 403 l 628 447 q 595 332 628 383 q 508 251 563 281 q 386 221 454 221 q 181 306 257 221 q 104 535 104 390 l 104 739 l 251 739 l 251 551 q 293 403 251 458 q 406 349 335 349 q 512 374 467 349 q 581 444 557 399 q 604 553 604 490 l 604 739 l 753 739 l 753 0 l 604 0 z "},"һ":{"ha":821,"x_min":104,"x_max":717,"o":"m 104 0 l 104 986 l 251 986 l 251 572 l 233 575 q 279 677 246 638 q 361 736 313 717 q 468 756 410 756 q 604 720 549 756 q 688 621 660 685 q 717 475 717 557 l 717 0 l 569 0 l 569 436 q 535 584 569 536 q 429 632 501 632 q 300 581 349 632 q 251 433 251 531 l 251 0 l 104 0 z "},"ӏ":{"ha":386,"x_min":119,"x_max":267,"o":"m 119 0 l 119 986 l 267 986 l 267 0 l 119 0 z "},"ә":{"ha":800,"x_min":58,"x_max":742,"o":"m 392 756 q 578 708 499 756 q 699 573 657 660 q 742 369 742 486 q 699 166 742 253 q 579 31 657 79 q 396 -17 501 -17 q 219 30 296 -17 q 101 164 143 76 q 58 375 58 251 l 58 413 l 589 413 q 531 575 583 521 q 390 629 479 629 q 283 599 325 629 q 222 517 240 569 l 68 526 q 184 692 99 629 q 392 756 269 756 m 589 301 l 214 301 q 271 156 221 204 q 396 108 321 108 q 526 158 475 108 q 589 301 576 208 z "},"ӣ":{"ha":807,"x_min":104,"x_max":701,"o":"m 104 0 l 104 739 l 251 739 l 251 219 l 546 739 l 701 739 l 701 0 l 554 0 l 554 507 l 268 0 l 104 0 m 211 860 l 211 978 l 597 978 l 597 860 l 211 860 z "},"ө":{"ha":821,"x_min":54,"x_max":756,"o":"m 140 310 l 140 429 l 678 429 l 678 310 l 140 310 m 406 -17 q 221 31 300 -17 q 98 165 142 78 q 54 369 54 253 q 98 574 54 488 q 221 708 142 660 q 406 756 300 756 q 590 708 511 756 q 712 574 668 660 q 756 369 756 488 q 712 165 756 253 q 590 31 668 78 q 406 -17 511 -17 m 406 111 q 551 180 499 111 q 603 369 603 249 q 551 559 603 490 q 406 628 499 628 q 259 559 311 628 q 207 369 207 490 q 259 180 207 249 q 406 111 311 111 z "},"ӯ":{"ha":768,"x_min":31,"x_max":739,"o":"m 146 -208 l 146 -87 l 236 -87 q 292 -76 274 -87 q 319 -39 310 -65 l 343 22 l 297 22 l 31 739 l 186 739 l 389 158 l 582 739 l 739 739 l 444 -86 q 378 -179 422 -150 q 257 -208 335 -208 l 146 -208 m 190 860 l 190 978 l 576 978 l 576 860 l 190 860 z "},"Λ":{"ha":953,"x_min":28,"x_max":925,"o":"m 28 0 l 383 986 l 569 986 l 925 0 l 767 0 l 476 843 l 185 0 l 28 0 z "},"Ω":{"ha":1032,"x_min":61,"x_max":971,"o":"m 64 0 l 64 138 l 254 136 q 152 228 196 172 q 85 358 108 285 q 61 519 61 432 q 93 717 61 628 q 184 872 125 807 q 327 973 243 938 q 515 1008 411 1008 q 758 947 656 1008 q 915 775 860 885 q 971 519 971 665 q 947 358 971 432 q 881 228 924 285 q 779 136 838 172 l 969 138 l 969 0 l 581 0 l 581 138 q 701 188 647 139 q 785 321 754 238 q 817 506 817 404 q 781 701 817 619 q 678 827 746 783 q 515 871 611 871 q 354 827 421 871 q 252 701 288 783 q 217 506 217 619 q 248 321 217 404 q 332 188 279 238 q 450 138 385 139 l 450 0 l 64 0 z "},"λ":{"ha":824,"x_min":28,"x_max":796,"o":"m 729 0 q 654 10 686 0 q 599 44 622 21 q 556 104 576 68 q 515 190 536 140 l 279 783 q 246 846 263 825 q 189 867 229 867 l 115 867 l 115 986 l 203 986 q 301 966 263 986 q 369 904 340 946 q 425 796 399 863 l 661 201 q 681 158 671 176 q 707 129 692 139 q 747 119 722 119 l 796 119 l 796 0 l 729 0 m 28 0 l 322 728 l 439 649 l 181 0 l 28 0 z "},"π":{"ha":917,"x_min":69,"x_max":872,"o":"m 822 0 q 651 58 704 0 q 597 217 597 117 l 597 693 l 732 693 l 732 217 q 756 147 732 172 q 825 121 779 121 l 869 121 l 869 0 l 822 0 m 217 0 l 217 689 l 351 689 l 351 0 l 217 0 m 69 618 l 69 739 l 872 739 l 872 618 l 69 618 z "},"ℇ":{"ha":825,"x_min":54,"x_max":772,"o":"m 413 -22 q 224 15 306 -22 q 99 119 143 53 q 54 272 54 186 q 84 400 54 344 q 173 492 114 456 q 317 543 232 529 l 318 519 q 192 562 243 532 q 114 640 140 592 q 88 750 88 688 q 128 885 88 826 q 243 976 169 943 q 413 1008 317 1008 q 536 991 475 1008 q 651 942 597 974 q 742 871 704 911 l 653 763 q 544 849 610 815 q 415 883 478 883 q 315 866 357 883 q 251 818 274 849 q 228 744 228 788 q 256 650 228 686 q 328 598 285 614 q 415 582 372 582 l 486 583 l 486 461 l 415 463 q 299 442 349 464 q 222 379 249 419 q 194 283 194 339 q 222 190 194 231 q 299 126 249 149 q 415 103 349 103 q 511 119 461 103 q 608 167 561 136 q 688 238 654 197 l 772 126 q 678 50 736 83 q 551 -3 621 17 q 413 -22 482 -22 z "},"⓿":{"ha":1140,"x_min":58,"x_max":1083,"o":"m 574 211 q 738 286 678 211 q 799 492 799 361 q 738 697 799 622 q 574 771 678 771 q 410 697 471 771 q 349 492 349 622 q 410 286 349 361 q 574 211 472 211 m 574 303 q 515 324 540 303 l 679 593 q 692 492 692 551 q 662 350 692 397 q 574 303 632 303 m 471 393 q 459 439 463 414 q 456 492 456 464 q 485 633 456 588 q 574 679 515 679 q 633 663 608 679 l 471 393 m 571 -17 q 372 23 465 -17 q 208 133 279 63 q 98 297 138 204 q 58 497 58 390 q 98 695 58 603 q 208 858 138 788 q 372 969 279 929 q 571 1008 465 1008 q 770 969 678 1008 q 933 858 863 929 q 1044 695 1004 788 q 1083 497 1083 603 q 1044 297 1083 390 q 933 133 1004 204 q 770 23 863 63 q 571 -17 678 -17 z "},"❶":{"ha":1140,"x_min":58,"x_max":1083,"o":"m 547 222 l 654 222 l 654 761 l 571 761 q 540 672 571 704 q 446 640 508 640 l 411 640 l 411 560 l 547 561 l 547 222 m 571 -17 q 372 23 465 -17 q 208 133 279 63 q 98 297 138 204 q 58 497 58 390 q 98 695 58 603 q 208 858 138 788 q 372 969 279 929 q 571 1008 465 1008 q 770 969 678 1008 q 933 858 863 929 q 1044 695 1004 788 q 1083 497 1083 603 q 1044 297 1083 390 q 933 133 1004 204 q 770 23 863 63 q 571 -17 678 -17 z "},"❷":{"ha":1140,"x_min":58,"x_max":1083,"o":"m 386 222 l 765 222 l 765 314 l 503 314 q 519 363 503 338 q 576 408 536 388 l 636 439 q 732 508 697 469 q 767 613 767 547 q 719 727 767 683 q 585 771 672 771 q 445 724 496 771 q 386 594 394 676 l 486 590 q 517 660 493 638 q 586 682 540 682 q 642 663 619 682 q 664 611 664 644 q 658 572 664 588 q 637 543 651 556 q 597 517 622 531 l 526 479 q 436 412 467 447 q 396 331 406 376 q 386 222 386 286 m 571 -17 q 372 23 465 -17 q 208 133 279 63 q 98 297 138 204 q 58 497 58 390 q 98 695 58 603 q 208 858 138 788 q 372 969 279 929 q 571 1008 465 1008 q 770 969 678 1008 q 933 858 863 929 q 1044 695 1004 788 q 1083 497 1083 603 q 1044 297 1083 390 q 933 133 1004 204 q 770 23 863 63 q 571 -17 678 -17 z "},"❸":{"ha":1140,"x_min":58,"x_max":1083,"o":"m 578 211 q 726 256 669 211 q 782 375 782 300 q 756 458 782 422 q 661 508 729 493 q 732 549 707 521 q 757 625 757 576 q 711 730 757 689 q 571 771 665 771 q 436 729 483 771 q 381 622 389 688 l 485 615 q 509 662 488 643 q 571 681 531 681 q 632 661 613 681 q 651 611 651 642 q 629 562 651 579 q 571 544 607 544 l 533 544 l 533 460 l 571 460 q 651 438 626 460 q 676 379 676 415 q 651 321 676 342 q 578 300 625 300 q 503 319 526 300 q 478 369 481 339 l 372 365 q 396 284 376 319 q 458 230 415 249 q 578 211 501 211 m 571 -17 q 372 23 465 -17 q 208 133 279 63 q 98 297 138 204 q 58 497 58 390 q 98 695 58 603 q 208 858 138 788 q 372 969 279 929 q 571 1008 465 1008 q 770 969 678 1008 q 933 858 863 929 q 1044 695 1004 788 q 1083 497 1083 603 q 1044 297 1083 390 q 933 133 1004 204 q 770 23 863 63 q 571 -17 678 -17 z "},"❹":{"ha":1140,"x_min":58,"x_max":1083,"o":"m 588 222 l 693 222 l 693 340 l 767 340 l 767 431 l 693 431 l 693 760 l 586 760 l 336 421 l 336 340 l 588 340 l 588 222 m 443 431 l 588 617 l 588 431 l 443 431 m 571 -17 q 372 23 465 -17 q 208 133 279 63 q 98 297 138 204 q 58 497 58 390 q 98 695 58 603 q 208 858 138 788 q 372 969 279 929 q 571 1008 465 1008 q 770 969 678 1008 q 933 858 863 929 q 1044 695 1004 788 q 1083 497 1083 603 q 1044 297 1083 390 q 933 133 1004 204 q 770 23 863 63 q 571 -17 678 -17 z "},"❺":{"ha":1140,"x_min":58,"x_max":1083,"o":"m 569 211 q 719 261 665 211 q 774 399 774 311 q 731 528 774 476 q 601 579 689 579 q 541 570 567 579 q 499 543 515 561 l 513 671 l 739 671 l 739 760 l 425 760 l 385 446 l 485 446 q 522 483 499 469 q 581 497 544 497 q 647 469 625 497 q 669 399 669 440 q 644 326 669 351 q 571 300 618 300 q 510 315 533 300 q 479 361 488 331 l 375 356 q 432 249 382 288 q 569 211 482 211 m 571 -17 q 372 23 465 -17 q 208 133 279 63 q 98 297 138 204 q 58 497 58 390 q 98 695 58 603 q 208 858 138 788 q 372 969 279 929 q 571 1008 465 1008 q 770 969 678 1008 q 933 858 863 929 q 1044 695 1004 788 q 1083 497 1083 603 q 1044 297 1083 390 q 933 133 1004 204 q 770 23 863 63 q 571 -17 678 -17 z "},"❻":{"ha":1140,"x_min":58,"x_max":1083,"o":"m 581 211 q 731 261 672 211 q 790 401 790 311 q 736 542 790 496 q 599 589 682 589 q 524 574 556 589 q 478 535 493 558 q 515 644 483 606 q 599 683 546 683 q 658 669 638 683 q 686 626 679 656 l 785 636 q 727 737 771 703 q 600 771 683 771 q 469 730 519 771 q 396 619 419 689 q 372 464 372 550 q 429 275 372 339 q 581 211 486 211 m 583 300 q 507 328 535 300 q 481 404 479 357 q 494 458 482 436 q 531 492 507 481 q 583 504 554 504 q 662 478 635 504 q 689 404 689 451 q 661 328 689 357 q 583 300 633 300 m 571 -17 q 372 23 465 -17 q 208 133 279 63 q 98 297 138 204 q 58 497 58 390 q 98 695 58 603 q 208 858 138 788 q 372 969 279 929 q 571 1008 465 1008 q 770 969 678 1008 q 933 858 863 929 q 1044 695 1004 788 q 1083 497 1083 603 q 1044 297 1083 390 q 933 133 1004 204 q 770 23 863 63 q 571 -17 678 -17 z "},"❼":{"ha":1140,"x_min":58,"x_max":1083,"o":"m 493 222 l 597 222 q 617 397 597 317 q 675 547 638 476 q 767 686 713 618 l 767 761 l 397 761 l 397 669 l 650 669 q 565 532 600 604 q 512 382 531 460 q 493 222 493 304 m 571 -17 q 372 23 465 -17 q 208 133 279 63 q 98 297 138 204 q 58 497 58 390 q 98 695 58 603 q 208 858 138 788 q 372 969 279 929 q 571 1008 465 1008 q 770 969 678 1008 q 933 858 863 929 q 1044 695 1004 788 q 1083 497 1083 603 q 1044 297 1083 390 q 933 133 1004 204 q 770 23 863 63 q 571 -17 678 -17 z "},"❽":{"ha":1140,"x_min":58,"x_max":1083,"o":"m 576 211 q 734 253 682 211 q 786 367 786 294 q 756 454 786 417 q 672 513 725 492 q 738 553 714 526 q 761 632 761 581 q 715 734 761 697 q 576 771 669 771 q 438 734 483 771 q 392 632 392 697 q 415 553 392 581 q 481 513 439 526 q 397 455 426 493 q 367 367 367 417 q 419 253 367 294 q 576 211 471 211 m 576 300 q 501 319 528 300 q 474 376 474 338 q 501 440 474 414 q 576 465 528 465 q 653 440 626 465 q 679 376 679 414 q 653 319 679 338 q 576 300 626 300 m 576 550 q 518 567 539 550 q 497 619 497 585 q 517 666 497 650 q 576 682 538 682 q 635 666 615 682 q 656 619 656 650 q 635 567 656 585 q 576 550 614 550 m 571 -17 q 372 23 465 -17 q 208 133 279 63 q 98 297 138 204 q 58 497 58 390 q 98 695 58 603 q 208 858 138 788 q 372 969 279 929 q 571 1008 465 1008 q 770 969 678 1008 q 933 858 863 929 q 1044 695 1004 788 q 1083 497 1083 603 q 1044 297 1083 390 q 933 133 1004 204 q 770 23 863 63 q 571 -17 678 -17 z "},"❾":{"ha":1140,"x_min":58,"x_max":1083,"o":"m 578 771 q 428 721 486 771 q 369 581 369 671 q 423 440 369 486 q 561 393 476 393 q 636 409 606 393 q 681 447 667 425 q 644 338 676 376 q 561 299 613 299 q 501 313 522 299 q 472 356 479 328 l 374 346 q 432 245 389 279 q 560 211 475 211 q 690 252 639 211 q 763 363 740 293 q 786 518 786 432 q 730 707 786 643 q 578 771 674 771 m 576 682 q 653 653 625 682 q 679 578 681 625 q 665 524 679 546 q 628 490 651 501 q 575 478 606 478 q 497 504 524 478 q 471 578 471 531 q 499 653 471 625 q 576 682 526 682 m 571 -17 q 372 23 465 -17 q 208 133 279 63 q 98 297 138 204 q 58 497 58 390 q 98 695 58 603 q 208 858 138 788 q 372 969 279 929 q 571 1008 465 1008 q 770 969 678 1008 q 933 858 863 929 q 1044 695 1004 788 q 1083 497 1083 603 q 1044 297 1083 390 q 933 133 1004 204 q 770 23 863 63 q 571 -17 678 -17 z "},"⓪":{"ha":1156,"x_min":58,"x_max":1099,"o":"m 576 -24 q 376 17 469 -24 q 210 128 282 57 q 98 294 138 200 q 58 497 58 389 q 98 698 58 604 q 210 863 138 792 q 376 975 282 935 q 576 1015 469 1015 q 779 975 685 1015 q 945 863 874 935 q 1058 698 1017 792 q 1099 497 1099 604 q 1058 294 1099 389 q 945 128 1017 200 q 779 17 874 57 q 576 -24 685 -24 m 576 85 q 738 116 663 85 q 870 204 814 147 q 958 336 926 261 q 989 497 989 411 q 958 658 989 583 q 870 788 926 732 q 738 876 814 844 q 576 907 663 907 q 415 876 490 907 q 285 788 340 844 q 197 658 229 732 q 165 497 165 583 q 197 336 165 411 q 285 204 229 261 q 415 116 340 147 q 576 85 490 85 m 581 211 q 417 286 478 211 q 356 492 356 361 q 416 697 356 622 q 581 771 476 771 q 744 697 683 771 q 806 492 806 622 q 744 286 806 361 q 581 211 683 211 m 581 303 q 669 350 639 303 q 699 492 699 397 q 668 631 699 583 q 581 679 638 679 q 492 633 522 679 q 463 492 463 588 q 494 354 463 406 q 581 303 526 303 m 506 297 l 461 368 l 656 689 l 700 619 l 506 297 z "},"①":{"ha":1156,"x_min":58,"x_max":1099,"o":"m 576 -24 q 376 17 469 -24 q 210 128 282 57 q 98 294 138 200 q 58 497 58 389 q 98 698 58 604 q 210 863 138 792 q 376 975 282 935 q 576 1015 469 1015 q 779 975 685 1015 q 945 863 874 935 q 1058 698 1017 792 q 1099 497 1099 604 q 1058 294 1099 389 q 945 128 1017 200 q 779 17 874 57 q 576 -24 685 -24 m 576 85 q 738 116 663 85 q 870 204 814 147 q 958 336 926 261 q 989 497 989 411 q 958 658 989 583 q 870 788 926 732 q 738 876 814 844 q 576 907 663 907 q 415 876 490 907 q 285 788 340 844 q 197 658 229 732 q 165 497 165 583 q 197 336 165 411 q 285 204 229 261 q 415 116 340 147 q 576 85 490 85 m 550 222 l 550 561 l 414 560 l 414 640 l 449 640 q 543 672 511 640 q 575 761 575 704 l 657 761 l 657 222 l 550 222 z "},"②":{"ha":1156,"x_min":58,"x_max":1099,"o":"m 576 -24 q 376 17 469 -24 q 210 128 282 57 q 98 294 138 200 q 58 497 58 389 q 98 698 58 604 q 210 863 138 792 q 376 975 282 935 q 576 1015 469 1015 q 779 975 685 1015 q 945 863 874 935 q 1058 698 1017 792 q 1099 497 1099 604 q 1058 294 1099 389 q 945 128 1017 200 q 779 17 874 57 q 576 -24 685 -24 m 576 85 q 738 116 663 85 q 870 204 814 147 q 958 336 926 261 q 989 497 989 411 q 958 658 989 583 q 870 788 926 732 q 738 876 814 844 q 576 907 663 907 q 415 876 490 907 q 285 788 340 844 q 197 658 229 732 q 165 497 165 583 q 197 336 165 411 q 285 204 229 261 q 415 116 340 147 q 576 85 490 85 m 390 222 q 400 331 390 286 q 440 412 410 376 q 531 479 471 447 l 601 517 q 641 543 626 531 q 662 572 656 556 q 668 611 668 588 q 646 663 668 644 q 590 682 624 682 q 521 660 544 682 q 490 590 497 638 l 390 594 q 449 724 399 676 q 589 771 500 771 q 724 727 676 771 q 771 613 771 683 q 736 508 771 547 q 640 439 701 469 l 581 408 q 524 363 540 388 q 507 314 507 338 l 769 314 l 769 222 l 390 222 z "},"③":{"ha":1156,"x_min":58,"x_max":1099,"o":"m 576 -24 q 376 17 469 -24 q 210 128 282 57 q 98 294 138 200 q 58 497 58 389 q 98 698 58 604 q 210 863 138 792 q 376 975 282 935 q 576 1015 469 1015 q 779 975 685 1015 q 945 863 874 935 q 1058 698 1017 792 q 1099 497 1099 604 q 1058 294 1099 389 q 945 128 1017 200 q 779 17 874 57 q 576 -24 685 -24 m 576 85 q 738 116 663 85 q 870 204 814 147 q 958 336 926 261 q 989 497 989 411 q 958 658 989 583 q 870 788 926 732 q 738 876 814 844 q 576 907 663 907 q 415 876 490 907 q 285 788 340 844 q 197 658 229 732 q 165 497 165 583 q 197 336 165 411 q 285 204 229 261 q 415 116 340 147 q 576 85 490 85 m 581 211 q 462 230 506 211 q 399 284 418 249 q 376 365 379 319 l 481 369 q 506 319 483 339 q 581 300 529 300 q 653 321 628 300 q 679 379 679 342 q 654 438 679 415 q 575 460 629 460 l 538 460 l 538 544 l 575 544 q 633 562 611 544 q 656 611 656 579 q 636 661 656 642 q 574 681 617 681 q 513 662 535 681 q 488 615 490 643 l 383 622 q 439 729 392 688 q 574 771 486 771 q 715 730 669 771 q 760 625 760 689 q 735 549 760 576 q 664 508 711 521 q 758 458 732 493 q 785 375 785 422 q 729 256 785 300 q 581 211 674 211 z "},"④":{"ha":1156,"x_min":58,"x_max":1099,"o":"m 576 -24 q 376 17 469 -24 q 210 128 282 57 q 98 294 138 200 q 58 497 58 389 q 98 698 58 604 q 210 863 138 792 q 376 975 282 935 q 576 1015 469 1015 q 779 975 685 1015 q 945 863 874 935 q 1058 698 1017 792 q 1099 497 1099 604 q 1058 294 1099 389 q 945 128 1017 200 q 779 17 874 57 q 576 -24 685 -24 m 576 85 q 738 116 663 85 q 870 204 814 147 q 958 336 926 261 q 989 497 989 411 q 958 658 989 583 q 870 788 926 732 q 738 876 814 844 q 576 907 663 907 q 415 876 490 907 q 285 788 340 844 q 197 658 229 732 q 165 497 165 583 q 197 336 165 411 q 285 204 229 261 q 415 116 340 147 q 576 85 490 85 m 592 222 l 592 340 l 340 340 l 340 421 l 590 760 l 699 760 l 699 431 l 771 431 l 771 340 l 699 340 l 699 222 l 592 222 m 449 431 l 592 431 l 592 617 l 449 431 z "},"⑤":{"ha":1156,"x_min":58,"x_max":1099,"o":"m 576 -24 q 376 17 469 -24 q 210 128 282 57 q 98 294 138 200 q 58 497 58 389 q 98 698 58 604 q 210 863 138 792 q 376 975 282 935 q 576 1015 469 1015 q 779 975 685 1015 q 945 863 874 935 q 1058 698 1017 792 q 1099 497 1099 604 q 1058 294 1099 389 q 945 128 1017 200 q 779 17 874 57 q 576 -24 685 -24 m 576 85 q 738 116 663 85 q 870 204 814 147 q 958 336 926 261 q 989 497 989 411 q 958 658 989 583 q 870 788 926 732 q 738 876 814 844 q 576 907 663 907 q 415 876 490 907 q 285 788 340 844 q 197 658 229 732 q 165 497 165 583 q 197 336 165 411 q 285 204 229 261 q 415 116 340 147 q 576 85 490 85 m 576 211 q 439 249 489 211 q 382 356 389 288 l 486 361 q 516 315 493 331 q 578 300 539 300 q 651 326 625 300 q 676 399 676 351 q 654 469 676 440 q 588 497 632 497 q 528 483 551 497 q 490 446 506 469 l 392 446 l 432 760 l 746 760 l 746 671 l 519 671 l 506 543 q 547 570 521 561 q 608 579 574 579 q 738 528 696 579 q 781 399 781 476 q 726 261 781 311 q 576 211 672 211 z "},"⑥":{"ha":1156,"x_min":58,"x_max":1099,"o":"m 576 -24 q 376 17 469 -24 q 210 128 282 57 q 98 294 138 200 q 58 497 58 389 q 98 698 58 604 q 210 863 138 792 q 376 975 282 935 q 576 1015 469 1015 q 779 975 685 1015 q 945 863 874 935 q 1058 698 1017 792 q 1099 497 1099 604 q 1058 294 1099 389 q 945 128 1017 200 q 779 17 874 57 q 576 -24 685 -24 m 576 85 q 738 116 663 85 q 870 204 814 147 q 958 336 926 261 q 989 497 989 411 q 958 658 989 583 q 870 788 926 732 q 738 876 814 844 q 576 907 663 907 q 415 876 490 907 q 285 788 340 844 q 197 658 229 732 q 165 497 165 583 q 197 336 165 411 q 285 204 229 261 q 415 116 340 147 q 576 85 490 85 m 581 211 q 429 275 486 211 q 372 464 372 339 q 395 619 372 550 q 469 730 418 689 q 599 771 519 771 q 726 737 683 771 q 785 636 769 703 l 686 626 q 658 669 679 656 q 597 683 636 683 q 514 644 546 683 q 478 535 482 606 q 524 574 493 558 q 597 589 554 589 q 735 542 682 589 q 789 401 789 496 q 731 261 789 311 q 581 211 672 211 m 582 300 q 660 328 632 300 q 688 404 688 357 q 661 478 688 451 q 583 504 635 504 q 531 492 554 504 q 494 458 507 481 q 479 404 481 436 q 506 328 478 357 q 582 300 535 300 z "},"⑦":{"ha":1156,"x_min":58,"x_max":1099,"o":"m 576 -24 q 376 17 469 -24 q 210 128 282 57 q 98 294 138 200 q 58 497 58 389 q 98 698 58 604 q 210 863 138 792 q 376 975 282 935 q 576 1015 469 1015 q 779 975 685 1015 q 945 863 874 935 q 1058 698 1017 792 q 1099 497 1099 604 q 1058 294 1099 389 q 945 128 1017 200 q 779 17 874 57 q 576 -24 685 -24 m 576 85 q 738 116 663 85 q 870 204 814 147 q 958 336 926 261 q 989 497 989 411 q 958 658 989 583 q 870 788 926 732 q 738 876 814 844 q 576 907 663 907 q 415 876 490 907 q 285 788 340 844 q 197 658 229 732 q 165 497 165 583 q 197 336 165 411 q 285 204 229 261 q 415 116 340 147 q 576 85 490 85 m 492 222 q 510 382 492 304 q 565 532 529 460 q 650 669 600 604 l 397 669 l 397 761 l 765 761 l 765 686 q 674 547 711 618 q 617 397 636 476 q 597 222 597 317 l 492 222 z "},"⑧":{"ha":1156,"x_min":58,"x_max":1099,"o":"m 576 -24 q 376 17 469 -24 q 210 128 282 57 q 98 294 138 200 q 58 497 58 389 q 98 698 58 604 q 210 863 138 792 q 376 975 282 935 q 576 1015 469 1015 q 779 975 685 1015 q 945 863 874 935 q 1058 698 1017 792 q 1099 497 1099 604 q 1058 294 1099 389 q 945 128 1017 200 q 779 17 874 57 q 576 -24 685 -24 m 576 85 q 738 116 663 85 q 870 204 814 147 q 958 336 926 261 q 989 497 989 411 q 958 658 989 583 q 870 788 926 732 q 738 876 814 844 q 576 907 663 907 q 415 876 490 907 q 285 788 340 844 q 197 658 229 732 q 165 497 165 583 q 197 336 165 411 q 285 204 229 261 q 415 116 340 147 q 576 85 490 85 m 581 211 q 423 253 475 211 q 371 367 371 294 q 401 455 371 417 q 485 513 431 493 q 419 553 443 526 q 396 632 396 581 q 442 734 396 697 q 581 771 488 771 q 719 734 674 771 q 765 632 765 697 q 742 553 765 581 q 676 513 718 526 q 760 454 729 492 q 790 367 790 417 q 738 253 790 294 q 581 211 686 211 m 581 300 q 657 319 631 300 q 683 376 683 338 q 657 440 683 414 q 581 465 631 465 q 505 440 532 465 q 478 376 478 414 q 505 319 478 338 q 581 300 532 300 m 581 550 q 639 567 618 550 q 660 619 660 585 q 640 666 660 650 q 581 682 619 682 q 522 666 542 682 q 501 619 501 650 q 522 567 501 585 q 581 550 543 550 z "},"⑨":{"ha":1156,"x_min":58,"x_max":1099,"o":"m 576 -24 q 376 17 469 -24 q 210 128 282 57 q 98 294 138 200 q 58 497 58 389 q 98 698 58 604 q 210 863 138 792 q 376 975 282 935 q 576 1015 469 1015 q 779 975 685 1015 q 945 863 874 935 q 1058 698 1017 792 q 1099 497 1099 604 q 1058 294 1099 389 q 945 128 1017 200 q 779 17 874 57 q 576 -24 685 -24 m 576 85 q 738 116 663 85 q 870 204 814 147 q 958 336 926 261 q 989 497 989 411 q 958 658 989 583 q 870 788 926 732 q 738 876 814 844 q 576 907 663 907 q 415 876 490 907 q 285 788 340 844 q 197 658 229 732 q 165 497 165 583 q 197 336 165 411 q 285 204 229 261 q 415 116 340 147 q 576 85 490 85 m 592 771 q 743 707 686 771 q 800 518 800 643 q 776 363 800 432 q 703 252 753 293 q 572 211 653 211 q 445 245 489 211 q 388 346 401 279 l 486 356 q 514 313 493 328 q 574 299 535 299 q 658 338 626 299 q 694 447 689 376 q 649 409 681 425 q 574 393 618 393 q 436 440 490 393 q 382 581 382 486 q 441 721 382 671 q 592 771 500 771 m 589 682 q 511 653 539 682 q 483 578 483 625 q 510 504 483 531 q 589 478 538 478 q 642 490 619 478 q 678 524 665 501 q 692 578 692 546 q 665 653 693 625 q 589 682 638 682 z "},"⁄":{"ha":233,"x_min":-278,"x_max":511,"o":"m -278 0 l 394 986 l 511 986 l -161 0 l -278 0 z "},"½":{"ha":1132,"x_min":28,"x_max":1075,"o":"m 164 449 l 164 788 l 28 786 l 28 867 l 63 867 q 157 899 125 867 q 189 988 189 931 l 271 988 l 271 449 l 164 449 m 126 0 l 799 986 l 915 986 l 243 0 l 126 0 m 694 0 q 704 109 694 64 q 744 190 714 154 q 835 257 775 225 l 906 294 q 945 321 931 308 q 966 349 960 333 q 972 389 972 365 q 950 441 972 422 q 894 460 928 460 q 825 438 849 460 q 794 368 801 415 l 694 372 q 753 501 703 454 q 893 549 804 549 q 1028 505 981 549 q 1075 390 1075 461 q 1040 286 1075 325 q 944 217 1006 247 l 885 186 q 828 140 844 165 q 811 92 811 115 l 1074 92 l 1074 0 l 694 0 z "},"⅓":{"ha":1117,"x_min":28,"x_max":1075,"o":"m 164 449 l 164 788 l 28 786 l 28 867 l 63 867 q 157 899 125 867 q 189 988 189 931 l 271 988 l 271 449 l 164 449 m 126 0 l 799 986 l 915 986 l 243 0 l 126 0 m 869 -11 q 751 8 794 -11 q 688 62 707 26 q 665 143 668 97 l 769 147 q 795 97 772 117 q 869 78 818 78 q 942 99 917 78 q 968 157 968 119 q 943 215 968 193 q 864 238 918 238 l 826 238 l 826 322 l 864 322 q 922 340 900 322 q 944 389 944 357 q 925 439 944 419 q 863 458 906 458 q 801 440 824 458 q 776 393 779 421 l 672 400 q 728 507 681 465 q 863 549 775 549 q 1003 508 958 549 q 1049 403 1049 467 q 1024 326 1049 354 q 953 286 1000 299 q 1047 235 1021 271 q 1074 153 1074 200 q 1018 33 1074 78 q 869 -11 963 -11 z "},"⅔":{"ha":1206,"x_min":57,"x_max":1164,"o":"m 57 449 q 67 558 57 513 q 107 638 76 603 q 197 706 138 674 l 268 743 q 308 769 293 757 q 328 798 322 782 q 335 838 335 814 q 313 890 335 871 q 257 908 290 908 q 188 886 211 908 q 157 817 164 864 l 57 821 q 116 950 65 903 q 256 997 167 997 q 390 953 343 997 q 438 839 438 910 q 403 735 438 774 q 307 665 368 696 l 247 635 q 190 589 207 614 q 174 540 174 564 l 436 540 l 436 449 l 57 449 m 217 0 l 889 986 l 1006 986 l 333 0 l 217 0 m 960 -11 q 841 8 885 -11 q 778 62 797 26 q 756 143 758 97 l 860 147 q 885 97 863 117 q 960 78 908 78 q 1033 99 1007 78 q 1058 157 1058 119 q 1033 215 1058 193 q 954 238 1008 238 l 917 238 l 917 322 l 954 322 q 1013 340 990 322 q 1035 389 1035 357 q 1015 439 1035 419 q 953 458 996 458 q 892 440 914 458 q 867 393 869 421 l 763 400 q 818 507 771 465 q 953 549 865 549 q 1094 508 1049 549 q 1139 403 1139 467 q 1115 326 1139 354 q 1043 286 1090 299 q 1138 235 1111 271 q 1164 153 1164 200 q 1108 33 1164 78 q 960 -11 1053 -11 z "},"¼":{"ha":1043,"x_min":28,"x_max":1015,"o":"m 164 449 l 164 788 l 28 786 l 28 867 l 63 867 q 157 899 125 867 q 189 988 189 931 l 271 988 l 271 449 l 164 449 m 126 0 l 799 986 l 915 986 l 243 0 l 126 0 m 836 0 l 836 118 l 585 118 l 585 199 l 835 538 l 943 538 l 943 208 l 1015 208 l 1015 118 l 943 118 l 943 0 l 836 0 m 693 208 l 836 208 l 836 394 l 693 208 z "},"¾":{"ha":1117,"x_min":28,"x_max":1089,"o":"m 232 438 q 113 456 157 438 q 50 510 69 475 q 28 592 31 546 l 132 596 q 158 546 135 565 q 232 526 181 526 q 305 547 279 526 q 331 606 331 568 q 306 664 331 642 q 226 686 281 686 l 189 686 l 189 771 l 226 771 q 285 788 263 771 q 307 838 307 806 q 288 888 307 868 q 225 907 268 907 q 164 888 186 907 q 139 842 142 869 l 35 849 q 90 956 43 914 q 225 997 138 997 q 366 956 321 997 q 411 851 411 915 q 387 775 411 803 q 315 735 363 747 q 410 684 383 719 q 436 601 436 649 q 381 482 436 526 q 232 438 325 438 m 200 0 l 872 986 l 989 986 l 317 0 l 200 0 m 910 0 l 910 118 l 658 118 l 658 199 l 908 538 l 1017 538 l 1017 208 l 1089 208 l 1089 118 l 1017 118 l 1017 0 l 910 0 m 767 208 l 910 208 l 910 394 l 767 208 z "},"⅕":{"ha":1133,"x_min":28,"x_max":1092,"o":"m 164 449 l 164 788 l 28 786 l 28 867 l 63 867 q 157 899 125 867 q 189 988 189 931 l 271 988 l 271 449 l 164 449 m 126 0 l 799 986 l 915 986 l 243 0 l 126 0 m 888 -11 q 750 27 800 -11 q 693 133 700 65 l 797 139 q 827 93 804 108 q 889 78 850 78 q 962 103 936 78 q 988 176 988 129 q 965 247 988 218 q 899 275 943 275 q 840 261 863 275 q 801 224 817 247 l 703 224 l 743 538 l 1057 538 l 1057 449 l 831 449 l 817 321 q 858 348 832 339 q 919 357 885 357 q 1049 306 1007 357 q 1092 176 1092 254 q 1038 39 1092 89 q 888 -11 983 -11 z "},"⅛":{"ha":1140,"x_min":28,"x_max":1099,"o":"m 164 449 l 164 788 l 28 786 l 28 867 l 63 867 q 157 899 125 867 q 189 988 189 931 l 271 988 l 271 449 l 164 449 m 126 0 l 799 986 l 915 986 l 243 0 l 126 0 m 889 -11 q 731 31 783 -11 q 679 144 679 72 q 709 233 679 194 q 793 290 739 271 q 728 331 751 304 q 704 410 704 358 q 750 512 704 475 q 889 549 796 549 q 1028 512 982 549 q 1074 410 1074 475 q 1050 331 1074 358 q 985 290 1026 304 q 1068 232 1038 269 q 1099 144 1099 194 q 1047 31 1099 72 q 889 -11 994 -11 m 889 78 q 965 97 939 78 q 992 154 992 115 q 965 217 992 192 q 889 243 939 243 q 813 217 840 243 q 786 154 786 192 q 813 97 786 115 q 889 78 840 78 m 889 328 q 947 345 926 328 q 968 397 968 363 q 948 444 968 428 q 889 460 928 460 q 830 444 850 460 q 810 397 810 428 q 831 345 810 363 q 889 328 851 328 z "},"⅜":{"ha":1214,"x_min":28,"x_max":1172,"o":"m 232 438 q 113 456 157 438 q 50 510 69 475 q 28 592 31 546 l 132 596 q 158 546 135 565 q 232 526 181 526 q 305 547 279 526 q 331 606 331 568 q 306 664 331 642 q 226 686 281 686 l 189 686 l 189 771 l 226 771 q 285 788 263 771 q 307 838 307 806 q 288 888 307 868 q 225 907 268 907 q 164 888 186 907 q 139 842 142 869 l 35 849 q 90 956 43 914 q 225 997 138 997 q 366 956 321 997 q 411 851 411 915 q 387 775 411 803 q 315 735 363 747 q 410 684 383 719 q 436 601 436 649 q 381 482 436 526 q 232 438 325 438 m 200 0 l 872 986 l 989 986 l 317 0 l 200 0 m 963 -11 q 805 31 857 -11 q 753 144 753 72 q 783 233 753 194 q 867 290 813 271 q 801 331 825 304 q 778 410 778 358 q 824 512 778 475 q 963 549 869 549 q 1101 512 1056 549 q 1147 410 1147 475 q 1124 331 1147 358 q 1058 290 1100 304 q 1142 232 1111 269 q 1172 144 1172 194 q 1120 31 1172 72 q 963 -11 1068 -11 m 963 78 q 1039 97 1013 78 q 1065 154 1065 115 q 1039 217 1065 192 q 963 243 1013 243 q 887 217 914 243 q 860 154 860 192 q 887 97 860 115 q 963 78 914 78 m 963 328 q 1021 345 1000 328 q 1042 397 1042 363 q 1022 444 1042 428 q 963 460 1001 460 q 903 444 924 460 q 883 397 883 428 q 904 345 883 363 q 963 328 925 328 z "},"⅝":{"ha":1232,"x_min":56,"x_max":1190,"o":"m 250 438 q 113 476 163 438 q 56 582 63 514 l 160 588 q 190 542 167 557 q 251 526 213 526 q 324 552 299 526 q 350 625 350 578 q 328 695 350 667 q 261 724 306 724 q 202 710 225 724 q 164 672 179 696 l 65 672 l 106 986 l 419 986 l 419 897 l 193 897 l 179 769 q 221 797 194 788 q 282 806 247 806 q 412 754 369 806 q 454 625 454 703 q 400 488 454 538 q 250 438 346 438 m 218 0 l 890 986 l 1007 986 l 335 0 l 218 0 m 981 -11 q 823 31 875 -11 q 771 144 771 72 q 801 233 771 194 q 885 290 831 271 q 819 331 843 304 q 796 410 796 358 q 842 512 796 475 q 981 549 888 549 q 1119 512 1074 549 q 1165 410 1165 475 q 1142 331 1165 358 q 1076 290 1118 304 q 1160 232 1129 269 q 1190 144 1190 194 q 1138 31 1190 72 q 981 -11 1086 -11 m 981 78 q 1057 97 1031 78 q 1083 154 1083 115 q 1057 217 1083 192 q 981 243 1031 243 q 905 217 932 243 q 878 154 878 192 q 905 97 878 115 q 981 78 932 78 m 981 328 q 1039 345 1018 328 q 1060 397 1060 363 q 1040 444 1060 428 q 981 460 1019 460 q 922 444 942 460 q 901 397 901 428 q 922 345 901 363 q 981 328 943 328 z "},"⅞":{"ha":1118,"x_min":28,"x_max":1076,"o":"m 122 447 q 141 607 122 529 q 195 757 160 685 q 281 894 231 829 l 28 894 l 28 986 l 396 986 l 396 911 q 304 772 342 843 q 247 622 267 701 q 228 447 228 542 l 122 447 m 104 0 l 776 986 l 893 986 l 221 0 l 104 0 m 867 -11 q 709 31 761 -11 q 657 144 657 72 q 687 233 657 194 q 771 290 717 271 q 706 331 729 304 q 682 410 682 358 q 728 512 682 475 q 867 549 774 549 q 1006 512 960 549 q 1051 410 1051 475 q 1028 331 1051 358 q 963 290 1004 304 q 1046 232 1015 269 q 1076 144 1076 194 q 1024 31 1076 72 q 867 -11 972 -11 m 867 78 q 943 97 917 78 q 969 154 969 115 q 943 217 969 192 q 867 243 917 243 q 791 217 818 243 q 764 154 764 192 q 791 97 764 115 q 867 78 818 78 m 867 328 q 925 345 904 328 q 946 397 946 363 q 926 444 946 428 q 867 460 906 460 q 808 444 828 460 q 788 397 788 428 q 808 345 788 363 q 867 328 829 328 z "},"₀":{"ha":561,"x_min":56,"x_max":506,"o":"m 281 -150 q 117 -75 178 -150 q 56 131 56 0 q 116 335 56 261 q 281 410 176 410 q 444 335 383 410 q 506 131 506 261 q 444 -75 506 0 q 281 -150 383 -150 m 281 -58 q 369 -11 339 -58 q 399 131 399 36 q 368 270 399 222 q 281 318 338 318 q 192 272 222 318 q 163 131 163 226 q 194 -7 163 44 q 281 -58 226 -58 m 206 -64 l 161 7 l 356 328 l 400 258 l 206 -64 z "},"₁":{"ha":354,"x_min":28,"x_max":271,"o":"m 164 -139 l 164 200 l 28 199 l 28 279 l 63 279 q 157 311 125 279 q 189 400 189 343 l 271 400 l 271 -139 l 164 -139 z "},"₂":{"ha":494,"x_min":57,"x_max":438,"o":"m 57 -139 q 67 -30 57 -75 q 107 51 76 15 q 197 118 138 86 l 268 156 q 308 182 293 169 q 328 210 322 194 q 335 250 335 226 q 313 302 335 283 q 257 321 290 321 q 188 299 211 321 q 157 229 164 276 l 57 233 q 116 363 65 315 q 256 410 167 410 q 390 366 343 410 q 438 251 438 322 q 403 147 438 186 q 307 78 368 108 l 247 47 q 190 1 207 26 q 174 -47 174 -24 l 436 -47 l 436 -139 l 57 -139 z "},"₃":{"ha":478,"x_min":28,"x_max":436,"o":"m 232 -150 q 113 -131 157 -150 q 50 -77 69 -112 q 28 4 31 -42 l 132 8 q 158 -42 135 -22 q 232 -61 181 -61 q 305 -40 279 -61 q 331 18 331 -19 q 306 76 331 54 q 226 99 281 99 l 189 99 l 189 183 l 226 183 q 285 201 263 183 q 307 250 307 218 q 288 300 307 281 q 225 319 268 319 q 164 301 186 319 q 139 254 142 282 l 35 261 q 90 368 43 326 q 225 410 138 410 q 366 369 321 410 q 411 264 411 328 q 387 188 411 215 q 315 147 363 160 q 410 97 383 132 q 436 14 436 61 q 381 -106 436 -61 q 232 -150 325 -150 z "},"₄":{"ha":472,"x_min":14,"x_max":444,"o":"m 265 -139 l 265 -21 l 14 -21 l 14 60 l 264 399 l 372 399 l 372 69 l 444 69 l 444 -21 l 372 -21 l 372 -139 l 265 -139 m 122 69 l 265 69 l 265 256 l 122 69 z "},"₅":{"ha":496,"x_min":56,"x_max":454,"o":"m 250 -150 q 113 -112 163 -150 q 56 -6 63 -74 l 160 0 q 190 -46 167 -31 q 251 -61 213 -61 q 324 -35 299 -61 q 350 38 350 -10 q 328 108 350 79 q 261 136 306 136 q 202 122 225 136 q 164 85 179 108 l 65 85 l 106 399 l 419 399 l 419 310 l 193 310 l 179 182 q 221 209 194 200 q 282 218 247 218 q 412 167 369 218 q 454 38 454 115 q 400 -100 454 -50 q 250 -150 346 -150 z "},"₆":{"ha":529,"x_min":56,"x_max":472,"o":"m 264 -150 q 113 -86 169 -150 q 56 103 56 -22 q 78 258 56 189 q 152 369 101 328 q 282 410 203 410 q 410 376 367 410 q 468 275 453 342 l 369 265 q 341 308 363 294 q 281 322 319 322 q 197 283 229 322 q 161 174 165 244 q 207 213 176 197 q 281 228 238 228 q 419 181 365 228 q 472 40 472 135 q 414 -100 472 -50 q 264 -150 356 -150 m 265 -61 q 343 -33 315 -61 q 371 43 371 -4 q 344 117 371 90 q 267 143 318 143 q 214 131 238 143 q 177 97 190 119 q 163 43 164 75 q 190 -33 161 -4 q 265 -61 218 -61 z "},"₇":{"ha":424,"x_min":28,"x_max":396,"o":"m 122 -139 q 141 21 122 -57 q 195 171 160 99 q 281 308 231 243 l 28 308 l 28 400 l 396 400 l 396 325 q 304 186 342 257 q 247 35 267 115 q 228 -139 228 -44 l 122 -139 z "},"₈":{"ha":503,"x_min":42,"x_max":461,"o":"m 251 -150 q 94 -108 146 -150 q 42 6 42 -67 q 72 94 42 56 q 156 151 101 132 q 90 192 114 165 q 67 271 67 219 q 113 373 67 336 q 251 410 158 410 q 390 373 344 410 q 436 271 436 336 q 413 192 436 219 q 347 151 389 165 q 431 93 400 131 q 461 6 461 56 q 409 -108 461 -67 q 251 -150 357 -150 m 251 -61 q 328 -42 301 -61 q 354 15 354 -24 q 328 78 354 53 q 251 104 301 104 q 176 78 203 104 q 149 15 149 53 q 176 -42 149 -24 q 251 -61 203 -61 m 251 189 q 310 206 289 189 q 331 258 331 224 q 310 305 331 289 q 251 321 290 321 q 192 305 213 321 q 172 258 172 289 q 193 206 172 224 q 251 189 214 189 z "},"₉":{"ha":529,"x_min":57,"x_max":474,"o":"m 265 410 q 417 346 361 410 q 474 157 474 282 q 450 1 474 71 q 376 -109 426 -68 q 246 -150 326 -150 q 119 -116 163 -150 q 61 -15 75 -82 l 160 -6 q 188 -48 167 -33 q 247 -62 210 -62 q 332 -24 300 -62 q 368 86 364 15 q 323 48 354 64 q 247 32 292 32 q 110 78 164 32 q 57 219 57 125 q 115 360 57 310 q 265 410 174 410 m 264 321 q 185 292 213 321 q 158 217 158 264 q 185 143 158 169 q 263 117 211 117 q 316 128 293 117 q 353 163 339 140 q 367 217 367 185 q 340 292 368 264 q 264 321 313 321 z "},"⁰":{"ha":561,"x_min":56,"x_max":506,"o":"m 281 438 q 117 513 178 438 q 56 718 56 588 q 116 923 56 849 q 281 997 176 997 q 444 923 383 997 q 506 718 506 849 q 444 513 506 588 q 281 438 383 438 m 281 529 q 369 576 339 529 q 399 718 399 624 q 368 858 399 810 q 281 906 338 906 q 192 860 222 906 q 163 718 163 814 q 194 581 163 632 q 281 529 226 529 m 206 524 l 161 594 l 356 915 l 400 846 l 206 524 z "},"¹":{"ha":354,"x_min":28,"x_max":271,"o":"m 164 449 l 164 788 l 28 786 l 28 867 l 63 867 q 157 899 125 867 q 189 988 189 931 l 271 988 l 271 449 l 164 449 z "},"²":{"ha":494,"x_min":57,"x_max":438,"o":"m 57 449 q 67 558 57 513 q 107 638 76 603 q 197 706 138 674 l 268 743 q 308 769 293 757 q 328 798 322 782 q 335 838 335 814 q 313 890 335 871 q 257 908 290 908 q 188 886 211 908 q 157 817 164 864 l 57 821 q 116 950 65 903 q 256 997 167 997 q 390 953 343 997 q 438 839 438 910 q 403 735 438 774 q 307 665 368 696 l 247 635 q 190 589 207 614 q 174 540 174 564 l 436 540 l 436 449 l 57 449 z "},"³":{"ha":478,"x_min":28,"x_max":436,"o":"m 232 438 q 113 456 157 438 q 50 510 69 475 q 28 592 31 546 l 132 596 q 158 546 135 565 q 232 526 181 526 q 305 547 279 526 q 331 606 331 568 q 306 664 331 642 q 226 686 281 686 l 189 686 l 189 771 l 226 771 q 285 788 263 771 q 307 838 307 806 q 288 888 307 868 q 225 907 268 907 q 164 888 186 907 q 139 842 142 869 l 35 849 q 90 956 43 914 q 225 997 138 997 q 366 956 321 997 q 411 851 411 915 q 387 775 411 803 q 315 735 363 747 q 410 684 383 719 q 436 601 436 649 q 381 482 436 526 q 232 438 325 438 z "},"⁴":{"ha":472,"x_min":14,"x_max":444,"o":"m 265 449 l 265 567 l 14 567 l 14 647 l 264 986 l 372 986 l 372 657 l 444 657 l 444 567 l 372 567 l 372 449 l 265 449 m 122 657 l 265 657 l 265 843 l 122 657 z "},"⁵":{"ha":496,"x_min":56,"x_max":454,"o":"m 250 438 q 113 476 163 438 q 56 582 63 514 l 160 588 q 190 542 167 557 q 251 526 213 526 q 324 552 299 526 q 350 625 350 578 q 328 695 350 667 q 261 724 306 724 q 202 710 225 724 q 164 672 179 696 l 65 672 l 106 986 l 419 986 l 419 897 l 193 897 l 179 769 q 221 797 194 788 q 282 806 247 806 q 412 754 369 806 q 454 625 454 703 q 400 488 454 538 q 250 438 346 438 z "},"⁶":{"ha":529,"x_min":56,"x_max":472,"o":"m 264 438 q 113 501 169 438 q 56 690 56 565 q 78 846 56 776 q 152 956 101 915 q 282 997 203 997 q 410 963 367 997 q 468 863 453 929 l 369 853 q 341 896 363 882 q 281 910 319 910 q 197 871 229 910 q 161 761 165 832 q 207 800 176 785 q 281 815 238 815 q 419 769 365 815 q 472 628 472 722 q 414 488 472 538 q 264 438 356 438 m 265 526 q 343 555 315 526 q 371 631 371 583 q 344 704 371 678 q 267 731 318 731 q 214 719 238 731 q 177 685 190 707 q 163 631 164 663 q 190 555 161 583 q 265 526 218 526 z "},"⁷":{"ha":424,"x_min":28,"x_max":396,"o":"m 122 447 q 141 607 122 529 q 195 757 160 685 q 281 894 231 829 l 28 894 l 28 986 l 396 986 l 396 911 q 304 772 342 843 q 247 622 267 701 q 228 447 228 542 l 122 447 z "},"⁸":{"ha":503,"x_min":42,"x_max":461,"o":"m 251 438 q 94 479 146 438 q 42 593 42 521 q 72 681 42 643 q 156 739 101 719 q 90 780 114 753 q 67 858 67 807 q 113 960 67 924 q 251 997 158 997 q 390 960 344 997 q 436 858 436 924 q 413 780 436 807 q 347 739 389 753 q 431 681 400 718 q 461 593 461 643 q 409 479 461 521 q 251 438 357 438 m 251 526 q 328 545 301 526 q 354 603 354 564 q 328 666 354 640 q 251 692 301 692 q 176 666 203 692 q 149 603 149 640 q 176 545 149 564 q 251 526 203 526 m 251 776 q 310 794 289 776 q 331 846 331 811 q 310 892 331 876 q 251 908 290 908 q 192 892 213 908 q 172 846 172 876 q 193 794 172 811 q 251 776 214 776 z "},"⁹":{"ha":529,"x_min":57,"x_max":474,"o":"m 265 997 q 417 933 361 997 q 474 744 474 869 q 450 589 474 658 q 376 478 426 519 q 246 438 326 438 q 119 472 163 438 q 61 572 75 506 l 160 582 q 188 540 167 554 q 247 525 210 525 q 332 564 300 525 q 368 674 364 603 q 323 635 354 651 q 247 619 292 619 q 110 666 164 619 q 57 807 57 713 q 115 947 57 897 q 265 997 174 997 m 264 908 q 185 880 213 908 q 158 804 158 851 q 185 731 158 757 q 263 704 211 704 q 316 716 293 704 q 353 750 339 728 q 367 804 367 772 q 340 880 368 851 q 264 908 313 908 z "}," ":{"ha":338,"x_min":0,"x_max":0,"o":""}," ":{"ha":338,"x_min":0,"x_max":0,"o":""},".":{"ha":296,"x_min":58,"x_max":238,"o":"m 58 0 l 58 175 l 238 175 l 238 0 l 58 0 z "},",":{"ha":296,"x_min":58,"x_max":238,"o":"m 65 -218 l 135 0 l 58 0 l 58 175 l 238 175 l 238 21 l 150 -218 l 65 -218 z "},":":{"ha":419,"x_min":119,"x_max":300,"o":"m 119 0 l 119 175 l 299 175 l 299 0 l 119 0 m 119 529 l 119 704 l 299 704 l 299 529 l 119 529 z "},";":{"ha":419,"x_min":119,"x_max":300,"o":"m 119 529 l 119 704 l 299 704 l 299 529 l 119 529 m 126 -218 l 196 0 l 119 0 l 119 175 l 299 175 l 299 21 l 211 -218 l 126 -218 z "},"…":{"ha":850,"x_min":58,"x_max":793,"o":"m 58 0 l 58 175 l 238 175 l 238 0 l 58 0 m 336 0 l 336 175 l 515 175 l 515 0 l 336 0 m 614 0 l 614 175 l 793 175 l 793 0 l 614 0 z "},"!":{"ha":317,"x_min":68,"x_max":249,"o":"m 114 294 q 103 410 108 343 q 92 548 97 478 q 88 674 88 618 l 88 986 l 238 986 l 238 674 q 233 548 238 618 q 223 410 229 478 q 213 294 217 343 l 114 294 m 68 0 l 68 175 l 249 175 l 249 0 l 68 0 z "},"¡":{"ha":317,"x_min":68,"x_max":249,"o":"m 88 -225 l 88 88 q 92 213 88 143 q 103 351 97 283 q 114 467 108 418 l 213 467 q 223 351 217 418 q 233 213 229 283 q 238 88 238 143 l 238 -225 l 88 -225 m 68 761 l 249 761 l 249 586 l 68 586 l 68 761 z "},"?":{"ha":792,"x_min":58,"x_max":733,"o":"m 317 290 q 348 453 317 394 q 453 554 379 513 q 533 608 506 585 q 570 658 561 632 q 579 724 579 685 q 536 831 579 789 q 415 874 493 874 q 274 826 324 874 q 214 686 224 778 l 58 694 q 111 857 67 786 q 233 968 156 928 q 415 1008 310 1008 q 584 972 513 1008 q 694 871 656 935 q 733 724 733 807 q 715 622 733 664 q 659 544 697 579 q 560 471 621 508 q 485 399 506 438 q 465 290 465 361 l 317 290 m 299 0 l 299 175 l 478 175 l 478 0 l 299 0 z "},"¿":{"ha":792,"x_min":58,"x_max":733,"o":"m 376 -225 q 208 -188 279 -225 q 97 -87 136 -151 q 58 60 58 -22 q 76 162 58 119 q 133 240 94 204 q 232 313 171 275 q 307 385 288 346 q 326 493 326 424 l 474 493 q 443 331 474 390 q 339 229 413 271 q 259 175 286 199 q 222 125 232 151 q 213 60 213 99 q 256 -48 213 -6 q 376 -90 299 -90 q 519 -42 468 -90 q 578 97 569 6 l 733 89 q 681 -74 725 -3 q 559 -185 636 -144 q 376 -225 482 -225 m 493 783 l 493 608 l 313 608 l 313 783 l 493 783 z "},"·":{"ha":296,"x_min":58,"x_max":238,"o":"m 58 333 l 58 508 l 238 508 l 238 333 l 58 333 z "},"•":{"ha":457,"x_min":58,"x_max":399,"o":"m 228 263 q 138 284 176 263 q 79 343 100 306 q 58 428 58 381 q 79 514 58 476 q 138 573 100 551 q 228 594 176 594 q 319 573 281 594 q 378 514 357 551 q 399 428 399 476 q 378 343 399 381 q 319 284 357 306 q 228 263 281 263 z "},"*":{"ha":593,"x_min":58,"x_max":536,"o":"m 213 522 l 128 574 l 217 708 l 58 708 l 58 814 l 217 813 l 128 947 l 213 1000 l 297 858 l 383 1000 l 467 947 l 378 813 l 536 814 l 536 708 l 378 708 l 467 574 l 383 522 l 297 663 l 213 522 z "},"〃":{"ha":522,"x_min":58,"x_max":465,"o":"m 58 390 l 144 668 l 283 668 l 156 390 l 58 390 m 240 390 l 328 668 l 465 668 l 339 390 l 240 390 z "},"#":{"ha":715,"x_min":-8,"x_max":717,"o":"m 351 0 l 524 986 l 654 986 l 481 0 l 351 0 m -8 258 l 11 378 l 663 378 l 644 258 l -8 258 m 57 0 l 229 986 l 360 986 l 186 0 l 57 0 m 47 603 l 65 722 l 717 722 l 699 603 l 47 603 z "},"/":{"ha":686,"x_min":51,"x_max":604,"o":"m 51 -153 l 463 1042 l 604 1042 l 194 -153 l 51 -153 z "},"\\":{"ha":653,"x_min":50,"x_max":603,"o":"m 603 -153 l 460 -153 l 50 1042 l 193 1042 l 603 -153 z "},"-":{"ha":581,"x_min":58,"x_max":524,"o":"m 58 340 l 58 469 l 524 469 l 524 340 l 58 340 z "},"–":{"ha":822,"x_min":58,"x_max":765,"o":"m 58 342 l 58 469 l 765 469 l 765 342 l 58 342 z "},"—":{"ha":1261,"x_min":58,"x_max":1204,"o":"m 58 342 l 58 469 l 1204 469 l 1204 342 l 58 342 z "},"_":{"ha":775,"x_min":58,"x_max":718,"o":"m 58 -128 l 58 0 l 718 0 l 718 -128 l 58 -128 z "},"〜":{"ha":1186,"x_min":58,"x_max":1129,"o":"m 826 275 q 738 285 776 275 q 660 314 699 294 q 571 360 621 333 q 469 403 521 388 q 369 419 417 419 q 249 389 306 419 q 128 297 193 358 l 58 399 q 172 490 121 457 q 272 536 222 522 q 375 550 321 550 q 484 533 425 550 q 615 476 543 515 q 702 433 669 449 q 762 411 735 417 q 824 406 789 406 q 898 417 863 406 q 972 454 933 428 q 1058 525 1010 481 l 1129 422 q 975 312 1051 349 q 826 275 899 275 z "},"(":{"ha":403,"x_min":61,"x_max":383,"o":"m 253 -153 q 61 444 61 139 q 253 1042 61 751 l 383 1042 q 210 444 210 742 q 253 147 210 296 q 383 -153 297 -3 l 253 -153 z "},")":{"ha":403,"x_min":19,"x_max":342,"o":"m 150 -153 l 19 -153 q 149 147 106 -3 q 193 444 193 296 q 19 1042 193 742 l 150 1042 q 342 444 342 751 q 150 -153 342 139 z "},"{":{"ha":549,"x_min":61,"x_max":529,"o":"m 449 -164 q 265 -95 332 -164 q 199 82 199 -26 l 199 197 q 183 297 199 257 q 136 356 167 336 q 61 375 106 375 l 61 507 q 136 526 106 507 q 183 585 167 546 q 199 683 199 625 l 199 799 q 265 977 199 908 q 449 1046 332 1046 l 529 1046 l 529 914 q 383 889 428 918 q 339 790 339 860 l 339 672 q 292 514 339 571 q 182 443 246 457 l 182 440 q 293 369 247 428 q 339 208 339 311 l 339 92 q 383 -8 339 22 q 529 -35 428 -37 l 529 -164 l 449 -164 z "},"}":{"ha":549,"x_min":19,"x_max":488,"o":"m 100 -164 l 19 -164 l 19 -35 q 166 -8 122 -37 q 210 92 210 22 l 210 208 q 256 369 210 311 q 368 440 303 428 l 368 443 q 257 514 304 457 q 210 672 210 571 l 210 790 q 166 889 210 860 q 19 914 122 918 l 19 1046 l 100 1046 q 285 977 219 1046 q 350 799 350 908 l 350 683 q 366 585 350 625 q 413 526 382 546 q 488 507 443 507 l 488 375 q 413 356 443 375 q 366 297 382 336 q 350 197 350 257 l 350 82 q 285 -95 350 -26 q 100 -164 219 -164 z "},"[":{"ha":501,"x_min":119,"x_max":482,"o":"m 482 -153 l 119 -153 l 119 1042 l 482 1042 l 482 922 l 260 922 l 260 -33 l 482 -33 l 482 -153 z "},"]":{"ha":501,"x_min":19,"x_max":382,"o":"m 19 -153 l 19 -33 l 242 -33 l 242 922 l 19 922 l 19 1042 l 382 1042 l 382 -153 l 19 -153 z "}}}
